<?xml version="1.0" encoding="UTF-8" standalone="no"?>
<svg width="107px" height="28px" viewBox="0 0 107 28" version="1.1" xmlns="http://www.w3.org/2000/svg" xmlns:xlink="http://www.w3.org/1999/xlink">
    <!-- Generator: Sketch 46.1 (44463) - http://www.bohemiancoding.com/sketch -->
    <title>asiamiles-sc</title>
    <desc>Created with Sketch.</desc>
    <defs></defs>
    <g id="icons" stroke="none" stroke-width="1" fill="none" fill-rule="evenodd">
        <g id="asiamiles" fill="#4C4C4C">
            <g id="asiamiles-sc">
                <path d="M83.912528,15.8505013 C83.978608,14.7790347 85.7971147,14.0891147 87.3012747,13.701968 C89.3643147,13.171088 92.0911413,12.878768 94.9788747,12.878768 L95.1353013,12.8791413 C100.644208,12.8791413 106.343888,13.993168 106.343888,15.8587147 L106.278555,16.0793547 L104.274501,15.5047947 L104.274501,15.3711413 C104.274501,14.5378613 100.521008,13.6093813 95.134928,13.6093813 C89.747728,13.6093813 85.993488,14.5378613 85.993488,15.3711413 L85.993488,15.5047947 L84.0013813,16.0577013 L83.912528,15.8505013 Z" id="Fill-1257"></path>
                <polygon id="Fill-1260" points="95.1269387 0 83.909392 27.2522133 85.626352 27.2522133 95.1269387 5.77584 104.627525 27.2522133 106.344112 27.2522133"></polygon>
                <path d="M95.1346293,18.842992 C89.824336,18.842992 85.3305227,17.9197387 84.2045493,16.5977653 C84.0022027,16.359952 83.8969227,16.1086987 83.9126027,15.851472 L83.9708427,15.7290187 L85.9935627,15.1552053 L85.9935627,15.3758453 C85.9935627,16.2091253 89.7478027,17.137232 95.1350027,17.137232 C100.520709,17.137232 104.274576,16.2091253 104.274576,15.3758453 L104.274576,15.1552053 L106.306629,15.6961653 L106.344709,15.8634187 C106.345083,16.9382453 104.517989,17.6274187 102.986203,18.016432 C100.888443,18.549552 98.100016,18.842992 95.1350027,18.842992 L95.1346293,18.842992 Z" id="Fill-1261"></path>
                <path d="M83.912528,15.8505013 C83.9789813,14.7790347 85.797488,14.0891147 87.301648,13.701968 C89.364688,13.171088 92.0915147,12.878768 94.9788747,12.878768 L95.1356747,12.8791413 C100.644581,12.8791413 106.344261,13.993168 106.344261,15.8587147 L106.278928,16.0793547 L104.274875,15.5047947 L104.274875,15.3711413 C104.274875,14.5378613 100.521381,13.6093813 95.1353013,13.6093813 C89.7481013,13.6093813 85.9938613,14.5378613 85.9938613,15.3711413 L85.9938613,15.5047947 L84.0013813,16.0577013 L83.912528,15.8505013 Z" id="Fill-1263"></path>
                <path d="M95.134816,18.842992 C89.8245227,18.842992 85.3307093,17.9197387 84.2051093,16.5977653 C84.0023893,16.359952 83.8971093,16.1086987 83.9127893,15.851472 L83.9714027,15.7290187 L85.9937493,15.1552053 L85.9937493,15.3758453 C85.9937493,16.2091253 89.7479893,17.137232 95.1351893,17.137232 C100.520896,17.137232 104.274763,16.2091253 104.274763,15.3758453 L104.274763,15.1552053 L106.307189,15.6961653 L106.344523,15.8634187 C106.344896,16.9382453 104.518176,17.6274187 102.986763,18.016432 C100.888629,18.549552 98.1002027,18.842992 95.1351893,18.842992 L95.134816,18.842992 Z" id="Fill-1267"></path>
                <path d="M54.67224,26.1987413 L54.67224,24.7699947 L59.9157067,24.769248 L59.9157067,23.6544747 L54.67224,23.6544747 L54.67224,22.3306347 L59.38856,22.3306347 L59.38856,16.0160747 L48.7287733,16.0160747 L48.7287733,22.3306347 L53.2909067,22.3306347 L53.2909067,23.6544747 L48.1743733,23.6544747 L48.1743733,24.769248 L53.2909067,24.7699947 L53.2909067,26.1987413 L47.5733067,26.1987413 L47.5733067,27.3400213 L60.47832,27.3400213 L60.47832,26.1987413 L54.67224,26.1987413 Z M54.67224,18.5995413 L58.0225333,18.5995413 L58.0225333,17.065888 L54.67224,17.065888 L54.67224,18.5995413 Z M54.67224,21.234528 L58.0225333,21.234528 L58.0225333,19.6489813 L54.67224,19.6489813 L54.67224,21.234528 Z M50.0944267,21.234528 L53.2909067,21.234528 L53.2909067,19.6489813 L50.0944267,19.6489813 L50.0944267,21.234528 Z M50.0944267,18.5999147 L53.2909067,18.5999147 L53.2909067,17.0662613 L50.0944267,17.0662613 L50.0944267,18.5999147 Z" id="Fill-1269"></path>
                <path d="M23.0010667,19.045488 C23.4218133,20.0135413 23.8153067,21.2907147 23.9829333,22.1045813 L23.04288,22.469328 C22.91632,21.7114613 22.5795733,20.5615947 22.2144533,19.6207947 L22.2144533,19.9433547 C22.2144533,22.6806347 22.01808,25.4223947 20.29104,27.6399947 L19.1968,26.882128 C20.29104,25.5071413 20.7270933,23.984688 20.8820267,22.3151413 L20.01104,22.6380747 C19.9136,21.7394613 19.5062933,20.3644747 19.1131733,19.340048 L20.0539733,19.002928 C20.40416,19.845168 20.7416533,20.897968 20.93728,21.7394613 C20.96528,21.1361547 20.97984,20.5470347 20.97984,19.9433547 L20.97984,15.4506613 L22.2144533,15.4506613 L22.2144533,19.340048 L23.0010667,19.045488 Z" id="Fill-1270"></path>
                <path d="M28.221536,15.4507733 L28.221536,27.6472 L26.9719893,27.6472 L26.9719893,22.1819733 L26.2708693,22.5190933 C26.087936,21.8034133 25.6526293,20.7648 25.2035093,19.86656 L25.2035093,27.3104533 L23.996896,27.3104533 L23.996896,15.6717867 L25.2035093,15.6717867 L25.2035093,19.0952533 L25.7650027,18.8421333 C26.214496,19.61456 26.677056,20.5688 26.9719893,21.3546667 L26.9719893,15.4507733 L28.221536,15.4507733 Z" id="Fill-1272"></path>
                <path d="M19.1657387,17.646832 C18.4388587,16.774352 17.931872,16.1900853 17.454752,15.6786187 L16.510592,16.439472 C17.572352,17.681552 18.079712,18.276272 18.2279253,18.4603253 L19.1657387,17.646832 Z" id="Fill-1274"></path>
                <path d="M18.619776,20.8980427 C18.254656,20.3694027 17.7547627,19.768336 16.9517227,18.8783093 L15.9773227,19.6156427 C16.692256,20.423536 17.1764693,21.0246027 17.6270827,21.6715893 L18.619776,20.8980427 Z" id="Fill-1276"></path>
                <path d="M19.1687253,22.60272 L18.012512,22.2013867 C17.8101653,23.0331733 17.567872,23.7861867 17.2471787,24.6205867 C16.9257387,25.4583467 16.6263253,26.0885333 16.2682987,26.6418133 L17.411072,27.3511467 C17.7746987,26.66608 18.0890453,25.92576 18.428032,24.9845867 C18.7666453,24.04528 19.0029653,23.2941333 19.1687253,22.60272" id="Fill-1278"></path>
                <path d="M36.821792,17.4183893 L36.821792,18.9763093 C36.821792,19.2507093 36.815072,19.5150293 36.8031253,19.7692693 L43.2688853,19.7692693 L43.2688853,21.697536 C43.2688853,22.6902293 43.2050453,23.639616 43.076992,24.5464427 C42.9496853,25.4465493 42.772352,26.0849493 42.5263253,26.4299093 C42.288512,26.7625493 41.9932053,26.9992427 41.6404053,27.1302827 C41.310752,27.2542293 41.015072,27.3229227 40.7559787,27.330016 C40.5185387,27.3371093 40.220992,27.340096 39.8629653,27.340096 C39.2906453,27.340096 38.7646187,27.335616 38.3621653,27.3229227 L38.3621653,26.0748693 C38.803072,26.0898027 38.9516587,26.0942827 39.1946987,26.0942827 C39.9234453,26.0942827 40.3886187,26.0685227 40.606272,26.0222293 C40.8063787,25.9796693 40.9978987,25.870656 41.1789653,25.6832427 C41.347712,25.507776 41.5104853,25.152736 41.652352,24.5830293 C41.7908587,24.0256427 41.8625387,23.2427627 41.8625387,22.2269227 L41.8625387,20.9042027 L36.7045653,20.9042027 C36.3465387,23.7490027 34.932352,25.9363627 32.350752,27.5267627 L31.607072,26.581856 C32.6132053,25.904256 33.3333653,25.2337493 33.9015787,24.480736 C34.4690453,23.728096 34.8666453,22.9112427 35.0954987,22.0271893 C35.325472,21.139776 35.441952,20.065696 35.441952,18.8004693 L35.441952,17.4183893 L31.9807787,17.4183893 L31.9807787,16.257696 L44.624832,16.257696 L44.624832,17.4183893 L36.821792,17.4183893 Z" id="Fill-1280"></path>
                <path d="M8.64901333,26.185936 L8.64901333,16.934736 L12.544,16.934736 L12.544,15.8457227 L0.387146667,15.8457227 L0.387146667,16.934736 L4.14213333,16.934736 L4.14213333,26.185936 L0,26.185936 L0,27.320496 L12.8512533,27.320496 L12.8512533,26.185936 L8.64901333,26.185936 Z M5.49546667,26.185936 L7.29605333,26.185936 L7.29605333,16.934736 L5.49546667,16.934736 L5.49546667,26.185936 Z" id="Fill-1283"></path>
                <path d="M1.703296,18.8909653 C2.390976,20.4066987 3.233216,22.399552 3.59796267,23.592352 L2.334976,24.125472 C2.025856,22.904672 1.23998933,20.8558187 0.566122667,19.2978987 L1.703296,18.8909653 Z" id="Fill-1284"></path>
                <path d="M9.00073067,23.592464 C9.660784,22.357104 10.4888373,20.4068107 10.9233973,18.8910773 L12.200944,19.2980107 C11.625264,20.9399307 10.825584,22.7785973 10.165904,24.0273973 L9.00073067,23.592464 Z" id="Fill-1286"></path>
                <polygon id="Fill-1289" points="64.6693227 15.513904 66.5352427 17.993584 65.4958827 18.7749707 63.6307093 16.2952907"></polygon>
                <path d="M72.6949813,16.90528 L71.455888,17.9823467 L71.437968,17.99168 L70.1301813,16.8545067 L69.2633013,17.6078933 L70.3149813,18.5210667 L67.6348213,18.5210667 L67.6348213,25.8033067 L68.934768,25.8033067 L68.934768,23.38224 L70.808528,23.38224 L70.808528,25.69168 L72.1151947,25.69168 L72.1151947,23.38224 L74.1151413,23.38224 L74.1151413,24.3394667 C74.1151413,24.5418133 74.0281547,24.6418667 73.746288,24.6418667 L72.9951413,24.6418667 L73.255728,25.77008 L74.100208,25.77008 C74.468688,25.77008 74.7875147,25.6778667 75.0428747,25.48336 C75.306448,25.2825067 75.4348747,24.9987733 75.4348747,24.65344 L75.4348747,18.5210667 L72.569168,18.5210667 L75.7593013,15.7479467 L75.7581813,15.7479467 L67.4279947,15.7479467 L67.4279947,16.7973867 L72.8073547,16.7973867 L72.6949813,16.90528 Z M68.934768,22.3858133 L70.808528,22.3858133 L70.808528,21.4140267 L68.934768,21.4140267 L68.934768,22.3858133 Z M68.934768,20.4176 L70.808528,20.4176 L70.808528,19.5048 L68.934768,19.5048 L68.934768,20.4176 Z M72.1151947,22.3858133 L74.1151413,22.3858133 L74.1151413,21.4140267 L72.1151947,21.4140267 L72.1151947,22.3858133 Z M72.1151947,20.4176 L74.1151413,20.4176 L74.1151413,19.5048 L72.1151947,19.5048 L72.1151947,20.4176 Z" id="Fill-1290"></path>
                <path d="M69.2511307,26.1882507 C67.4815307,26.1882507 66.3223307,25.6939573 66.3223307,24.5358773 L66.3223307,20.2410507 L63.199024,20.2410507 L63.199024,21.349104 L64.968624,21.349104 L64.968624,24.954384 L62.692784,26.571664 L63.4125707,27.5285173 L63.4368373,27.5385973 L65.5013707,26.1397173 C66.4193973,27.3351307 67.527824,27.365744 70.7664907,27.365744 L76.0887307,27.365744 L76.5733173,26.1882507 L69.2511307,26.1882507 Z" id="Fill-1292"></path>
            </g>
        </g>
    </g>
</svg>