<?xml version="1.0" encoding="UTF-8" standalone="no"?>
<svg width="105px" height="21px" viewBox="0 0 105 21" version="1.1" xmlns="http://www.w3.org/2000/svg" xmlns:xlink="http://www.w3.org/1999/xlink">
    <!-- Generator: Sketch 46.1 (44463) - http://www.bohemiancoding.com/sketch -->
    <title>cathaypacific-zh</title>
    <desc>Created with Sketch.</desc>
    <defs>
        <polygon id="path-1" points="104.17829 20.6739919 104.17829 0.264800186 0.110179295 0.264800186 0.110179295 20.6739919 104.17829 20.6739919"></polygon>
    </defs>
    <g id="icons" stroke="none" stroke-width="1" fill="none" fill-rule="evenodd">
        <g id="cathaypacific">
            <g id="cathaypacific-zh">
                <mask id="mask-2" fill="white">
                    <use xlink:href="#path-1"></use>
                </mask>
                <g id="Clip-530"></g>
                <path d="M70.3629726,11.1869032 C70.3629726,10.7089839 70.2075048,10.4163387 69.9558435,10.4163387 L69.9558435,10.3509677 L72.0758274,10.3509677 L72.0758274,10.4163387 C71.8248435,10.4163387 71.6693758,10.7089839 71.6693758,11.1869032 L70.3629726,11.1869032 Z" id="Fill-529" fill="#4C4C4C" mask="url(#mask-2)"></path>
                <path d="M74.8292661,13.3431629 C74.8292661,13.3431629 74.9254597,12.8652435 75.0186048,12.4598081 C75.1598468,11.8541952 74.7069919,11.9050016 74.3621855,11.9050016 L67.3834113,11.9050016 L67.3834113,13.3431629 L66.0732823,13.3431629 L66.0732823,12.4638726 C66.0732823,11.9219371 65.8226371,11.2516306 65.512379,11.2516306 L65.512379,11.185921 L75.0528145,11.1855823 C75.4386048,11.1855823 76.6352661,11.0721145 76.3504113,12.3795339 C76.2752177,12.7223081 76.1299113,13.3431629 76.1299113,13.3431629 L74.8292661,13.3431629 Z" id="Fill-531" fill="#4C4C4C" mask="url(#mask-2)"></path>
                <path d="M66.9408871,15.5595774 C67.4547097,15.5595774 67.6674194,15.5531419 68.4281613,14.6694484 L69.5719839,13.3640613 C70.0597258,12.7987548 70.2582097,12.5542065 70.7269839,12.5542065 L70.7269839,12.4749484 L69.5398065,12.4749484 C69.024629,12.4749484 68.8132742,12.4803677 68.0521935,13.3640613 L66.9076935,14.6694484 C66.4216452,15.2347548 66.2221452,15.4796419 65.753371,15.4796419 L65.753371,15.5595774 L66.9408871,15.5595774 Z" id="Fill-532" fill="#4C4C4C" mask="url(#mask-2)"></path>
                <path d="M70.3416677,16.7048226 L70.3416677,19.7159516 L66.8089258,19.7159516 C66.2666516,19.7159516 65.8287,19.4649677 65.8287,19.1547097 L65.7626516,19.1547097 L65.7626516,20.4367258 L76.2287806,20.4367258 L76.2287806,19.1547097 L76.1623935,19.1547097 C76.1623935,19.4649677 75.7244419,19.7159516 75.1821677,19.7159516 L71.6504419,19.7159516 L71.6504419,16.7048226 L74.6598774,16.7048226 C75.2007968,16.7048226 75.6397645,16.9558065 75.6397645,17.2653871 L75.7051355,17.2653871 L75.7051355,15.9850645 L66.2859581,15.9850645 L66.2859581,17.2653871 L66.3516677,17.2653871 C66.3516677,16.9558065 66.7902968,16.7048226 67.3318935,16.7048226 L70.3416677,16.7048226 Z" id="Fill-533" fill="#4C4C4C" mask="url(#mask-2)"></path>
                <path d="M75.0515613,15.5595774 C74.5367226,15.5595774 74.3243516,15.5531419 73.5636097,14.6694484 L72.4191097,13.3640613 C71.9320452,12.7987548 71.7339,12.5542065 71.2651258,12.5542065 L71.2651258,12.4749484 L72.4512871,12.4749484 C72.9661258,12.4749484 73.1781581,12.4803677 73.9402548,13.3640613 L75.0837387,14.6694484 C75.5708032,15.2347548 75.7689484,15.4796419 76.2384,15.4796419 L76.2384,15.5595774 L75.0515613,15.5595774 Z" id="Fill-534" fill="#4C4C4C" mask="url(#mask-2)"></path>
                <path d="M82.0195984,20.4342194 L86.8946468,20.4342194 L87.5141468,18.8737839 L87.4484371,18.8737839 C87.0667113,19.2890419 86.59455,19.7175097 85.9584532,19.7175097 L82.6197919,19.7175097 C82.2041952,19.7175097 82.2272274,19.2775258 82.4605984,18.9814935 L85.0764532,14.6229774 C85.4940823,13.9160903 85.699679,13.6109129 86.1068081,13.6109129 L86.1068081,13.5103161 L85.0971145,13.5103161 C84.8535823,13.5103161 84.1748081,13.5397839 83.7761468,14.2182194 L81.0840823,18.7047677 C80.6590016,19.4509452 80.7609532,20.4342194 82.0195984,20.4342194" id="Fill-535" fill="#4C4C4C" mask="url(#mask-2)"></path>
                <path d="M88.1591516,16.2747629 C87.7181516,15.4124081 87.0495387,15.4032629 86.8056677,15.4032629 L85.8657484,15.4032629 L85.8589742,15.503521 C86.2650871,15.503521 86.4507,15.8083597 86.8178613,16.5152468 L88.3711839,19.5765048 C88.8250548,20.4662952 89.4801194,20.4402145 89.7226355,20.4402145 L90.663571,20.4402145 L90.6706839,20.3406339 C90.2632161,20.3406339 90.0786194,20.0351177 89.7114581,19.3275532 L88.1591516,16.2747629 Z" id="Fill-536" fill="#4C4C4C" mask="url(#mask-2)"></path>
                <path d="M84.1351452,11.8274371 C83.7273387,11.8274371 83.5214032,12.1329532 83.1047903,12.840179 L82.0812097,14.5913081 C81.635129,15.3483242 80.9519516,15.3801629 80.7080806,15.3801629 L79.6987258,15.3801629 L79.697371,15.2792274 C80.1051774,15.2792274 80.3107742,14.9743887 80.7270484,14.2661468 L81.7516452,12.5156952 C82.1977258,11.7580016 82.8809032,11.7268403 83.1244355,11.7268403 L84.1334516,11.7268403 L84.1351452,11.8274371 Z" id="Fill-537" fill="#4C4C4C" mask="url(#mask-2)"></path>
                <path d="M82.6069548,11.2005871 C81.8645032,11.2005871 81.6528097,11.4536032 81.626729,11.6293935 L81.5610194,11.6293935 L81.5610194,10.480829 L87.0708097,10.480829 C87.3143419,10.480829 87.9771968,10.4876032 88.5502935,11.5924742 L89.8959871,14.2659097 C90.2631484,14.9744903 90.446729,15.2789903 90.8545355,15.2789903 L90.8474226,15.378571 L89.9075032,15.378571 C89.6636323,15.378571 89.0011161,15.3707806 88.4270032,14.2659097 L87.3238258,12.0771677 C87.1863097,11.7811355 86.9092452,11.2005871 86.0208097,11.2005871 L82.6069548,11.2005871 Z" id="Fill-538" fill="#4C4C4C" mask="url(#mask-2)"></path>
                <path d="M40.5623129,19.2163548 C40.8044903,18.9077903 41.0459903,18.6452903 41.5493129,18.6452903 L41.5493129,18.5772097 L41.0747806,18.5772097 L40.2869419,18.5772097 C39.9180871,18.5772097 39.5197645,18.5050645 38.9757968,19.2163548 L38.3789903,19.9831935 C38.1361355,20.2914194 37.9047968,20.5539194 37.4014742,20.5539194 L37.4014742,20.622 L37.8665226,20.622 L38.6536839,20.622 C39.0232161,20.622 39.4052806,20.6792419 39.9651677,19.9831935 L40.5623129,19.2163548 Z" id="Fill-539" fill="#4C4C4C" mask="url(#mask-2)"></path>
                <path d="M43.1042613,16.514671 C43.1042613,16.3141548 43.2600677,15.9527516 43.5107129,15.9527516 L43.5107129,15.8863645 L41.390729,15.8863645 L41.390729,15.9527516 C41.6420516,15.9527516 41.7978581,16.3141548 41.7978581,16.514671 L41.7978581,19.1061387 C41.7978581,19.4519613 41.789729,19.8150581 41.3368742,19.8150581 C41.0316968,19.8150581 40.8562452,19.7297032 40.6120355,19.4550097 L40.5463258,19.4550097 L41.1722613,20.5771548 C41.3771806,20.6052677 41.4947129,20.6232194 41.7832935,20.6232194 C42.0718742,20.6232194 43.1042613,20.6286387 43.1042613,19.1061387 L43.1042613,16.514671 Z" id="Fill-540" fill="#4C4C4C" mask="url(#mask-2)"></path>
                <path d="M38.8021065,17.7076065 C39.4707194,18.4405742 39.8341548,18.3464129 40.2036871,18.3464129 L41.0836548,18.3464129 L41.531429,18.3464129 L41.531429,18.2793484 C41.0284452,18.2793484 40.7669613,18.0154935 40.4800742,17.7076065 L40.3998,17.6266548 C39.7193323,16.8947032 39.3670742,16.9881871 38.9978806,16.9881871 L38.1182516,16.9881871 L37.6579452,16.9881871 L37.6579452,17.055929 C38.1612677,17.055929 38.4376548,17.3160581 38.7208161,17.6266548 L38.8021065,17.7076065 Z" id="Fill-541" fill="#4C4C4C" mask="url(#mask-2)"></path>
                <path d="M44.321821,19.2163548 C44.0793048,18.9077903 43.8384823,18.6452903 43.3358371,18.6452903 L43.3358371,18.5772097 L43.8096919,18.5772097 L44.5968532,18.5772097 C44.9657081,18.5772097 45.3647081,18.5050645 45.9083371,19.2163548 L46.5054823,19.9831935 C46.7476597,20.2914194 46.9793371,20.5539194 47.4829984,20.5539194 L47.4829984,20.622 L47.0176113,20.622 L46.23045,20.622 C45.8612565,20.622 45.4785145,20.6792419 44.9186274,19.9831935 L44.321821,19.2163548 Z" id="Fill-542" fill="#4C4C4C" mask="url(#mask-2)"></path>
                <path d="M46.1731403,15.8334919 L45.7019952,15.4629435 C45.0672532,14.9650403 44.7448016,14.7452177 44.4795919,14.6486855 L46.6290435,14.6486855 C47.1706403,14.6486855 47.6092694,14.9006855 47.6092694,15.2106048 L47.674979,15.2106048 L47.674979,13.9289274 L43.1034145,13.9289274 L43.1034145,13.0923145 L45.8435758,13.0923145 C46.3861887,13.0923145 46.824479,13.3432984 46.824479,13.6535565 L46.88985,13.6535565 L46.88985,12.3712016 L43.1034145,12.3712016 L43.1034145,11.6399274 L46.4329306,11.6399274 C46.9748661,11.6399274 47.4131565,11.8915887 47.4131565,12.2015081 L47.4781887,12.2015081 L47.4781887,10.9188145 L43.1034145,10.9188145 C43.1034145,10.7182984 43.2602371,10.3565565 43.5105435,10.3565565 L43.5105435,10.2908468 L41.3908984,10.2908468 L41.3908984,10.3565565 C41.642221,10.3565565 41.7980274,10.7182984 41.7980274,10.9188145 L37.405979,10.9188145 L37.405979,12.2015081 L37.4706726,12.2015081 C37.4706726,11.8915887 37.9096403,11.6399274 38.4512371,11.6399274 L41.7980274,11.6399274 L41.7980274,12.3712016 L37.9943177,12.3712016 L37.9943177,13.6535565 L38.0596887,13.6535565 C38.0596887,13.3432984 38.4983177,13.0923145 39.0399145,13.0923145 L41.7980274,13.0923145 L41.7980274,13.9289274 L37.2095274,13.9289274 L37.2095274,15.2106048 L37.2752371,15.2106048 C37.2752371,14.9006855 37.7135274,14.6486855 38.2558016,14.6486855 L40.4049145,14.6486855 C40.1397048,14.7452177 39.8172532,14.9650403 39.1818339,15.4629435 L38.7110274,15.8334919 C37.6169952,16.6409758 37.5919306,16.6433468 37.2044468,16.6433468 L37.2044468,16.7229435 L38.6863016,16.7229435 C39.2008016,16.7229435 39.4158823,16.7171855 40.5431081,15.8334919 L41.0135758,15.4629435 C41.9741565,14.7082984 42.0459629,14.6564758 42.4422532,14.6524113 C42.8385435,14.6564758 42.9100113,14.7082984 43.8709306,15.4629435 L44.3410597,15.8334919 C45.4686242,16.7171855 45.6833661,16.7229435 46.1978661,16.7229435 L47.6800597,16.7229435 L47.6800597,16.6433468 C47.2918984,16.6433468 47.2675113,16.6409758 46.1731403,15.8334919" id="Fill-543" fill="#4C4C4C" mask="url(#mask-2)"></path>
                <path d="M46.0826371,17.7076065 C45.4130081,18.4405742 45.0499113,18.3464129 44.680379,18.3464129 L43.8010887,18.3464129 L43.3526371,18.3464129 L43.3526371,18.2793484 C43.8559597,18.2793484 44.1174435,18.0154935 44.4036532,17.7076065 L44.4842661,17.6266548 C45.1650726,16.8947032 45.5169919,16.9881871 45.8861855,16.9881871 L46.7661532,16.9881871 L47.226121,16.9881871 L47.226121,17.055929 C46.7227984,17.055929 46.4460726,17.3160581 46.16325,17.6266548 L46.0826371,17.7076065 Z" id="Fill-544" fill="#4C4C4C" mask="url(#mask-2)"></path>
                <path d="M100.32286,17.7683371 C100.310666,18.3651435 99.8334242,18.84645 99.2369565,18.84645 L95.781779,18.84645 L95.781779,14.5400952 L100.32286,14.5400952 L100.32286,17.7683371 Z M93.9110855,13.8203371 L93.9110855,13.8863855 C94.2216823,13.8863855 94.4723274,14.5570306 94.4723274,15.0989661 L94.4723274,18.518579 C94.4723274,19.0605145 94.2223597,19.499821 93.9110855,19.499821 L93.9110855,19.5655306 L99.9309726,19.5662081 C100.873263,19.5662081 101.632311,18.8051274 101.632311,17.8635145 L101.632311,13.8203371 L93.9110855,13.8203371 Z" id="Fill-545" fill="#4C4C4C" mask="url(#mask-2)"></path>
                <path d="M93.7125677,10.2943694 L93.7125677,11.44395 L93.7769226,11.44395 C93.8036806,11.2691758 94.0157129,11.0137887 94.7571484,11.0137887 L102.867552,11.0137887 L102.867552,18.6997887 C102.856713,19.2965952 102.379471,19.7779016 101.781648,19.7779016 C101.238019,19.7779016 101.020906,19.478821 101.020906,19.478821 L100.953165,19.478821 C100.953165,19.478821 101.378923,20.1711435 101.564197,20.4979984 L102.477358,20.4979984 C103.41931,20.4979984 104.178358,19.7369177 104.178358,18.7956435 L104.178358,10.2943694 L93.7125677,10.2943694 Z" id="Fill-546" fill="#4C4C4C" mask="url(#mask-2)"></path>
                <path d="M95.3464694,12.7105548 C94.8048726,12.7105548 94.3662435,12.9625548 94.3662435,13.2724742 L94.3005339,13.2724742 L94.3005339,11.9904581 L101.63834,11.9904581 L101.63834,13.2724742 L101.572631,13.2724742 C101.572631,12.9625548 101.13434,12.7105548 100.591727,12.7105548 L95.3464694,12.7105548 Z" id="Fill-547" fill="#4C4C4C" mask="url(#mask-2)"></path>
                <path d="M32.1742355,18.6250694 C32.1623806,19.2218758 31.6848,19.7028435 31.0883323,19.7028435 L24.6951871,19.7028435 L24.6951871,11.0738758 L32.1742355,11.0738758 L32.1742355,18.6250694 Z M22.8244935,10.3544565 L22.8244935,10.4194887 C23.1344129,10.4194887 23.3857355,11.0901339 23.3857355,11.6313919 L23.3857355,19.3742952 C23.3857355,19.9165694 23.1350903,20.3562145 22.825171,20.3562145 L22.825171,20.4222629 L31.7837032,20.4222629 C32.7246387,20.4222629 33.4836871,19.661521 33.4836871,18.7195694 L33.4836871,10.353779 L22.8244935,10.3544565 Z" id="Fill-548" fill="#4C4C4C" mask="url(#mask-2)"></path>
                <path d="M27.2691774,16.52805 C27.2691774,16.6858887 27.1425,16.8122274 26.9853387,16.8122274 L26.2489839,16.8122274 L26.2489839,14.7372919 L27.2691774,14.7372919 L27.2691774,16.52805 Z M25.202371,14.0182113 L25.202371,17.5330016 L27.3067742,17.5330016 C27.8622581,17.5330016 28.3134194,17.0862435 28.3134194,16.5307597 L28.3134194,14.0182113 L25.202371,14.0182113 Z" id="Fill-549" fill="#4C4C4C" mask="url(#mask-2)"></path>
                <path d="M30.7656774,17.4864968 L30.5025,16.4947548 C30.8391774,15.7970129 31.2364839,14.9729323 31.2954194,14.8533677 C31.4691774,14.4997548 31.5687581,14.1969484 31.8735968,14.0804323 L31.8729194,14.0157387 L30.3182419,14.0157387 L30.3182419,14.0634968 C30.5810806,14.1627387 30.6132581,14.4144 30.3002903,15.0498194 C30.2596452,15.1317871 30.2206935,15.2120613 30.1824194,15.2896258 L29.607629,13.1235774 L30.704371,13.1235774 C31.4464839,13.1235774 31.6585161,13.377271 31.6845968,13.5530613 L31.7503065,13.5530613 L31.7503065,12.4041581 L31.1094677,12.4041581 C31.3719677,11.8280129 31.470871,11.6752548 31.689,11.6518839 L31.689,11.5868516 L30.0919839,11.5868516 L30.0919839,11.629529 C30.3209516,11.7162387 30.3704032,11.9303032 30.1631129,12.4041581 L29.4101613,12.4041581 C29.2865323,11.9269161 29.3718871,11.7236903 29.6160968,11.6359645 L29.6167742,11.5878677 L27.5879032,11.5878677 L27.5868871,11.6535774 C28.0319516,11.745029 28.1555806,12.0441097 28.2534677,12.4041581 L25.1861129,12.4041581 L25.1861129,13.5530613 L25.2518226,13.5530613 C25.2779032,13.377271 25.4899355,13.1235774 26.2320484,13.1235774 L28.4417903,13.1235774 L29.4213387,16.8639484 C28.8858387,17.9291903 28.568129,18.3000774 27.7999355,18.3000774 L26.1914032,18.2997387 C25.6193226,18.2997387 25.2250645,18.1544323 25.0590968,17.8983677 L24.9937258,17.8983677 L25.6349032,19.0194968 L27.8680161,19.0194968 C28.7029355,19.0194968 29.2672258,18.6591097 29.7322742,17.9725452 C29.9100968,18.5287065 30.1488871,19.0503194 30.9082742,19.0503194 L31.7723226,19.0503194 L31.773,19.0056097 C31.2405484,18.7956097 31.0728871,18.5896742 30.7656774,17.4864968" id="Fill-550" fill="#4C4C4C" mask="url(#mask-2)"></path>
                <path d="M59.9734597,11.2015016 C59.9734597,10.7232435 60.1302823,10.4309371 60.3812661,10.4309371 L60.3812661,10.3655661 L58.2612823,10.3655661 L58.2612823,10.4309371 C58.5115887,10.4309371 58.6680726,10.7232435 58.6680726,11.2015016 L56.7801048,11.2015016 L56.7801048,12.4838565 L56.8458145,12.4838565 C56.8458145,12.1742758 57.2844435,11.9215984 57.826379,11.9215984 L60.8452984,11.9215984 C61.3862177,11.9215984 61.8255242,12.1742758 61.8255242,12.4838565 L61.8908952,12.4838565 L61.8908952,11.2015016 L59.9734597,11.2015016 Z" id="Fill-551" fill="#4C4C4C" mask="url(#mask-2)"></path>
                <path d="M59.9946968,18.9919597 C59.9946968,19.5115403 59.9374548,20.6739919 61.004729,20.6739919 C61.3163419,20.6739919 61.5666484,20.5591694 61.6936645,20.519879 C61.8843581,20.0582177 62.1201,19.5301694 62.1201,19.5301694 L62.0557452,19.5301694 C62.0557452,19.5301694 61.8721645,19.8590565 61.502971,19.8590565 C61.1398742,19.8590565 61.1744226,19.2903629 61.1744226,19.0613952 L61.1744226,14.2496855 C61.1744226,13.8008952 61.261471,12.5476694 59.8883419,12.5476694 L57.6545516,12.5476694 L57.6545516,17.6303468 C57.6545516,19.3706371 57.5177129,20.5567984 56.8599387,20.5567984 L56.8599387,20.6225081 L57.6521806,20.6225081 C58.7831323,20.6225081 58.8346161,19.3245726 58.8346161,17.6960565 L58.8349548,13.3327984 L59.3240516,13.3327984 C59.9211968,13.3327984 59.9838581,13.8137661 59.9946968,14.41125 L59.9946968,19.0576694 L59.9946968,19.0590242" id="Fill-552" fill="#4C4C4C" mask="url(#mask-2)"></path>
                <path d="M54.01095,13.9970419 C54.1325468,14.7476226 54.2897081,14.7527032 54.6758371,14.7527032 L55.1361435,14.7527032 L55.1361435,14.6846226 C55.0159016,14.6846226 54.8536597,14.4773323 54.7760952,13.9970419 L54.6206274,13.0256226 C54.4986919,12.2743645 54.3422081,12.2692839 53.9550629,12.2692839 L53.4957726,12.2692839 L53.4957726,12.3373645 C53.6146597,12.3373645 53.7769016,12.5446548 53.8544661,13.0256226 L54.01095,13.9970419 Z" id="Fill-553" fill="#4C4C4C" mask="url(#mask-2)"></path>
                <path d="M54.01095,18.1500968 C54.1325468,18.9010161 54.2897081,18.9064355 54.6758371,18.9064355 L55.1361435,18.9064355 L55.1361435,18.8390323 C55.0159016,18.8390323 54.8536597,18.6310645 54.7760952,18.1500968 L54.6206274,17.1796935 C54.4986919,16.4277581 54.3422081,16.4230161 53.9550629,16.4230161 L53.4957726,16.4230161 L53.4957726,16.4910968 C53.6146597,16.4910968 53.7769016,16.6983871 53.8544661,17.1796935 L54.01095,18.1500968 Z" id="Fill-554" fill="#4C4C4C" mask="url(#mask-2)"></path>
                <path d="M53.4075048,15.225779 L53.4071661,11.7170855 L53.4075048,11.7170855 L53.7055694,11.7170855 L55.2511016,11.7170855 L55.2511016,15.225779 L53.4075048,15.225779 Z M56.4315048,15.225779 L56.4315048,10.9316177 L53.8688274,10.9316177 L53.8918597,10.8926661 C54.1692629,10.421521 54.44565,10.2176177 54.5780855,10.2176177 L54.5780855,10.1519081 L53.68965,10.1519081 C53.2608435,10.1519081 53.0850532,10.1563113 52.6511661,10.8926661 L52.091279,11.8451177 C51.8135371,12.3162629 51.5378274,12.5194887 51.4050532,12.5194887 L51.4050532,12.5862145 L52.227779,12.5862145 L52.227779,15.225779 L51.5926984,15.225779 L51.5926984,16.5077952 L51.6580694,16.5077952 C51.6580694,16.2818758 51.8914403,16.0874565 52.227779,15.9983758 L52.227779,17.630279 C52.227779,19.3705694 52.0902629,20.5570694 51.43215,20.5570694 L51.43215,20.622779 L52.2243919,20.622779 C53.356021,20.622779 53.4075048,19.3245048 53.4075048,17.6959887 L53.4075048,15.9462145 L55.2511016,15.9462145 L55.2511016,19.1514242 C55.2511016,19.4975855 55.2297629,19.861021 54.6647952,19.861021 C54.3589403,19.861021 54.1838274,19.7756661 53.9396177,19.5002952 L53.8742468,19.5002952 L54.4998435,20.6221016 C54.7051016,20.6515694 54.8222952,20.6691823 55.1108758,20.6691823 C55.3991177,20.6691823 56.4315048,20.6746016 56.4315048,19.1514242 L56.4315048,15.9993919 C56.7658113,16.0888113 56.99715,16.2825532 56.99715,16.5077952 L57.0628597,16.5077952 L57.0628597,15.225779 L56.4315048,15.225779 Z" id="Fill-555" fill="#4C4C4C" mask="url(#mask-2)"></path>
                <path d="M6.30223548,10.0316661 C6.2361871,10.0404726 6.16200968,9.94427903 6.13050968,9.89956935 C6.12136452,9.88602097 6.08410645,9.80947258 6.09460645,9.79795645 C6.10781613,9.78610161 6.18334839,9.81184355 6.20367097,9.82844032 C6.25244516,9.86773065 6.29309032,9.9222629 6.31612258,10.0157468 C6.31781613,10.0262468 6.30833226,10.0309887 6.30223548,10.0316661 M4.70149355,9.14390806 C4.65644516,9.16016613 4.54534839,9.03416613 4.5141871,8.98844032 C4.45728387,8.90206935 4.40071935,8.80689194 4.3394129,8.72356935 C4.28386452,8.64837581 4.22221935,8.59485968 4.20799355,8.46445645 C4.2063,8.44921452 4.19681613,8.4102629 4.20663871,8.41094032 C4.26760645,8.41568226 4.32620323,8.52305323 4.3566871,8.56437581 C4.37836452,8.59418226 4.40444516,8.62432742 4.42476774,8.65616613 C4.45423548,8.70155323 4.46710645,8.7567629 4.49826774,8.79977903 C4.53688065,8.85227903 4.58328387,8.90105323 4.62392903,8.95355323 C4.64594516,8.98166613 4.6754129,9.00673065 4.68896129,9.04500484 C4.69573548,9.06465 4.71436452,9.13747258 4.70149355,9.14390806 M4.24288065,9.12595645 C4.20867097,9.12324677 4.19444516,9.10190806 4.17310645,9.08632742 C4.11620323,9.04500484 4.07013871,8.97794032 4.06844516,8.88073065 C4.06776774,8.87056935 4.07149355,8.86785968 4.07759032,8.86785968 C4.14465484,8.86752097 4.2134129,8.97048871 4.23915484,9.01892419 C4.24694516,9.03315 4.26388065,9.07210161 4.26117097,9.0995371 C4.25981613,9.11782742 4.25338065,9.12561774 4.24288065,9.12595645 M2.7186871,9.43485968 C2.71665484,9.44129516 2.71021935,9.45111774 2.69971935,9.45213387 C2.62723548,9.4497629 2.60555806,9.34069839 2.57338065,9.29158548 C2.54797742,9.25094032 2.52528387,9.20555323 2.49784839,9.16423065 C2.47888065,9.13577903 2.45483226,9.10563387 2.4389129,9.07277903 C2.41960645,9.03044032 2.4108,8.98640806 2.38675161,8.94915 C2.37354194,8.92916613 2.35288065,8.91223065 2.33865484,8.89360161 C2.29970323,8.84008548 2.26312258,8.78385968 2.23805806,8.71679516 C2.2323,8.69308548 2.22620323,8.66937581 2.21976774,8.64532742 C2.20452581,8.60502097 2.18623548,8.56132742 2.17336452,8.51797258 C2.16659032,8.49629516 2.1621871,8.45260161 2.16659032,8.43769839 C2.16862258,8.43024677 2.17133226,8.42618226 2.17675161,8.42719839 C2.23263871,8.43600484 2.28581613,8.57115 2.3129129,8.6202629 C2.34238065,8.6727629 2.3898,8.71544032 2.41621935,8.77031129 C2.43959032,8.81942419 2.44670323,8.88208548 2.47346129,8.93018226 C2.49412258,8.9667629 2.52900968,8.99623065 2.55170323,9.03145645 C2.58184839,9.07752097 2.60250968,9.13713387 2.62554194,9.18827903 C2.65162258,9.24518226 2.68989677,9.28955323 2.71259032,9.34510161 C2.72139677,9.36881129 2.7258,9.40945645 2.7186871,9.43485968 M2.43552581,7.3565371 C2.42231613,7.33181129 2.40639677,7.30166613 2.39657419,7.27524677 C2.38573548,7.24442419 2.38370323,7.21563387 2.37117097,7.18718226 C2.32849355,7.09166613 2.28005806,6.98666613 2.23704194,6.89352097 C2.21909032,6.85389194 2.19470323,6.78039194 2.21197742,6.73060161 C2.21434839,6.72348871 2.22857419,6.72856935 2.23500968,6.73432742 C2.2499129,6.74719839 2.25973548,6.75566613 2.27192903,6.77023065 C2.2814129,6.78377903 2.28412258,6.79868226 2.29292903,6.81223065 C2.31426774,6.84474677 2.34136452,6.8772629 2.35796129,6.91418226 C2.39352581,6.99005323 2.40267097,7.07710161 2.43823548,7.15195645 C2.46160645,7.20106935 2.49988065,7.24442419 2.52426774,7.29556935 C2.53713871,7.32198871 2.54492903,7.35077903 2.55339677,7.38024677 C2.55881613,7.40124677 2.5578,7.43105323 2.55847742,7.44832742 C2.56017097,7.47373065 2.55712258,7.49032742 2.54696129,7.49100484 C2.48057419,7.48727903 2.46059032,7.40463387 2.43552581,7.3565371 M16.9211226,13.7737306 C16.8364452,13.4631339 15.9273484,13.5965855 15.1784613,13.5285048 C14.4983323,13.4661823 13.6248,13.3439081 12.5748,12.9794565 C11.5935581,12.6390532 10.6428,12.248521 9.81465484,11.8004081 C9.81465484,11.8004081 9.47933226,11.624279 9.44410645,11.6042952 C9.37467097,11.5622952 9.32115484,11.5318113 9.25307419,11.4898113 C9.21276774,11.4657629 9.15112258,11.4288435 9.10505806,11.4088597 C9.04713871,11.3848113 9.00784839,11.3533113 8.95805806,11.3224887 C8.90657419,11.2913274 8.8368,11.2574565 8.78531613,11.2262952 C8.70910645,11.1792145 8.6616871,11.1426339 8.59055806,11.0904726 C8.54584839,11.0586339 8.52383226,11.0488113 8.46388065,11.0125694 C8.42831613,10.9908919 8.36362258,10.9560048 8.33144516,10.9346661 C8.26505806,10.8909726 8.22271935,10.8543919 8.15599355,10.8083274 C8.11534839,10.7795371 8.08554194,10.7619242 8.03642903,10.731779 C7.98833226,10.7023113 7.94260645,10.6643758 7.90060645,10.6335532 C7.87723548,10.6159403 7.8426871,10.5959565 7.82134839,10.574279 C7.77325161,10.5275371 7.72481613,10.4848597 7.67400968,10.4438758 C7.62659032,10.4089887 7.58289677,10.3663113 7.53649355,10.3317629 C7.50736452,10.3104242 7.4579129,10.2680855 7.42844516,10.2464081 C7.35392903,10.1928919 7.3071871,10.1525855 7.23233226,10.0983919 C7.18355806,10.0631661 7.14392903,10.0160855 7.09650968,9.98052097 C7.04163871,9.94055323 6.99320323,9.89516613 6.93799355,9.8555371 C6.90175161,9.82979516 6.86110645,9.79829516 6.83400968,9.77018226 C6.79776774,9.72750484 6.76389677,9.69905323 6.72765484,9.6560371 C6.70055806,9.62521452 6.64602581,9.59269839 6.61621935,9.56119839 C6.57015484,9.50260161 6.50478387,9.44095645 6.44381613,9.39455323 C6.40757419,9.36068226 6.39605806,9.34510161 6.38284839,9.32681129 C6.37133226,9.31190806 6.35846129,9.29463387 6.32865484,9.26381129 C6.29884839,9.23366613 6.28936452,9.22452097 6.27615484,9.21266613 C6.26328387,9.20081129 6.24736452,9.18624677 6.20705806,9.14661774 C6.19384839,9.13340806 6.17284839,9.10427903 6.1521871,9.07548871 C6.13355806,9.04974677 6.11628387,9.02535968 6.10409032,9.01215 C6.06886452,8.9735371 6.0438,8.94745645 6.01771935,8.92035968 C5.99909032,8.90071452 5.98012258,8.88039194 5.95607419,8.85465 C5.94184839,8.83974677 5.92965484,8.82111774 5.91813871,8.80350484 C5.90696129,8.78690806 5.89510645,8.76895645 5.88223548,8.75473065 C5.86021935,8.73034355 5.84362258,8.73881129 5.83921935,8.74185968 C5.82634839,8.75100484 5.82092903,8.77640806 5.83650968,8.80756935 C5.85446129,8.84347258 5.8829129,8.88377903 5.9001871,8.90816613 C5.90357419,8.91290806 5.90696129,8.91731129 5.90899355,8.92035968 C5.91610645,8.9315371 5.92288065,8.94305323 5.92897742,8.95456935 C5.9388,8.97218226 5.94862258,8.98979516 5.96183226,9.00673065 C5.98892903,9.04398871 6.01907419,9.07515 6.04854194,9.10529516 C6.05734839,9.11477903 6.06750968,9.12494032 6.07699355,9.13510161 C6.0963,9.1557629 6.11188065,9.17744032 6.12746129,9.20081129 C6.14371935,9.22384355 6.16031613,9.24789194 6.18199355,9.27058548 C6.19147742,9.28108548 6.20028387,9.29260161 6.2084129,9.30411774 C6.21755806,9.31665 6.22738065,9.33019839 6.23889677,9.3410371 C6.25549355,9.35695645 6.27209032,9.37423065 6.2886871,9.39116613 C6.31544516,9.41927903 6.34423548,9.44840806 6.37200968,9.47211774 C6.39233226,9.48973065 6.41434839,9.51208548 6.43636452,9.53342419 C6.49225161,9.59947258 6.55220323,9.66585968 6.60199355,9.72919839 C6.63078387,9.76544032 6.68294516,9.79185968 6.71512258,9.81658548 C6.75136452,9.84334355 6.77913871,9.89008548 6.80759032,9.92598871 C6.82859032,9.95105323 6.87634839,9.99440806 6.89904194,10.0208274 C6.95526774,10.0922952 6.99320323,10.1309081 7.06602581,10.1847629 C7.11005806,10.217279 7.14426774,10.2474242 7.17847742,10.290779 C7.1988,10.316521 7.26247742,10.3781661 7.28584839,10.4072952 C7.34647742,10.4841823 7.3739129,10.55565 7.36510645,10.5576823 C7.32344516,10.5688597 7.22352581,10.4801177 7.16425161,10.4411661 C7.11513871,10.40865 7.1076871,10.3951016 7.06128387,10.3608919 C7.05112258,10.3524242 6.97728387,10.3002629 6.95154194,10.2687629 C6.93155806,10.2504726 6.87634839,10.1908597 6.85975161,10.1701984 C6.77642903,10.0638435 6.74831613,10.0574081 6.65212258,9.96392419 C6.58200968,9.89584355 6.49597742,9.8345371 6.42755806,9.77356935 C6.40757419,9.75189194 6.38725161,9.72987581 6.36692903,9.70785968 C6.34457419,9.68550484 6.31612258,9.66484355 6.29647742,9.64248871 C6.26463871,9.60218226 6.22196129,9.52394032 6.18402581,9.49548871 C6.14405806,9.46534355 6.11492903,9.43723065 6.07462258,9.40708548 C6.06073548,9.39692419 6.0471871,9.37829516 6.03296129,9.36745645 C6.01365484,9.35323065 5.99096129,9.33697258 5.97639677,9.31834355 C5.92931613,9.25839194 5.88359032,9.19844032 5.83650968,9.13815 C5.81449355,9.1100371 5.78367097,9.08598871 5.76199355,9.05652097 C5.71626774,8.99352097 5.67833226,8.92781129 5.63226774,8.86718226 C5.5679129,8.78284355 5.47544516,8.72289194 5.41312258,8.63787581 C5.34910645,8.55048871 5.31117097,8.44819839 5.25054194,8.35674677 C5.22446129,8.31745645 5.18313871,8.28934355 5.15570323,8.25174677 C5.13842903,8.22939194 5.12962258,8.20432742 5.11404194,8.18027903 C5.08254194,8.13150484 5.04426774,8.08374677 5.0114129,8.03632742 C4.96873548,7.97400484 4.93994516,7.90592419 4.89760645,7.84055323 C4.89049355,7.83106935 4.87559032,7.7870371 4.84917097,7.75384355 C4.82376774,7.72132742 4.80107419,7.68440806 4.77262258,7.63800484 C4.74281613,7.5912629 4.72825161,7.56044032 4.70759032,7.52860161 C4.68625161,7.4967629 4.67202581,7.46627903 4.65813871,7.44392419 C4.64425161,7.42123065 4.61342903,7.37956935 4.60292903,7.36263387 C4.56363871,7.30234355 4.55381613,7.27490806 4.51181613,7.21902097 C4.48709032,7.18515 4.46067097,7.1570371 4.43797742,7.16516613 C4.4196871,7.1780371 4.42646129,7.1990371 4.4301871,7.21427903 C4.44915484,7.26373065 4.44881613,7.25492419 4.46778387,7.29015 C4.49996129,7.34908548 4.51147742,7.3775371 4.54602581,7.43105323 C4.56262258,7.45713387 4.59039677,7.51573065 4.61275161,7.54858548 C4.63578387,7.5807629 4.6578,7.6190371 4.67304194,7.64613387 C4.6893,7.67458548 4.71402581,7.75011774 4.73875161,7.78127903 C4.75636452,7.80363387 4.7804129,7.85037581 4.79734839,7.88289194 C4.83088065,7.94961774 4.87321935,8.00245645 4.90810645,8.05529516 C4.93181613,8.09898871 4.95450968,8.14200484 4.97788065,8.18569839 C5.02360645,8.25513387 5.07813871,8.32084355 5.12488065,8.39163387 C5.15265484,8.4417629 5.18042903,8.49155323 5.20786452,8.54168226 C5.2353,8.58266613 5.27255806,8.61721452 5.29965484,8.65955323 C5.33183226,8.70968226 5.3508,8.76421452 5.38297742,8.81332742 C5.40871935,8.85194032 5.44259032,8.88885968 5.46833226,8.92747258 C5.51236452,8.99352097 5.55199355,9.05719839 5.59873548,9.12019839 C5.6238,9.15474677 5.65800968,9.18387581 5.6834129,9.21842419 C5.71863871,9.26618226 5.7464129,9.32240806 5.78299355,9.3620371 C5.82634839,9.40302097 5.83921935,9.42706935 5.8724129,9.4670371 C5.92389677,9.52800484 6.04989677,9.70684355 6.02889677,9.70785968 C5.95404194,9.71768226 5.81178387,9.55577903 5.75149355,9.49718226 C5.7044129,9.45111774 5.65292903,9.41792419 5.62007419,9.37389194 C5.57299355,9.30919839 5.53810645,9.23739194 5.49000968,9.17506935 C5.47239677,9.15237581 5.44665484,9.13408548 5.42938065,9.11240806 C5.3961871,9.07006935 5.36570323,9.02502097 5.32742903,8.98810161 C5.31184839,8.97285968 5.2949129,8.95931129 5.27967097,8.94237581 C5.22175161,8.86752097 5.17297742,8.78758548 5.11607419,8.71002097 C5.09270323,8.67818226 5.06154194,8.65040806 5.03850968,8.61856935 C5.01988065,8.59350484 5.01005806,8.56640806 4.99312258,8.54032742 C4.97042903,8.5047629 4.9413,8.47021452 4.91792903,8.43566613 C4.90065484,8.40958548 4.89049355,8.38350484 4.87288065,8.35742419 C4.84239677,8.31068226 4.80107419,8.2700371 4.77092903,8.22295645 C4.74620323,8.18468226 4.73909032,8.13387581 4.71436452,8.09594032 C4.65136452,7.99873065 4.58125161,7.89948871 4.51892903,7.80194032 C4.50300968,7.7765371 4.49657419,7.7487629 4.48031613,7.72335968 C4.42984839,7.64444032 4.38242903,7.55705323 4.3323,7.47847258 C4.31333226,7.44934355 4.30554194,7.41615 4.2869129,7.38735968 C4.26354194,7.35145645 4.22865484,7.32435968 4.20562258,7.28913387 C4.18767097,7.26169839 4.18089677,7.23223065 4.16633226,7.20073065 C4.14736452,7.16008548 4.1223,7.11910161 4.10028387,7.08015 C4.08707419,7.05610161 4.0803,7.03171452 4.06539677,7.00834355 C4.00544516,6.91418226 3.95497742,6.81256935 3.90552581,6.70824677 C3.87978387,6.65371452 3.84117097,6.60256935 3.81542903,6.5480371 C3.7863,6.48706935 3.75852581,6.42474677 3.73142903,6.36513387 C3.71652581,6.32516613 3.7023,6.28485968 3.68773548,6.24455323 C3.65860645,6.18155323 3.61355806,6.12735968 3.58409032,6.06198871 C3.56410645,6.01761774 3.55360645,5.97561774 3.53565484,5.93835968 C3.52481613,5.91532742 3.5028,5.89669839 3.48620323,5.90685968 C3.47028387,5.91668226 3.4679129,5.93734355 3.47773548,5.97189194 C3.49738065,6.03861774 3.5343,6.11482742 3.55157419,6.1527629 C3.58578387,6.22829516 3.60271935,6.3065371 3.63760645,6.38410161 C3.65623548,6.42677903 3.68434839,6.46742419 3.70331613,6.50806935 C3.73752581,6.58021452 3.76936452,6.65473065 3.80188065,6.72348871 C3.82084839,6.76413387 3.83609032,6.80274677 3.85776774,6.84102097 C3.86962258,6.86100484 3.88621935,6.88369839 3.89604194,6.90605323 C3.91805806,6.95516613 3.92483226,7.00665 3.94650968,7.05305323 C3.96988065,7.10148871 4.00713871,7.14213387 4.02949355,7.19023065 C4.14499355,7.43545645 4.26184839,7.67052097 4.40173548,7.88865 C4.4406871,7.94927903 4.46067097,8.02379516 4.49962258,8.08442419 C4.53992903,8.14674677 4.59547742,8.19619839 4.63578387,8.25784355 C4.66897742,8.30865 4.67642903,8.37944032 4.7069129,8.43397258 C4.75196129,8.51661774 4.81157419,8.58605323 4.8606871,8.66260161 C4.8749129,8.68427903 4.87863871,8.70934355 4.8921871,8.73068226 C4.91149355,8.76082742 4.93520323,8.78995645 4.95417097,8.81942419 C4.9799129,8.85939194 4.99278387,8.90579516 5.01988065,8.94339194 C5.05036452,8.98369839 5.09202581,9.01723065 5.12183226,9.05787581 C5.15875161,9.10868226 5.18381613,9.16727903 5.2214129,9.21808548 C5.24783226,9.25365 5.28949355,9.27769839 5.31625161,9.31292419 C5.35892903,9.36915 5.50525161,9.56221452 5.54792903,9.61674677 C5.6133,9.69939194 5.72812258,9.82098871 5.78265484,9.92937581 C5.7989129,9.96324677 5.85750968,10.0428435 5.8443,10.0584242 C5.81347742,10.0790855 5.66850968,9.92023065 5.64378387,9.89685968 C5.58281613,9.83792419 5.52997742,9.75832742 5.47781613,9.69160161 C5.46460645,9.67635968 5.32471935,9.53952097 5.31320323,9.52461774 C5.29965484,9.50632742 5.28475161,9.48702097 5.27255806,9.46873065 C5.23394516,9.41081129 5.21023548,9.3410371 5.16857419,9.28582742 C5.15163871,9.26347258 5.12521935,9.24619839 5.10794516,9.22384355 C5.07610645,9.18184355 5.0534129,9.13273065 5.02225161,9.08971452 C4.97212258,9.02163387 4.90844516,8.96100484 4.85899355,8.89360161 C4.80446129,8.81908548 4.76652581,8.73169839 4.71131613,8.65819839 C4.68388065,8.62195645 4.64831613,8.58910161 4.6229129,8.55015 C4.61139677,8.53287581 4.60631613,8.51560161 4.59547742,8.49798871 C4.57515484,8.46750484 4.54873548,8.43363387 4.53315484,8.3997629 C4.51825161,8.36927903 4.50910645,8.33981129 4.49115484,8.3120371 C4.4339129,8.22227903 4.37633226,8.1267629 4.31909032,8.03734355 C4.29300968,7.99737581 4.27878387,7.95368226 4.25270323,7.91337581 C4.21002581,7.84698871 4.15617097,7.78771452 4.11315484,7.72031129 C4.06234839,7.64139194 4.0349129,7.5455371 3.98376774,7.46594032 C3.95057419,7.41411774 3.91128387,7.36432742 3.87809032,7.31216613 C3.84117097,7.25594032 3.82288065,7.18955323 3.7896871,7.12960161 C3.76157419,7.07777903 3.72194516,7.02900484 3.69721935,6.97616613 C3.66944516,6.91960161 3.65081613,6.86235968 3.62270323,6.80342419 C3.60813871,6.7722629 3.58476774,6.74110161 3.57020323,6.70858548 C3.55292903,6.66827903 3.54852581,6.62695645 3.53057419,6.58800484 C3.48044516,6.4782629 3.40525161,6.37461774 3.35376774,6.26487581 C3.31684839,6.18697258 3.28467097,6.10602097 3.2541871,6.02337581 C3.23792903,5.97832742 3.23013871,5.93565 3.21049355,5.89297258 C3.16476774,5.79305323 3.10820323,5.68669839 3.06315484,5.58644032 C3.04452581,5.5332629 3.02521935,5.48008548 3.0059129,5.42656935 C3.00252581,5.41166613 3.00049355,5.3967629 2.99473548,5.38118226 C2.9744129,5.3337629 2.94596129,5.28769839 2.92767097,5.24095645 C2.91073548,5.18642419 2.8938,5.13223065 2.87686452,5.0780371 C2.80505806,4.90123065 2.74171935,4.70173065 2.67499355,4.51713387 C2.66584839,4.48394032 2.66415484,4.44261774 2.65196129,4.40671452 C2.6174129,4.31187581 2.58252581,4.21737581 2.54797742,4.12287581 C2.52900968,4.07511774 2.48294516,4.09137581 2.49310645,4.13981129 C2.50733226,4.20518226 2.51613871,4.2207629 2.52731613,4.27224677 C2.53205806,4.29832742 2.53747742,4.32406935 2.54255806,4.35015 C2.54967097,4.38165 2.56592903,4.41484355 2.5754129,4.44465 C2.59302581,4.50121452 2.59404194,4.55710161 2.61402581,4.61095645 C2.64078387,4.68750484 2.66788065,4.76032742 2.69294516,4.83924677 C2.70039677,4.87819839 2.70852581,4.91715 2.71665484,4.95677903 C2.72783226,4.99268226 2.74239677,5.03027903 2.75594516,5.06381129 C2.79489677,5.16000484 2.83181613,5.25247258 2.86670323,5.34765 C2.88025161,5.40218226 2.89413871,5.45637581 2.9076871,5.51056935 C2.92157419,5.54105323 2.9429129,5.57221452 2.9568,5.60168226 C2.96865484,5.6277629 2.97136452,5.65282742 2.98220323,5.67992419 C3.00659032,5.74156935 3.02894516,5.80423065 3.05671935,5.86587581 C3.07975161,5.91702097 3.10752581,5.96816613 3.12784839,6.02235968 C3.13699355,6.04877903 3.13699355,6.07181129 3.14647742,6.09755323 C3.20507419,6.25911774 3.26976774,6.42847258 3.33886452,6.57987581 C3.35613871,6.61882742 3.36088065,6.65845645 3.37849355,6.69740806 C3.39271935,6.72958548 3.41270323,6.76413387 3.42692903,6.79529516 C3.43438065,6.81595645 3.44149355,6.83661774 3.44928387,6.85727903 C3.47028387,6.90266613 3.50720323,6.9402629 3.52820323,6.98497258 C3.58781613,7.11029516 3.64099355,7.22952097 3.7161871,7.33723065 C3.78528387,7.43647258 3.81475161,7.56789194 3.86759032,7.68610161 C3.89265484,7.74232742 3.9261871,7.7907629 3.9576871,7.8395371 C3.97292903,7.86561774 3.98342903,7.89406935 3.99663871,7.92116613 C4.03050968,7.98315 4.0488,8.03700484 4.08910645,8.0915371 C4.12196129,8.13624677 4.1189129,8.14606935 4.14600968,8.20906935 C4.15413871,8.22735968 4.18462258,8.34523065 4.17920323,8.34523065 C4.16802581,8.35268226 4.11010645,8.31745645 4.09012258,8.29577903 C4.06404194,8.26631129 4.02204194,8.22668226 3.99392903,8.16232742 C3.98004194,8.13048871 3.95023548,8.07527903 3.93533226,8.04411774 C3.89875161,7.96587581 3.83710645,7.89982742 3.79171935,7.8290371 C3.76462258,7.7870371 3.75039677,7.74097258 3.72804194,7.69490806 C3.68976774,7.61294032 3.64573548,7.52860161 3.60576774,7.44358548 C3.58917097,7.40835968 3.56376774,7.37415 3.54344516,7.34231129 C3.52278387,7.30945645 3.51262258,7.27423065 3.49162258,7.2410371 C3.44521935,7.16889194 3.39339677,7.08760161 3.35681613,7.00935968 C3.32938065,6.95177903 3.31549355,6.89284355 3.28907419,6.83661774 C3.28026774,6.81866613 3.2646871,6.80037581 3.25452581,6.78445645 C3.23589677,6.75465 3.22776774,6.72213387 3.21252581,6.68995645 C3.19152581,6.64558548 3.16002581,6.6042629 3.13936452,6.55887581 C3.09871935,6.46979516 3.07433226,6.37698871 3.03267097,6.28824677 C3.01302581,6.24760161 2.97949355,6.2120371 2.96052581,6.17071452 C2.93004194,6.10771452 2.92699355,6.02913387 2.89786452,5.96240806 C2.81996129,5.78797258 2.73155806,5.60744032 2.66415484,5.42419839 C2.65399355,5.39371452 2.65094516,5.35916613 2.64146129,5.32631129 C2.61300968,5.24705323 2.57371935,5.17287581 2.54594516,5.09463387 C2.53239677,5.05906935 2.52900968,5.02621452 2.51613871,4.99065 C2.49683226,4.93713387 2.47142903,4.88124677 2.45178387,4.82773065 C2.44704194,4.80944032 2.44467097,4.79047258 2.43721935,4.77218226 C2.41452581,4.72205323 2.39996129,4.66210161 2.3759129,4.60892419 C2.36371935,4.58182742 2.34509032,4.55371452 2.33357419,4.52424677 C2.31494516,4.47208548 2.32070323,4.4060371 2.3024129,4.35523065 C2.27531613,4.28037581 2.24347742,4.20111774 2.21638065,4.12660161 C2.2008,4.08460161 2.19775161,4.04260161 2.18284839,3.99992419 C2.16523548,3.95047258 2.14660645,3.89560161 2.12831613,3.84648871 C2.1096871,3.79500484 2.11070323,3.74115 2.09376774,3.68695645 C2.08089677,3.64631129 2.0643,3.60431129 2.0504129,3.56637581 C2.02500968,3.49490806 2.01484839,3.41835968 1.98809032,3.35129516 C1.98300968,3.33910161 1.97928387,3.32623065 1.97454194,3.31437581 C1.96742903,3.29642419 1.95523548,3.27813387 1.93660645,3.28355323 C1.91560645,3.28931129 1.91628387,3.31606935 1.91763871,3.33368226 C1.92136452,3.38652097 1.94100968,3.43529516 1.95625161,3.47797258 C1.97284839,3.52268226 1.98131613,3.57111774 1.99350968,3.61447258 C2.00028387,3.64224677 1.99960645,3.67306935 2.00671935,3.7025371 C2.01654194,3.7445371 2.03144516,3.78518226 2.0433,3.82616613 C2.05244516,3.86782742 2.04804194,3.90813387 2.05684839,3.94031129 C2.08428387,4.02973065 2.11375161,4.13100484 2.14423548,4.2170371 C2.15710645,4.26174677 2.15913871,4.31221452 2.17167097,4.35048871 C2.18894516,4.39621452 2.20554194,4.44194032 2.22213871,4.48766613 C2.23602581,4.52594032 2.23975161,4.56252097 2.25533226,4.59842419 C2.27226774,4.63635968 2.29157419,4.67632742 2.30478387,4.71900484 C2.32273548,4.77523065 2.32104194,4.83010161 2.34000968,4.88158548 C2.37117097,4.96694032 2.40978387,5.04755323 2.43992903,5.12985968 C2.4494129,5.15932742 2.45246129,5.19082742 2.46262258,5.22097258 C2.48802581,5.29244032 2.50563871,5.36797258 2.53138065,5.43944032 C2.56897742,5.54071452 2.61605806,5.63927903 2.6523,5.7395371 C2.68820323,5.83810161 2.69294516,5.95665 2.73460645,6.04844032 C2.75594516,6.09450484 2.80031613,6.12227903 2.81996129,6.16631129 C2.83350968,6.19510161 2.82944516,6.22761774 2.83960645,6.26081129 C2.85112258,6.29874677 2.86907419,6.33668226 2.88262258,6.37156935 C2.89109032,6.40340806 2.89989677,6.43490806 2.90904194,6.46606935 C2.92123548,6.50400484 2.94799355,6.5412629 2.96459032,6.57716613 C2.99134839,6.63644032 3.00523548,6.69774677 3.03876774,6.75024677 C3.06383226,6.78919839 3.0966871,6.82679516 3.1176871,6.87082742 C3.14071935,6.92061774 3.1491871,6.97311774 3.17154194,7.0242629 C3.20507419,7.09911774 3.24538065,7.1712629 3.27349355,7.24916613 C3.29957419,7.31995645 3.30905806,7.39582742 3.34292903,7.45781129 C3.3768,7.51911774 3.4188,7.57534355 3.45300968,7.63732742 C3.47400968,7.68305323 3.49534839,7.72877903 3.51634839,7.77450484 C3.5343,7.8117629 3.56817097,7.84461774 3.58815484,7.88221452 C3.61423548,7.92895645 3.64031613,7.97840806 3.66131613,8.02582742 C3.6779129,8.06206935 3.68400968,8.09594032 3.70433226,8.1267629 C3.73549355,8.1755371 3.75750968,8.21415 3.78867097,8.26292419 C3.81610645,8.3052629 3.84692903,8.36013387 3.8669129,8.41127903 C3.88147742,8.44955323 3.89705806,8.49019839 3.91907419,8.5220371 C3.94244516,8.55523065 3.97428387,8.58402097 3.99460645,8.6202629 C4.0139129,8.65582742 4.04202581,8.77200484 4.03152581,8.77742419 C4.00578387,8.78656935 3.93533226,8.71848871 3.9156871,8.69444032 C3.8598,8.62635968 3.8316871,8.53558548 3.78088065,8.4627629 C3.72702581,8.38485968 3.69146129,8.34082742 3.6498,8.25174677 C3.6254129,8.19958548 3.58273548,8.10711774 3.5519129,8.06105323 C3.52413871,8.01769839 3.48586452,7.97908548 3.46350968,7.92997258 C3.44623548,7.89000484 3.43709032,7.84258548 3.42015484,7.80329516 C3.39305806,7.74571452 3.3381871,7.70845645 3.31075161,7.64952097 C3.27925161,7.58313387 3.26434839,7.51505323 3.23183226,7.45374677 C3.21625161,7.42360161 3.19457419,7.38973065 3.18000968,7.35890806 C3.16171935,7.31961774 3.15257419,7.28100484 3.13394516,7.24137581 C3.09634839,7.16144032 3.03978387,7.09302097 3.00252581,7.01308548 C2.96357419,6.93077903 2.94223548,6.8420371 2.90192903,6.75871452 C2.88160645,6.71434355 2.84434839,6.67640806 2.82334839,6.63135968 C2.79489677,6.57174677 2.78033226,6.50942419 2.75154194,6.44879516 C2.73494516,6.41255323 2.70954194,6.37665 2.69260645,6.34108548 C2.66821935,6.28858548 2.6594129,6.23235968 2.63502581,6.17782742 C2.58083226,6.05589194 2.52359032,5.92819839 2.46939677,5.8062629 C2.44839677,5.75918226 2.44365484,5.71006935 2.42231613,5.66265 C2.40165484,5.62132742 2.38031613,5.58034355 2.35965484,5.53868226 C2.31155806,5.43097258 2.29496129,5.30497258 2.24652581,5.19658548 C2.22247742,5.14205323 2.19165484,5.08955323 2.1693,5.02994032 C2.13542903,4.93747258 2.12221935,4.84195645 2.08834839,4.74677903 C2.03652581,4.60147258 1.99452581,4.45108548 1.94236452,4.30679516 C1.92712258,4.26310161 1.92509032,4.2207629 1.90917097,4.17639194 C1.89359032,4.13405323 1.87767097,4.09171452 1.86276774,4.04937581 C1.85125161,4.01550484 1.84481613,3.96639194 1.83533226,3.92235968 C1.79739677,3.79974677 1.75742903,3.67781129 1.71813871,3.55384355 C1.71000968,3.52471452 1.70797742,3.47187581 1.69781613,3.43360161 C1.69171935,3.41294032 1.68020323,3.38787581 1.67309032,3.36823065 C1.66259032,3.34011774 1.66326774,3.31640806 1.65412258,3.28694032 C1.62533226,3.19718226 1.60094516,3.09319839 1.57249355,3.00344032 C1.56436452,2.97498871 1.56199355,2.93502097 1.55284839,2.90250484 C1.51288065,2.77481129 1.49323548,2.61866613 1.44242903,2.49944032 C1.43260645,2.47674677 1.41804194,2.45235968 1.39534839,2.45777903 C1.37231613,2.4635371 1.37739677,2.48961774 1.38010645,2.51095645 C1.38654194,2.56955323 1.40855806,2.62002097 1.41804194,2.66777903 C1.42210645,2.68911774 1.42176774,2.71960161 1.4238,2.74568226 C1.42650968,2.76735968 1.42888065,2.79479516 1.43599355,2.81715 C1.45970323,2.89302097 1.4868,2.98277903 1.50983226,3.05831129 C1.51694516,3.09455323 1.5111871,3.15010161 1.52067097,3.1917629 C1.5531871,3.31302097 1.57757419,3.45697258 1.62126774,3.56637581 C1.6619129,3.66595645 1.6686871,3.78450484 1.69747742,3.89187581 C1.70662258,3.93827903 1.70967097,3.98535968 1.71509032,4.03210161 C1.72186452,4.07715 1.74794516,4.10831129 1.76183226,4.14624677 C1.77199355,4.17435968 1.77131613,4.19806935 1.7808,4.2275371 C1.80552581,4.30442419 1.8228,4.38097258 1.85125161,4.45887581 C1.86988065,4.51239194 1.89867097,4.56319839 1.91797742,4.61535968 C1.92644516,4.63906935 1.92305806,4.66074677 1.93017097,4.68682742 C1.94270323,4.74000484 1.95252581,4.79419839 1.96776774,4.84669839 C2.00570323,4.9520371 2.04194516,5.06719839 2.07988065,5.1725371 C2.10121935,5.23113387 2.10765484,5.28837581 2.12831613,5.34494032 C2.21197742,5.57289194 2.29665484,5.80084355 2.3793,6.02642419 C2.3931871,6.07655323 2.40673548,6.12634355 2.42062258,6.17647258 C2.4389129,6.22795645 2.46939677,6.27063387 2.49039677,6.31669839 C2.51749355,6.37529516 2.52596129,6.43694032 2.54865484,6.4992629 C2.5754129,6.57208548 2.60894516,6.62865 2.63705806,6.70485968 C2.65026774,6.7407629 2.66313871,6.78039194 2.68007419,6.81561774 C2.69226774,6.8420371 2.71563871,6.86710161 2.72850968,6.89385968 C2.74984839,6.93924677 2.75425161,6.99513387 2.77525161,7.04052097 C2.79692903,7.08556935 2.83520323,7.12282742 2.86128387,7.16482742 C2.88533226,7.20411774 2.88838065,7.25356935 2.9076871,7.29827903 C2.93884839,7.36805323 2.97949355,7.43105323 3.00997742,7.50421452 C3.02217097,7.5350371 3.02826774,7.56247258 3.04181613,7.59194032 C3.05739677,7.62581129 3.08212258,7.65832742 3.09838065,7.6925371 C3.09871935,7.6925371 3.09939677,7.69321452 3.10075161,7.69660161 C3.10278387,7.70134355 3.10447742,7.70777903 3.10549355,7.71523065 C3.10989677,7.72979516 3.11463871,7.74673065 3.11938065,7.75994032 C3.12581613,7.77958548 3.14783226,7.81582742 3.15731613,7.82802097 C3.16239677,7.83547258 3.17831613,7.85308548 3.19152581,7.86934355 C3.19728387,7.87544032 3.20338065,7.88255323 3.20846129,7.89068226 C3.23826774,7.93810161 3.24165484,8.00482742 3.26604194,8.05698871 C3.29042903,8.10779516 3.33412258,8.14810161 3.3591871,8.20060161 C3.37815484,8.24090806 3.38899355,8.34015 3.36392903,8.34387581 C3.2613,8.3435371 3.2541871,8.19992419 3.21997742,8.12473065 C3.19254194,8.06613387 3.15054194,8.01769839 3.12005806,7.96147258 C3.11328387,7.95029516 3.1038,7.92794032 3.0966871,7.90456935 C3.0899129,7.8852629 3.08212258,7.86392419 3.07433226,7.84766613 C3.06112258,7.81955323 3.06044516,7.82395645 3.05163871,7.80465 C3.04215484,7.78534355 3.01370323,7.7487629 3.00455806,7.73148871 C3.00388065,7.73081129 3.00320323,7.72979516 3.00286452,7.72810161 C2.9639129,7.66510161 2.93749355,7.57500484 2.90971935,7.53266613 C2.8938,7.50861774 2.87347742,7.48456935 2.85823548,7.46052097 C2.83215484,7.42021452 2.81962258,7.37144032 2.79862258,7.32673065 C2.77863871,7.28608548 2.74815484,7.24510161 2.7291871,7.2027629 C2.70615484,7.15229516 2.70513871,7.08827903 2.68109032,7.03645645 C2.66855806,7.00935968 2.64552581,6.98124677 2.63299355,6.95482742 C2.60386452,6.89623065 2.58726774,6.83356935 2.55813871,6.77565 C2.54492903,6.74821452 2.52020323,6.72179516 2.50665484,6.69402097 C2.48362258,6.64524677 2.47142903,6.59240806 2.44670323,6.54735968 C2.39217097,6.45048871 2.33459032,6.34311774 2.28886452,6.24048871 C2.26312258,6.1805371 2.25397742,6.11956935 2.22755806,6.06097258 C2.20520323,6.00982742 2.17404194,5.95969839 2.15134839,5.9112629 C2.13610645,5.87806935 2.13204194,5.84623065 2.11815484,5.80998871 C2.09817097,5.75308548 2.0714129,5.69415 2.0504129,5.63724677 C2.03788065,5.59795645 2.02805806,5.5122629 2.01586452,5.47771452 C1.99994516,5.43469839 1.97759032,5.38863387 1.9593,5.34731129 C1.9311871,5.28363387 1.92204194,5.21792419 1.89392903,5.15492419 C1.87292903,5.10615 1.84854194,5.05500484 1.83092903,5.0045371 C1.81467097,4.96287581 1.81094516,4.92324677 1.79333226,4.88429516 C1.78046129,4.85448871 1.76284839,4.82027903 1.75167097,4.78979516 C1.73846129,4.75219839 1.72897742,4.69190806 1.71712258,4.64279516 C1.69917097,4.58894032 1.67613871,4.53711774 1.65988065,4.4832629 C1.64971935,4.44431129 1.64802581,4.35184355 1.63786452,4.32711774 C1.58231613,4.16115 1.52947742,3.98468226 1.47731613,3.81871452 C1.45292903,3.74216613 1.44242903,3.66561774 1.4204129,3.5907629 C1.4133,3.56095645 1.41194516,3.52302097 1.40415484,3.49321452 C1.38925161,3.44511774 1.36859032,3.39600484 1.35334839,3.34655323 C1.34521935,3.31335968 1.34047742,3.27915 1.33370323,3.24561774 C1.3259129,3.21106935 1.30762258,3.17584355 1.2944129,3.14129516 C1.26223548,3.04171452 1.2453,2.93569839 1.21583226,2.83848871 C1.20533226,2.79784355 1.20533226,2.74534355 1.19483226,2.70842419 C1.15723548,2.58750484 1.14809032,2.44727903 1.11252581,2.32060161 C1.10439677,2.28402097 1.0983,2.2467629 1.08983226,2.21323065 C1.0281871,1.97681129 1.00007419,1.7112629 0.931316129,1.48398871 C0.918445161,1.44063387 0.935380645,1.38474677 0.922848387,1.33732742 C0.9093,1.28448871 0.894735484,1.23808548 0.879154839,1.19100484 C0.872719355,1.16661774 0.872719355,1.14765 0.86696129,1.12563387 C0.855445161,1.08702097 0.838170968,1.05721452 0.817509677,1.06127903 C0.792445161,1.06940806 0.797864516,1.09244032 0.798541935,1.12495645 C0.800912903,1.17745645 0.805654839,1.22182742 0.816493548,1.26518226 C0.8253,1.30074677 0.819541935,1.33021452 0.829364516,1.36273065 C0.852058065,1.43656935 0.858493548,1.54021452 0.870687097,1.60660161 C0.875090323,1.63471452 0.872041935,1.67163387 0.87746129,1.70448871 C0.884235484,1.73802097 0.910316129,1.78205323 0.917090323,1.81863387 C0.924541935,1.86774677 0.924203226,1.93142419 0.931993548,1.98460161 C0.941816129,2.02931129 0.954687097,2.07198871 0.966203226,2.11466613 C0.976364516,2.15056935 0.969251613,2.18579516 0.979751613,2.21865 C0.990590323,2.25387581 1.00888065,2.28808548 1.01565484,2.32669839 C1.02209032,2.36802097 1.01531613,2.42966613 1.02378387,2.46590806 C1.07763871,2.67387581 1.09321935,2.92079516 1.1541871,3.12063387 C1.16163871,3.14908548 1.16333226,3.17956935 1.17010645,3.20835968 C1.2209129,3.38347258 1.25952581,3.57010161 1.3116871,3.74284355 C1.31812258,3.77027903 1.31710645,3.79805323 1.32455806,3.82718226 C1.34183226,3.88882742 1.35707419,3.9545371 1.36994516,4.01618226 C1.37604194,4.04327903 1.37604194,4.0700371 1.38315484,4.09747258 C1.40178387,4.16148871 1.42413871,4.22381129 1.44446129,4.28647258 C1.45225161,4.31695645 1.45563871,4.34744032 1.46071935,4.37758548 C1.46613871,4.40163387 1.47900968,4.42940806 1.48612258,4.45277903 C1.49696129,4.48902097 1.4939129,4.52356935 1.50610645,4.55710161 C1.51288065,4.57640806 1.52846129,4.59808548 1.53421935,4.61908548 C1.54234839,4.65566613 1.54675161,4.69292419 1.55759032,4.72950484 C1.57181613,4.7735371 1.5951871,4.81655323 1.61381613,4.85990806 C1.62702581,4.89615 1.6266871,4.93273065 1.64023548,4.96727903 C1.6653,5.0292629 1.69171935,5.10140806 1.71542903,5.16644032 C1.7354129,5.21995645 1.73812258,5.27482742 1.75675161,5.32969839 C1.7703,5.36492419 1.78689677,5.40218226 1.79976774,5.43673065 C1.80688065,5.46484355 1.8123,5.49261774 1.82212258,5.52174677 C1.83092903,5.54782742 1.85904194,5.58881129 1.87767097,5.62268226 C1.8929129,5.66027903 1.88613871,5.71210161 1.89833226,5.75308548 C1.91086452,5.79508548 1.93423548,5.82827903 1.94846129,5.86723065 C1.96133226,5.90584355 1.96133226,5.94750484 1.97183226,5.98747258 C1.98300968,6.01761774 2.00367097,6.0477629 2.01721935,6.0755371 C2.02907419,6.10940806 2.04092903,6.14294032 2.05312258,6.17681129 C2.06294516,6.19815 2.08089677,6.22084355 2.09071935,6.24184355 C2.1096871,6.28113387 2.12459032,6.32279516 2.14084839,6.3627629 C2.16388065,6.41966613 2.1659129,6.48944032 2.18352581,6.55481129 C2.18792903,6.57310161 2.18759032,6.61781129 2.17607419,6.62323065 C2.14965484,6.62797258 2.1201871,6.58665 2.10189677,6.56090806 C2.07175161,6.51755323 2.04194516,6.46945645 2.01925161,6.41695645 C2.0118,6.39731129 2.00671935,6.37800484 2.00062258,6.35835968 C1.98300968,6.31500484 1.97047742,6.26589194 1.95049355,6.22152097 C1.93863871,6.19510161 1.92170323,6.16563387 1.91188065,6.13684355 C1.89799355,6.09518226 1.90442903,6.04640806 1.88817097,6.00982742 C1.87394516,5.97934355 1.84955806,5.95563387 1.83567097,5.92481129 C1.82550968,5.8970371 1.82076774,5.86790806 1.80857419,5.84047258 C1.79367097,5.80694032 1.77334839,5.77713387 1.75505806,5.74529516 C1.74117097,5.71481129 1.74252581,5.68365 1.73236452,5.64774677 C1.72017097,5.60506935 1.7073,5.56273065 1.68900968,5.52377903 C1.67071935,5.48448871 1.64734839,5.44384355 1.62973548,5.40285968 C1.62160645,5.38016613 1.61754194,5.35713387 1.61144516,5.33444032 C1.60026774,5.30395645 1.58434839,5.27042419 1.57181613,5.23994032 C1.56470323,5.21758548 1.55962258,5.19319839 1.55013871,5.17185968 C1.53523548,5.13832742 1.51728387,5.10073065 1.50373548,5.06381129 C1.4939129,5.03366613 1.49188065,5.00216613 1.48171935,4.97269839 C1.4624129,4.92019839 1.44446129,4.8612629 1.42684839,4.80944032 C1.41567097,4.77015 1.41126774,4.72950484 1.40009032,4.68919839 C1.38484839,4.64245645 1.36452581,4.59605323 1.34623548,4.54897258 C1.33370323,4.51137581 1.33065484,4.47073065 1.31947742,4.43211774 C1.30152581,4.38198871 1.27646129,4.33490806 1.25884839,4.28173065 C1.24970323,4.24006935 1.24800968,4.19806935 1.23852581,4.15844032 C1.20905806,4.06021452 1.17823548,3.95182742 1.14673548,3.85190806 C1.11117097,3.73979516 1.10846129,3.61311774 1.07594516,3.50032742 C1.05325161,3.41937581 1.02412258,3.34181129 0.999735484,3.26221452 C0.990251613,3.22123065 0.989235484,3.18261774 0.979074194,3.14197258 C0.957058065,3.05289194 0.923525806,2.93535968 0.894058065,2.84221452 C0.878816129,2.79310161 0.883219355,2.74263387 0.869670968,2.68911774 C0.854429032,2.63661774 0.853412903,2.57294032 0.836816129,2.51671452 C0.825977419,2.48182742 0.812767742,2.4567629 0.8043,2.41239194 C0.795493548,2.36802097 0.796509677,2.31518226 0.790074194,2.28232742 C0.7833,2.24913387 0.725380645,2.05166613 0.718945161,2.01508548 C0.712170968,1.97884355 0.712170968,1.91177903 0.708106452,1.88806935 C0.705058065,1.87215 0.675251613,1.78679516 0.671525806,1.76477903 C0.66746129,1.74242419 0.66746129,1.71702097 0.658316129,1.67366613 C0.649509677,1.62929516 0.624445161,1.53208548 0.620041935,1.50397258 C0.615977419,1.47585968 0.61563871,1.41861774 0.609541935,1.39016613 C0.603783871,1.36205323 0.584816129,1.29702097 0.572283871,1.24994032 C0.557041935,1.19405323 0.568558065,1.13410161 0.552977419,1.08092419 C0.5418,1.04197258 0.528251613,1.00302097 0.513687097,0.965762903 C0.504880645,0.932908065 0.493364516,0.888875806 0.490993548,0.869230645 C0.48896129,0.839085484 0.486929032,0.776762903 0.485912903,0.754069355 C0.484558065,0.721553226 0.471348387,0.668714516 0.46796129,0.62231129 C0.464235484,0.558633871 0.450348387,0.491230645 0.440864516,0.452617742 C0.434429032,0.429585484 0.43646129,0.40181129 0.431719355,0.38081129 C0.41546129,0.31848871 0.400219355,0.261246774 0.369396774,0.264972581 C0.346364516,0.269037097 0.338235484,0.287327419 0.347719355,0.32831129 C0.358896774,0.376746774 0.363977419,0.414004839 0.375832258,0.462101613 C0.381929032,0.487504839 0.383622581,0.551182258 0.38463871,0.572182258 C0.385993548,0.606391935 0.387687097,0.614520968 0.392090323,0.646698387 C0.393783871,0.660246774 0.399203226,0.691069355 0.403267742,0.705295161 C0.408687097,0.72798871 0.41546129,0.75915 0.414783871,0.775069355 C0.414445161,0.797085484 0.413767742,0.820117742 0.413767742,0.851617742 C0.414106452,0.868214516 0.414783871,0.873295161 0.421219355,0.901408065 C0.427316129,0.929182258 0.431041935,0.934262903 0.432735484,0.957972581 C0.433751613,0.977956452 0.431719355,0.996585484 0.433074194,1.01419839 C0.433412903,1.0355371 0.436122581,1.05721452 0.442219355,1.07685968 C0.455429032,1.11784355 0.482525806,1.17508548 0.471348387,1.23639194 C0.458816129,1.30074677 0.4788,1.36273065 0.493364516,1.41861774 C0.500477419,1.45485968 0.493025806,1.49482742 0.4998,1.5290371 C0.513687097,1.57747258 0.525203226,1.62895645 0.538074194,1.67874677 C0.548912903,1.72006935 0.541122581,1.75698871 0.55196129,1.79627903 C0.567203226,1.85081129 0.6048,1.92465 0.609203226,1.94937581 C0.613606452,1.97410161 0.612929032,2.04048871 0.620041935,2.08282742 C0.627832258,2.12482742 0.637654839,2.17292419 0.640703226,2.19968226 C0.644090323,2.22644032 0.639687097,2.23829516 0.642735484,2.25827903 C0.645783871,2.2782629 0.672880645,2.37377903 0.676945161,2.39850484 C0.681348387,2.42323065 0.680332258,2.4357629 0.685074194,2.46150484 C0.690832258,2.48792419 0.711832258,2.59021452 0.717251613,2.62306935 C0.722332258,2.65592419 0.7203,2.67556935 0.726396774,2.70842419 C0.735880645,2.75923065 0.756880645,2.80224677 0.767719355,2.85102097 C0.774493548,2.88692419 0.772122581,2.90961774 0.776864516,2.93874677 C0.787025806,2.98481129 0.802267742,3.02579516 0.810735484,3.06915 C0.817170968,3.10234355 0.817509677,3.13621452 0.823945161,3.17008548 C0.839864516,3.24392419 0.850364516,3.31877903 0.870348387,3.3912629 C0.882880645,3.43461774 0.908283871,3.47424677 0.920816129,3.51523065 C0.931316129,3.55384355 0.934364516,3.59482742 0.944187097,3.63242419 C0.954348387,3.66561774 0.977380645,3.6957629 0.985848387,3.73031129 C0.991606452,3.76079516 0.990590323,3.79127903 0.996348387,3.82142419 C1.0038,3.85597258 1.01904194,3.89052097 1.02581613,3.92574677 C1.03055806,3.95284355 1.02852581,3.97892419 1.0353,4.0070371 C1.04512258,4.03819839 1.06002581,4.06495645 1.06747742,4.09510161 C1.07492903,4.1330371 1.07459032,4.17097258 1.08373548,4.20890806 C1.09525161,4.25260161 1.11388065,4.29527903 1.12810645,4.33592419 C1.1403,4.37419839 1.13284839,4.41518226 1.14504194,4.45650484 C1.16976774,4.54524677 1.19889677,4.64381129 1.22870323,4.72679516 C1.2419129,4.77184355 1.23988065,4.81790806 1.25647742,4.86702097 C1.26765484,4.8995371 1.28255806,4.92155323 1.29475161,4.94865 C1.30592903,4.97777903 1.29644516,5.00961774 1.30525161,5.04315 C1.31913871,5.09632742 1.32760645,5.16915 1.34657419,5.22198871 C1.36825161,5.28194032 1.4028,5.33037581 1.42413871,5.38863387 C1.44446129,5.44960161 1.44615484,5.51056935 1.46647742,5.57424677 C1.48578387,5.6277629 1.51321935,5.67755323 1.53354194,5.72734355 C1.55115484,5.77069839 1.54471935,5.82794032 1.56131613,5.87366613 C1.57960645,5.92413387 1.61550968,5.96274677 1.63447742,6.01423065 C1.65615484,6.07316613 1.67071935,6.13108548 1.68900968,6.19002097 C1.69510645,6.21508548 1.69950968,6.24015 1.70492903,6.26521452 C1.72592903,6.34142419 1.76725161,6.40408548 1.79367097,6.47724677 C1.80417097,6.51145645 1.80620323,6.53990806 1.81636452,6.57174677 C1.83499355,6.62356935 1.85633226,6.6777629 1.88038065,6.72789194 C1.90104194,6.7722629 1.92983226,6.81663387 1.94981613,6.86168226 C1.96844516,6.90300484 1.97250968,6.94568226 1.99046129,6.9890371 C2.00671935,7.03035968 2.02704194,7.07574677 2.04363871,7.11944032 C2.05244516,7.14585968 2.05413871,7.16923065 2.06531613,7.19429516 C2.11713871,7.31013387 2.18047742,7.42698871 2.23399355,7.54011774 C2.26210645,7.60244032 2.27599355,7.66984355 2.30478387,7.73250484 C2.32883226,7.78195645 2.35660645,7.82971452 2.37896129,7.88289194 C2.39250968,7.91642419 2.39657419,7.94894032 2.41147742,7.98044032 C2.44026774,8.0427629 2.48057419,8.10508548 2.5086871,8.16639194 C2.51613871,8.18231129 2.53781613,8.24802097 2.52900968,8.2737629 C2.52799355,8.27681129 2.52731613,8.28189194 2.52257419,8.28358548 C2.50360645,8.28900484 2.46465484,8.25581129 2.44331613,8.23413387 C2.36913871,8.16198871 2.35762258,8.02481129 2.3058,7.93098871 C2.29089677,7.90456935 2.27328387,7.87442419 2.2604129,7.84631129 C2.25296129,7.82632742 2.24855806,7.80735968 2.23907419,7.78737581 C2.20689677,7.72708548 2.16692903,7.67187581 2.13813871,7.60785968 C2.11747742,7.56145645 2.11544516,7.50861774 2.09444516,7.46458548 C2.00976774,7.2830371 1.91289677,7.10792419 1.83194516,6.92569839 C1.7946871,6.84271452 1.78655806,6.74855323 1.75438065,6.65879516 C1.73507419,6.60527903 1.70289677,6.56090806 1.68088065,6.51179516 C1.66292903,6.47250484 1.65852581,6.43152097 1.64125161,6.39121452 C1.61788065,6.33939194 1.5846871,6.29095645 1.56402581,6.23473065 C1.55149355,6.19815 1.5464129,6.16123065 1.53320323,6.12465 C1.51660645,6.08502097 1.48950968,6.05182742 1.47155806,6.01321452 C1.44649355,5.95597258 1.44242903,5.89940806 1.42346129,5.83369839 C1.4133,5.79847258 1.39873548,5.76155323 1.38721935,5.72971452 C1.37773548,5.69889194 1.3746871,5.66806935 1.36486452,5.6382629 C1.33946129,5.56984355 1.29881613,5.50921452 1.27307419,5.43944032 C1.2558,5.39168226 1.25850968,5.33206935 1.23852581,5.28634355 C1.22192903,5.24840806 1.19178387,5.21792419 1.17654194,5.17863387 C1.15960645,5.13731129 1.17484839,5.08752097 1.16163871,5.03840806 C1.14910645,4.99200484 1.13047742,4.94797258 1.11489677,4.90495645 C1.10642903,4.87752097 1.10371935,4.85008548 1.09559032,4.82366613 C1.07526774,4.76710161 1.05528387,4.7105371 1.03428387,4.65397258 C1.02412258,4.62552097 1.02378387,4.5987629 1.01226774,4.57268226 C0.997025806,4.53915 0.9723,4.50765 0.960106452,4.47106935 C0.946219355,4.4165371 0.94113871,4.35895645 0.928267742,4.30510161 C0.905912903,4.23363387 0.879154839,4.17537581 0.858493548,4.10627903 C0.853412903,4.08392419 0.853412903,4.06258548 0.847654839,4.03819839 C0.830719355,3.97723065 0.821912903,3.90745645 0.804977419,3.84615 C0.798541935,3.81634355 0.799558065,3.79094032 0.792445161,3.76147258 C0.775509677,3.70321452 0.755525806,3.64427903 0.737574194,3.58873065 C0.728429032,3.55282742 0.726396774,3.51624677 0.717590323,3.48135968 C0.68913871,3.39024677 0.663058065,3.28321452 0.63596129,3.19447258 C0.628848387,3.16839194 0.631558065,3.14569839 0.623767742,3.11656935 C0.601412903,3.04747258 0.5733,2.96313387 0.557719355,2.89132742 C0.549590323,2.84966613 0.549251613,2.8100371 0.540445161,2.77108548 C0.529606452,2.72298871 0.512670968,2.67590806 0.502848387,2.62815 C0.49946129,2.60545645 0.502848387,2.58818226 0.500816129,2.56921452 C0.496074194,2.53771452 0.493364516,2.50621452 0.487606452,2.47539194 C0.456783871,2.34973065 0.406993548,2.1942629 0.379896774,2.06792419 C0.371429032,2.0225371 0.369735484,1.97681129 0.365332258,1.93108548 C0.359912903,1.9002629 0.357880645,1.86300484 0.348396774,1.83015 C0.338912903,1.79729516 0.323670968,1.76308548 0.318929032,1.72921452 C0.312154839,1.67468226 0.311477419,1.62184355 0.303687097,1.57002097 C0.303009677,1.56561774 0.301993548,1.56155323 0.300977419,1.55748871 C0.2898,1.49279516 0.257283871,1.36069839 0.249832258,1.30921452 C0.241025806,1.24621452 0.233912903,1.1825371 0.226122581,1.12123065 C0.224767742,1.08092419 0.217993548,1.03892419 0.212235484,0.995908065 C0.203429032,0.930537097 0.187509677,0.873633871 0.180396774,0.806908065 C0.175316129,0.761859677 0.178025806,0.721553226 0.172606452,0.683956452 C0.169219355,0.659908065 0.167864516,0.618246774 0.138396774,0.618246774 C0.108929032,0.618246774 0.112316129,0.653133871 0.11096129,0.681246774 C0.106896774,0.74898871 0.119767742,0.837391935 0.124509677,0.879053226 C0.133993548,0.956617742 0.126880645,1.03215 0.135687097,1.11106935 C0.140429032,1.1547629 0.153977419,1.19947258 0.159735484,1.24147258 C0.170235484,1.31565 0.177348387,1.39152097 0.186832258,1.46265 C0.186832258,1.46400484 0.187170968,1.46535968 0.187170968,1.46637581 C0.189880645,1.50024677 0.193945161,1.53310161 0.199703226,1.56460161 C0.200719355,1.56798871 0.201396774,1.5710371 0.202074194,1.57408548 C0.202074194,1.57611774 0.202074194,1.57713387 0.203090323,1.57882742 C0.203429032,1.58052097 0.203429032,1.58255323 0.204106452,1.58424677 L0.204106452,1.58458548 C0.207154839,1.59915 0.210541935,1.61337581 0.214267742,1.62760161 C0.222735484,1.65639194 0.219348387,1.6797629 0.227477419,1.70889194 C0.250509677,1.7952629 0.245429032,1.88874677 0.26913871,1.97240806 C0.303687097,2.09739194 0.321977419,2.2362629 0.356864516,2.36023065 C0.366687097,2.39647258 0.357203226,2.43169839 0.367025806,2.47065 C0.377187097,2.51061774 0.388025806,2.54889194 0.397170968,2.58784355 C0.406654839,2.6352629 0.399541935,2.68302097 0.411735484,2.73111774 C0.423251613,2.77447258 0.43713871,2.81985968 0.448993548,2.86152097 C0.461864516,2.91232742 0.463219355,2.96550484 0.477445161,3.02105323 C0.493364516,3.07660161 0.511993548,3.13756935 0.522154839,3.19379516 C0.533670968,3.25781129 0.540106452,3.33131129 0.55196129,3.39871452 C0.5628,3.45527903 0.593622581,3.52268226 0.607170968,3.58466613 C0.610219355,3.60498871 0.609203226,3.62531129 0.612590323,3.64631129 C0.620719355,3.69068226 0.633929032,3.7340371 0.643074194,3.77637581 C0.647816129,3.79602097 0.64646129,3.81363387 0.651541935,3.83497258 C0.673219355,3.9162629 0.697945161,4.01821452 0.723348387,4.09882742 C0.729783871,4.12118226 0.732493548,4.14421452 0.737912903,4.16724677 C0.754170968,4.22415 0.771783871,4.26682742 0.777880645,4.29765 C0.7833,4.32474677 0.786348387,4.35624677 0.79413871,4.38605323 C0.805654839,4.43008548 0.819541935,4.46768226 0.827670968,4.50595645 C0.834445161,4.5357629 0.839187097,4.5635371 0.846977419,4.59368226 C0.8568,4.62992419 0.872041935,4.66345645 0.886267742,4.69868226 C0.911670968,4.77150484 0.913703226,4.84873065 0.939445161,4.91952097 C0.954687097,4.96185968 0.975348387,5.00250484 0.989235484,5.04755323 C1.0004129,5.0885371 1.0038,5.13832742 1.01700968,5.18371452 C1.04038065,5.25416613 1.06747742,5.33444032 1.09321935,5.40556935 C1.12302581,5.48889194 1.14131613,5.58068226 1.17044516,5.65960161 C1.18196129,5.69144032 1.17959032,5.7222629 1.19009032,5.75715 C1.2138,5.83606935 1.24157419,5.92481129 1.2663,6.00508548 C1.28052581,6.0477629 1.28120323,6.08840806 1.29712258,6.12837581 C1.32388065,6.19577903 1.36350968,6.25268226 1.38823548,6.32110161 C1.4099129,6.38037581 1.41431613,6.43931129 1.43667097,6.49384355 C1.46613871,6.56700484 1.5006871,6.64152097 1.52846129,6.71874677 C1.54776774,6.77158548 1.55386452,6.82510161 1.57655806,6.87556935 C1.59552581,6.91824677 1.62059032,6.96295645 1.63921935,7.00563387 C1.65344516,7.04356935 1.66597742,7.08150484 1.6791871,7.11977903 C1.68934839,7.14890806 1.72084839,7.19835968 1.74150968,7.23731129 C1.76521935,7.28981129 1.76928387,7.34705323 1.78960645,7.40361774 C1.82076774,7.48965 1.86276774,7.57737581 1.89900968,7.65798871 C1.91357419,7.68948871 1.91628387,7.71895645 1.92881613,7.75248871 C1.94981613,7.81006935 1.98809032,7.85274677 2.0118,7.90592419 C2.03483226,7.95639194 2.04092903,8.01024677 2.06294516,8.05902097 C2.09546129,8.13048871 2.12052581,8.16774677 2.1201871,8.27071452 C2.11950968,8.27985968 2.11713871,8.28663387 2.10663871,8.29002097 C2.08733226,8.29781129 2.06565484,8.26597258 2.05346129,8.25411774 C1.99892903,8.2002629 1.99046129,8.14877903 1.95625161,8.07460161 C1.9034129,7.96147258 1.8366871,7.85511774 1.78554194,7.74469839 C1.75844516,7.68711774 1.74726774,7.62479516 1.72084839,7.56552097 C1.70492903,7.52961774 1.68088065,7.49269839 1.66462258,7.45747258 C1.64023548,7.40632742 1.62770323,7.35213387 1.60094516,7.30437581 C1.56334839,7.23663387 1.53286452,7.15602097 1.50204194,7.07913387 C1.49052581,7.05034355 1.48917097,7.02256935 1.47697742,6.99479516 C1.46309032,6.96532742 1.4414129,6.93789194 1.42820323,6.90977903 C1.40855806,6.86235968 1.39636452,6.80477903 1.37705806,6.75634355 C1.33573548,6.66523065 1.28865484,6.56937581 1.25376774,6.47284355 C1.2209129,6.38444032 1.20533226,6.29908548 1.17315484,6.20898871 C1.15960645,6.17240806 1.14199355,6.1317629 1.1298,6.09450484 C1.11862258,6.06131129 1.11828387,6.03218226 1.10642903,6.00034355 C1.07763871,5.91905323 1.0386871,5.83369839 1.00481613,5.75545645 C0.987541935,5.71752097 0.98246129,5.67924677 0.967896774,5.63860161 C0.950283871,5.58881129 0.928606452,5.53461774 0.910654839,5.48516613 C0.886606452,5.42081129 0.885929032,5.34494032 0.861203226,5.27685968 C0.808364516,5.13121452 0.740622581,4.97811774 0.695574194,4.82400484 C0.687445161,4.78877903 0.689477419,4.75219839 0.678977419,4.71629516 C0.654590323,4.63940806 0.629525806,4.55371452 0.605477419,4.47174677 C0.578719355,4.38063387 0.582106452,4.28410161 0.553316129,4.19502097 C0.517412903,4.07985968 0.476767742,3.95961774 0.440864516,3.84648871 C0.430025806,3.81160161 0.434429032,3.7760371 0.423929032,3.73911774 C0.399203226,3.65037581 0.369396774,3.54740806 0.339590323,3.46510161 C0.325025806,3.42479516 0.324687097,3.38008548 0.309445161,3.34147258 C0.291154839,3.29506935 0.244074194,3.31234355 0.2478,3.36450484 C0.251525806,3.41158548 0.267445161,3.47323065 0.272525806,3.49795645 C0.278283871,3.53081129 0.278283871,3.56366613 0.285396774,3.59821452 C0.299622581,3.65985968 0.319945161,3.71134355 0.337219355,3.76790806 C0.355170968,3.82548871 0.355170968,3.88035968 0.372783871,3.94031129 C0.380912903,3.96977903 0.392767742,4.00365 0.401574194,4.03142419 C0.420541935,4.09137581 0.420541935,4.15573065 0.440525806,4.21060161 C0.456106452,4.2522629 0.467622581,4.30442419 0.480832258,4.35048871 C0.489977419,4.38097258 0.487267742,4.4060371 0.497090323,4.43550484 C0.513687097,4.48969839 0.5313,4.54389194 0.548235484,4.59842419 C0.556703226,4.62958548 0.553316129,4.65735968 0.560767742,4.68615 C0.572622581,4.72916613 0.582106452,4.7735371 0.59463871,4.81316613 C0.605816129,4.85177903 0.6048,4.90597258 0.618348387,4.94627903 C0.642396774,5.02147258 0.669493548,5.10106935 0.694558065,5.17152097 C0.723009677,5.25010161 0.726396774,5.33240806 0.755187097,5.41234355 C0.805654839,5.55358548 0.853074194,5.71616613 0.904219355,5.85910161 C0.917429032,5.89568226 0.912687097,5.93327903 0.924203226,5.97290806 C0.94113871,6.03421452 0.954348387,6.09450484 0.976025806,6.15547258 C0.986864516,6.18460161 1.00549355,6.21373065 1.01802581,6.24015 C1.03394516,6.27469839 1.03834839,6.31229516 1.05426774,6.34785968 C1.06646129,6.37631129 1.08542903,6.40510161 1.09626774,6.43558548 C1.11252581,6.48131129 1.10642903,6.53652097 1.12370323,6.57919839 C1.13759032,6.61340806 1.15655806,6.65100484 1.17010645,6.68656935 C1.18399355,6.72585968 1.18331613,6.76785968 1.1999129,6.80410161 C1.21413871,6.83661774 1.23717097,6.86744032 1.25207419,6.89894032 C1.2663,6.92908548 1.26934839,6.95990806 1.28120323,6.99344032 C1.29373548,7.02765 1.31270323,7.0625371 1.32692903,7.09437581 C1.34284839,7.13027903 1.34420323,7.17160161 1.36046129,7.20852097 C1.3746871,7.2410371 1.39670323,7.27152097 1.4099129,7.30640806 C1.42176774,7.34298871 1.42312258,7.38227903 1.43565484,7.42021452 C1.45767097,7.47508548 1.49255806,7.52419839 1.51626774,7.5770371 C1.53388065,7.61666613 1.53557419,7.66035968 1.55284839,7.70066613 C1.57317097,7.74673065 1.60162258,7.79211774 1.62296129,7.83750484 C1.65073548,7.89847258 1.67173548,7.96282742 1.69713871,8.02040806 C1.74286452,8.1230371 1.75878387,8.23616613 1.80586452,8.3367629 C1.8404129,8.41127903 1.88749355,8.48240806 1.9206871,8.55523065 C1.93931613,8.59621452 1.9454129,8.63956935 1.96404194,8.67919839 C1.98504194,8.72356935 2.02196129,8.76116613 2.04262258,8.80655323 C2.05854194,8.8512629 2.07175161,8.89698871 2.09038065,8.94000484 C2.11646129,8.99724677 2.15439677,9.04805323 2.18013871,9.1032629 C2.19504194,9.13510161 2.20113871,9.16660161 2.21604194,9.1977629 C2.24483226,9.25906935 2.29157419,9.31055323 2.31934839,9.37118226 C2.3339129,9.41115 2.34847742,9.45145645 2.36270323,9.4917629 C2.3931871,9.55645645 2.44196129,9.61166613 2.4738,9.67771452 C2.49615484,9.72581129 2.51173548,9.77729516 2.53984839,9.82098871 C2.58455806,9.89042419 2.61334839,9.93615 2.65670323,10.0062629 C2.68413871,10.05165 2.72105806,10.1183758 2.74409032,10.1674887 C2.76678387,10.2159242 2.80404194,10.2572468 2.82639677,10.3046661 C2.84909032,10.3517468 2.87754194,10.4022145 2.90328387,10.4472629 C2.93173548,10.4977306 2.96086452,10.5349887 2.99202581,10.5824081 C3.0441871,10.6603113 3.07602581,10.7429565 3.12683226,10.8211984 C3.16171935,10.8757306 3.20236452,10.931279 3.2403,10.9841177 C3.34292903,11.125021 3.48992903,11.377021 3.55360645,11.4620371 C3.60542903,11.5307952 3.64844516,11.6120855 3.69654194,11.6842306 C3.7338,11.739779 3.77986452,11.7949887 3.82017097,11.8468113 C3.85336452,11.8898274 3.87944516,11.9362306 3.9123,11.9809403 L3.93736452,12.0148113 C5.25257419,13.6866823 6.60402581,14.7935855 7.7481871,15.5191016 L7.7481871,15.5194403 C8.35075161,15.8964242 8.67523548,16.0061661 8.67523548,16.0061661 C8.75212258,16.0383435 8.69996129,16.0938919 8.66067097,16.1179403 L1.87563871,20.45715 C1.85396129,20.4710371 1.8018,20.50965 1.8228,20.5530048 C1.83871935,20.5858597 1.90815484,20.5672306 1.92678387,20.5607952 C7.37188065,18.6494565 11.322929,17.0778435 13.7392839,15.9313113 C16.1878161,14.7691984 17.0108806,14.1043113 16.9211226,13.7737306" id="Fill-556" fill="#4C4C4C" mask="url(#mask-2)"></path>
            </g>
        </g>
    </g>
</svg>