<?xml version="1.0" encoding="UTF-8" standalone="no"?>
<svg width="108px" height="21px" viewBox="0 0 108 21" version="1.1" xmlns="http://www.w3.org/2000/svg" xmlns:xlink="http://www.w3.org/1999/xlink">
    <!-- Generator: Sketch 46.1 (44463) - http://www.bohemiancoding.com/sketch -->
    <title>cathaydragon-zh</title>
    <desc>Created with Sketch.</desc>
    <defs>
        <polygon id="path-1" points="0 20.8431891 107.292281 20.8431891 107.292281 3.28125e-05 0 3.28125e-05"></polygon>
    </defs>
    <g id="icons" stroke="none" stroke-width="1" fill="none" fill-rule="evenodd">
        <g id="cathaydragon">
            <g id="cathaydragon-zh">
                <path d="M6.32602031,9.9778875 C6.33159844,9.9778875 6.34242656,9.9726375 6.34045781,9.9621375 C6.31716094,9.86665312 6.27516094,9.81054375 6.22462969,9.77084062 C6.20461406,9.75377813 6.12717656,9.72785625 6.11339531,9.73934063 C6.10387969,9.75115312 6.14095781,9.829575 6.15080156,9.84335625 C6.18262969,9.8886375 6.25875469,9.987075 6.32602031,9.9778875 Z M4.69064531,9.07095 C4.70344219,9.06471563 4.68441094,8.98990312 4.67784844,8.9698875 C4.66373906,8.93116875 4.63420781,8.90590313 4.61091094,8.87637188 C4.56956719,8.8228875 4.52198906,8.77366875 4.48294219,8.71952813 C4.45111406,8.6758875 4.43831719,8.61912188 4.40747344,8.57285625 C4.38745781,8.54037188 4.36120781,8.50952813 4.33758281,8.47966875 C4.30739531,8.4370125 4.24767656,8.32741875 4.18467656,8.32249688 C4.17516094,8.32184063 4.18467656,8.36121563 4.18598906,8.37696563 C4.20075469,8.5105125 4.26441094,8.56465313 4.32084844,8.64241875 C4.38319219,8.72674687 4.44061406,8.82452813 4.49902031,8.91246563 C4.53052031,8.95905938 4.64405156,9.0880125 4.69064531,9.07095 Z M4.22208281,9.05355938 C4.23258281,9.052575 4.23980156,9.04371563 4.24111406,9.02599688 C4.24308281,8.99745 4.22602031,8.958075 4.21814531,8.94330938 C4.19222344,8.89441875 4.12134844,8.78909063 4.05277031,8.78941875 C4.04719219,8.78941875 4.04292656,8.79171563 4.04391094,8.80221563 C4.04522344,8.90196563 4.09247344,8.9698875 4.15055156,9.01221563 C4.17220781,9.02862188 4.18697344,9.05027813 4.22208281,9.05355938 Z M2.66480156,9.36855938 C2.67202031,9.34230938 2.66775469,9.30030938 2.65758281,9.27668438 C2.63494219,9.21991875 2.59687969,9.17496562 2.56931719,9.11590312 C2.54569219,9.06471562 2.52469219,9.00368438 2.49384844,8.95643438 C2.47120781,8.92099688 2.43544219,8.89015313 2.41444219,8.853075 C2.38687969,8.8032 2.37966094,8.73954375 2.35603594,8.68966875 C2.32847344,8.63355938 2.28023906,8.58991875 2.25070781,8.53610625 C2.22248906,8.48623125 2.16736406,8.3477625 2.11059844,8.33890313 C2.10600469,8.33791875 2.10272344,8.34218438 2.10042656,8.34940313 C2.09616094,8.364825 2.10042656,8.41010625 2.10698906,8.43209063 C2.12077031,8.47573125 2.13980156,8.52035625 2.15456719,8.56202813 C2.16112969,8.58598125 2.16736406,8.61091875 2.17392656,8.63454375 C2.19919219,8.70345 2.23725469,8.76087187 2.27597344,8.8150125 C2.29041094,8.83404375 2.31173906,8.85209063 2.32552031,8.87210625 C2.34980156,8.91049688 2.35931719,8.95610625 2.37834844,8.99909063 C2.39475469,9.03223125 2.41969219,9.063075 2.43872344,9.09227813 C2.46694219,9.13460625 2.48991094,9.18054375 2.51616094,9.2218875 C2.54897344,9.27241875 2.57128594,9.38430938 2.64478594,9.38529375 C2.65594219,9.38529375 2.66250469,9.37577813 2.66480156,9.36855938 Z M2.37506719,7.2452625 C2.40164531,7.29448125 2.42100469,7.37848125 2.48991094,7.38274688 C2.50041094,7.38143437 2.50237969,7.36437188 2.50139531,7.33910625 C2.50041094,7.3213875 2.50139531,7.2912 2.49614531,7.26921563 C2.48761406,7.23935625 2.47908281,7.20949688 2.46628594,7.18193438 C2.44134844,7.13009063 2.40164531,7.08677813 2.37802031,7.03591875 C2.34225469,6.95979375 2.33273906,6.87152813 2.29697344,6.79310625 C2.27991094,6.7557 2.25103594,6.72190313 2.22937969,6.68909063 C2.22019219,6.67498125 2.21691094,6.65955938 2.20805156,6.64577813 C2.19558281,6.6310125 2.18541094,6.62215313 2.17064531,6.60968438 C2.16408281,6.60345 2.14931719,6.59787188 2.14734844,6.60574688 C2.12930156,6.65627813 2.15358281,6.73141875 2.17261406,6.77177813 C2.21658281,6.8672625 2.26612969,6.97455938 2.30944219,7.07168438 C2.32289531,7.10154375 2.32453594,7.13009063 2.33536406,7.16224688 C2.34553594,7.18980938 2.36128594,7.21999688 2.37506719,7.2452625 Z M15.3957234,13.5511687 C16.1595984,13.6207312 17.0888484,13.4842313 17.1751453,13.8015281 C17.2670203,14.1394969 16.4257078,14.8190437 13.9240828,16.0065281 C11.4559266,17.1772781 7.41867656,18.7824656 1.85630156,20.7354656 C1.83694219,20.7420281 1.76606719,20.7607312 1.75031719,20.7272625 C1.72898906,20.6836219 1.78181719,20.6439187 1.80445781,20.6294813 L8.73544219,16.1961844 C8.77580156,16.1719031 8.82994219,16.1151375 8.75152031,16.0826531 C8.75152031,16.0826531 8.41847344,15.9704344 7.80258281,15.5848875 L7.80356719,15.5848875 C6.63380156,14.843325 5.25305156,13.7126062 3.90937969,12.0040594 L3.88411406,11.9696063 C3.85097344,11.9246531 3.82406719,11.8767469 3.78994219,11.8334344 C3.74892656,11.7792937 3.70167656,11.7235125 3.66328594,11.6667469 C3.61439531,11.5929187 3.56977031,11.5099031 3.51792656,11.4400125 C3.45230156,11.3530594 3.30234844,11.0954812 3.19800469,10.9514344 C3.15830156,10.8972937 3.11728594,10.8411844 3.08119219,10.7847469 C3.03033281,10.7053406 2.99686406,10.6206844 2.94436406,10.54095 C2.91220781,10.4920594 2.88267656,10.4539969 2.85281719,10.4028094 C2.82755156,10.3575281 2.79769219,10.3050281 2.77505156,10.2571219 C2.75142656,10.2079031 2.71336406,10.1665594 2.69105156,10.1170125 C2.66677031,10.0668094 2.62936406,9.99790312 2.60081719,9.95262187 C2.55652031,9.88109062 2.52797344,9.83449687 2.48203594,9.76395 C2.45348906,9.71834062 2.43708281,9.66649687 2.41444219,9.61629375 C2.38195781,9.54968437 2.33175469,9.49291875 2.30091094,9.4266375 C2.28581719,9.38529375 2.27170781,9.34460625 2.25661406,9.30359063 C2.22773906,9.24124687 2.18016094,9.18940313 2.15128594,9.12673125 C2.13586406,9.094575 2.12930156,9.06209062 2.11420781,9.02993437 C2.08795781,8.97316875 2.04989531,8.92198125 2.02266094,8.86291875 C2.00461406,8.81862187 1.99083281,8.77202813 1.97475469,8.72674687 C1.95375469,8.68048125 1.91569219,8.64241875 1.89436406,8.59648125 C1.87434844,8.55645 1.86877031,8.51149687 1.84973906,8.47015312 C1.81594219,8.39534062 1.76803594,8.32315312 1.73325469,8.2467 C1.68436406,8.14366875 1.66861406,8.02849687 1.62202031,7.92316875 C1.59544219,7.8647625 1.57411406,7.79815312 1.54556719,7.73679375 C1.52423906,7.69052813 1.49437969,7.64459062 1.47469219,7.59668437 C1.45631719,7.55534062 1.45434844,7.51071562 1.43630156,7.47002812 C1.41169219,7.41654375 1.37691094,7.36666875 1.35492656,7.31055937 C1.34180156,7.27118437 1.33983281,7.23115312 1.32736406,7.194075 C1.31423906,7.15830937 1.29192656,7.12648125 1.27716094,7.094325 C1.26009844,7.0562625 1.25944219,7.0142625 1.24336406,6.9775125 C1.22859844,6.9447 1.20923906,6.90860625 1.19677031,6.873825 C1.18397344,6.8397 1.18069219,6.80852812 1.16691094,6.77735625 C1.15214531,6.7452 1.12786406,6.7137 1.11408281,6.68055937 C1.09702031,6.64380937 1.09734844,6.60115312 1.08192656,6.56079375 C1.06945781,6.52437187 1.05042656,6.48598125 1.03566094,6.45054375 C1.01761406,6.40723125 1.02384844,6.35079375 1.00809844,6.30452812 C0.996285937,6.27368437 0.977254687,6.243825 0.964457812,6.21429375 C0.948379688,6.1782 0.944442187,6.1401375 0.927379687,6.10437188 C0.914910937,6.07746562 0.895551562,6.04760625 0.885051562,6.018075 C0.862739063,5.95605937 0.849285938,5.89404375 0.832223437,5.83137187 C0.820410937,5.79068437 0.824348437,5.75262187 0.810567187,5.7148875 C0.758723438,5.56854375 0.711145312,5.40316875 0.658973437,5.25879375 C0.629770312,5.17741875 0.626489062,5.09309062 0.597285937,5.01237187 C0.571692188,4.94018437 0.543801562,4.8591375 0.519192188,4.7830125 C0.505739062,4.74166875 0.506723437,4.6858875 0.495239062,4.64618437 C0.482442187,4.605825 0.472598438,4.56021562 0.460785937,4.516575 C0.452910937,4.48737188 0.456520312,4.45915313 0.448317187,4.427325 C0.430270312,4.37154375 0.411895312,4.31641875 0.395160937,4.26030937 C0.385645313,4.23045 0.387614063,4.20518438 0.379410937,4.17434062 C0.364317187,4.1267625 0.352832812,4.07360625 0.336754687,4.03062187 C0.317067188,3.97516875 0.317067188,3.90954375 0.297707812,3.84785625 C0.288192187,3.81898125 0.276379687,3.78518438 0.267848437,3.75434062 C0.249801562,3.6936375 0.249801562,3.63785625 0.232082813,3.57846562 C0.215020313,3.52104375 0.193692187,3.46821562 0.178926562,3.40587187 C0.171379687,3.36945 0.171379687,3.33696563 0.166129687,3.30284063 C0.160879687,3.277575 0.143817187,3.21490313 0.140535938,3.1660125 C0.136598437,3.11318437 0.185160937,3.09612187 0.203207812,3.14271563 C0.219942187,3.18209062 0.219942187,3.2277 0.235035938,3.27002812 C0.264567188,3.35402812 0.295410937,3.4587 0.321004687,3.5492625 C0.331504687,3.58699688 0.326254687,3.62309063 0.338067188,3.65918438 C0.374817187,3.77468437 0.416489062,3.89773125 0.452910937,4.0152 C0.482114063,4.10641875 0.479160938,4.20452812 0.506723437,4.29771562 C0.530020312,4.38105938 0.556270312,4.46899687 0.580551562,4.54741875 C0.592364062,4.58449687 0.589410937,4.62190312 0.597614062,4.65766875 C0.643879687,4.81549688 0.713114062,4.97168437 0.766926562,5.11999687 C0.792192187,5.1898875 0.792848437,5.267325 0.817785938,5.33327812 C0.836160937,5.38348125 0.858473437,5.4392625 0.876520312,5.49012187 C0.891285938,5.53146562 0.896535937,5.5705125 0.913598437,5.6098875 C0.949035937,5.68962187 0.987754687,5.77624687 1.01859844,5.86024687 C1.02975469,5.892075 1.03008281,5.92160625 1.04189531,5.95605937 C1.05436406,5.99346562 1.07273906,6.03480937 1.08520781,6.07287187 C1.11834844,6.16540312 1.13541094,6.25235625 1.16789531,6.34193438 C1.20431719,6.44135625 1.25189531,6.53848125 1.29422344,6.63199687 C1.31358281,6.68187187 1.32605156,6.74027812 1.34737969,6.78884062 C1.35984844,6.8173875 1.38248906,6.84495 1.39594219,6.87579375 C1.40873906,6.9040125 1.41070781,6.93223125 1.42284844,6.9617625 C1.45303594,7.04018438 1.48387969,7.12287187 1.52325469,7.19243438 C1.55081719,7.24034062 1.56361406,7.29546562 1.58887969,7.34862187 C1.60495781,7.38471562 1.62923906,7.42179375 1.64498906,7.45887187 C1.67255156,7.519575 1.68305156,7.58290312 1.71192656,7.64196562 C1.76409844,7.75484062 1.83202031,7.86312187 1.88583281,7.97829375 C1.92094219,8.05474687 1.92914531,8.10790312 1.98525469,8.16204375 C1.99805156,8.17418437 2.02069219,8.207325 2.03906719,8.19879375 C2.04989531,8.1955125 2.05186406,8.18829375 2.05252031,8.17910625 C2.05383281,8.07377813 2.02889531,8.03637187 1.99509844,7.96254375 C1.97278594,7.91266875 1.96655156,7.8582 1.94292656,7.80668437 C1.91864531,7.75221562 1.87959844,7.70791875 1.85827031,7.64984063 C1.84580156,7.61473125 1.84252031,7.5852 1.82742656,7.55271562 C1.79067656,7.47035625 1.74802031,7.38110625 1.71619219,7.29349687 C1.69519219,7.23541875 1.69092656,7.1770125 1.66631719,7.12287187 C1.64498906,7.083825 1.61447344,7.03329375 1.60266094,7.00310625 C1.58887969,6.96373125 1.57608281,6.92566875 1.56230156,6.88629375 C1.54228594,6.84298125 1.51702031,6.79737187 1.49766094,6.75340312 C1.47469219,6.70221563 1.46911406,6.64774687 1.44909844,6.59360625 C1.42055156,6.5142 1.38544219,6.43905937 1.35558281,6.36359062 C1.33228594,6.30748125 1.32736406,6.24809063 1.30603594,6.18705937 C1.28044219,6.1165125 1.24008281,6.05974687 1.21252031,5.9905125 C1.19545781,5.94916875 1.19545781,5.907825 1.18167656,5.8645125 C1.15542656,5.78215312 1.12655156,5.6912625 1.10358281,5.61087187 C1.09275469,5.57477812 1.09505156,5.5442625 1.08323906,5.51145 C1.05436406,5.43073125 1.03434844,5.3368875 1.00416094,5.251575 C0.978239062,5.1793875 0.950676562,5.09735625 0.926395313,5.02516875 C0.912614062,4.978575 0.910317188,4.92804375 0.898176562,4.88571562 C0.884067187,4.84010625 0.863723437,4.79843437 0.847317188,4.75545 C0.821395312,4.6832625 0.818442187,4.60385625 0.792848437,4.52937188 C0.779067187,4.49360625 0.763317187,4.45980937 0.753473437,4.42240312 C0.744942187,4.3918875 0.739692188,4.36366875 0.732801562,4.33348125 C0.724598437,4.29443437 0.711145312,4.2553875 0.698676562,4.21043437 C0.690801563,4.17959062 0.687848437,4.1477625 0.681942187,4.11954375 C0.676035937,4.0887 0.657989062,4.04505938 0.641254688,3.98665312 C0.635676563,3.96302813 0.632395312,3.93973125 0.626817187,3.91610625 C0.600895312,3.834075 0.575629687,3.73005937 0.554301562,3.64737187 C0.548067187,3.6253875 0.549707813,3.6070125 0.544785937,3.587325 C0.534942187,3.54434062 0.521160938,3.50004375 0.512957812,3.45443437 C0.509676563,3.43343437 0.511645313,3.41210625 0.508035937,3.39110625 C0.493598437,3.32810625 0.462098438,3.2592 0.451598438,3.20243437 C0.439457812,3.13352812 0.432239062,3.05805937 0.420754687,2.99243437 C0.410582813,2.9350125 0.391879687,2.87299687 0.374817187,2.81590312 C0.360051563,2.75946562 0.359723437,2.705325 0.346270312,2.65348125 C0.333473437,2.61049688 0.319692187,2.56423125 0.308864062,2.51960625 C0.295410937,2.47071563 0.302957812,2.42248125 0.293442187,2.37359062 C0.283270312,2.33323125 0.273426562,2.2945125 0.262598438,2.253825 C0.253082813,2.21477813 0.261942187,2.1777 0.252098438,2.14127812 C0.216004688,2.01396562 0.197957812,1.87287187 0.161864062,1.74490312 C0.138567187,1.65893437 0.143489063,1.56345 0.119535938,1.4755125 C0.111004688,1.44598125 0.115270312,1.4217 0.106739062,1.392825 C0.102473438,1.37805938 0.0991921875,1.36329375 0.0962390625,1.3482 C0.0952546875,1.34623125 0.0952546875,1.34459063 0.0952546875,1.34262188 C0.0942703125,1.34098125 0.0942703125,1.33999688 0.0929578125,1.3377 C0.0929578125,1.33441875 0.0926296875,1.3311375 0.0919734375,1.32818438 C0.0854109375,1.29602813 0.0814734375,1.26223125 0.0791765625,1.22745 C0.0791765625,1.22646563 0.0791765625,1.22548125 0.0781921875,1.22384062 C0.0686765625,1.151325 0.0611296875,1.07355937 0.0499734375,0.997434375 C0.0453796875,0.95510625 0.0302859375,0.909496875 0.0263484375,0.864871875 C0.0165046875,0.784153125 0.0247078125,0.70704375 0.0148640625,0.627309375 C0.0092859375,0.58498125 -0.0035109375,0.495075 0.0010828125,0.42616875 C0.0027234375,0.396965625 -0.0012140625,0.3612 0.0289734375,0.3612 C0.0588328125,0.3612 0.0601453125,0.403528125 0.0634265625,0.427809375 C0.0699890625,0.46685625 0.0670359375,0.507871875 0.0716296875,0.553809375 C0.0798328125,0.622059375 0.0952546875,0.680465625 0.104770312,0.747075 C0.110020313,0.790715625 0.117239062,0.83435625 0.118551562,0.8757 C0.126426562,0.93804375 0.134301562,1.00268437 0.142832812,1.06765312 C0.150379687,1.119825 0.183192187,1.2550125 0.194676562,1.3206375 C0.195660937,1.32523125 0.196973437,1.32949688 0.197957812,1.33343438 C0.205504688,1.3862625 0.206489062,1.44040313 0.212723437,1.49684062 C0.218301562,1.5306375 0.233067188,1.56574688 0.243567188,1.59987187 C0.253082813,1.6330125 0.255379687,1.67074687 0.260629687,1.70224688 C0.265879687,1.74916875 0.266864062,1.7957625 0.275067188,1.84235625 C0.303942187,1.97196562 0.353817187,2.12979375 0.385645313,2.25874688 C0.391879687,2.29024687 0.394176562,2.32273125 0.398114063,2.35455938 C0.401395312,2.37359062 0.398114063,2.3916375 0.401395312,2.41493438 C0.411239062,2.463825 0.427973437,2.51140312 0.439457812,2.56095 C0.448645313,2.60065313 0.448645313,2.64199687 0.457176562,2.68399687 C0.473582812,2.75684063 0.502457812,2.84346562 0.524442187,2.9140125 C0.533301562,2.94321562 0.530020312,2.96684063 0.537239062,2.99341875 C0.564801562,3.083325 0.591379687,3.19259062 0.620910937,3.28577812 C0.629770312,3.3208875 0.631410937,3.35895 0.641254688,3.39504375 C0.658973437,3.4521375 0.679317187,3.51284063 0.697364062,3.57190312 C0.704910937,3.6017625 0.703270313,3.62768437 0.710160937,3.65787187 C0.726895312,3.7212 0.736739063,3.79141875 0.753473437,3.85474687 C0.758723438,3.87968437 0.758723438,3.90166875 0.764301562,3.92430937 C0.786285938,3.9955125 0.813520312,4.054575 0.835176562,4.12774687 C0.849285938,4.18287187 0.854207812,4.24127813 0.868645312,4.2973875 C0.880785938,4.33446562 0.906051562,4.36629375 0.922129687,4.40140312 C0.933614062,4.42765312 0.933614062,4.4548875 0.944442187,4.48409062 C0.965442187,4.54184062 0.986770312,4.5992625 1.00678594,4.65668437 C1.01531719,4.68424687 1.01761406,4.71180937 1.02614531,4.74068437 C1.04222344,4.78498125 1.06223906,4.82960625 1.07470781,4.87685625 C1.08848906,4.92705937 1.07208281,4.97824687 1.08914531,5.01959063 C1.10555156,5.05962188 1.13541094,5.09145 1.15214531,5.12984062 C1.17347344,5.17610625 1.17019219,5.23779375 1.18725469,5.28668437 C1.21383281,5.35821562 1.25616094,5.41990312 1.28142656,5.48946562 C1.29192656,5.51965313 1.29520781,5.55180938 1.30472344,5.58265312 C1.31653594,5.6151375 1.33130156,5.6532 1.34180156,5.68962187 C1.36116094,5.75623125 1.36542656,5.81398125 1.39069219,5.87271562 C1.40873906,5.91209062 1.43630156,5.94621562 1.45303594,5.98624687 C1.46681719,6.023325 1.47239531,6.0613875 1.48519219,6.09879375 C1.50619219,6.1558875 1.54031719,6.2057625 1.56361406,6.25891875 C1.58166094,6.3002625 1.58592656,6.34193438 1.60495781,6.38229375 C1.62727031,6.43249687 1.66008281,6.47777812 1.68042656,6.53224687 C1.71291094,6.62379375 1.72045781,6.71993437 1.75852031,6.80491875 C1.84252031,6.9906375 1.94095781,7.16946562 2.02659844,7.35518437 C2.04759844,7.40046562 2.05087969,7.45460625 2.07187969,7.50185625 C2.10173906,7.566825 2.14177031,7.6232625 2.17425469,7.68593437 C2.18442656,7.70595 2.18869219,7.72498125 2.19591094,7.74499687 C2.20969219,7.77387187 2.22773906,7.80471563 2.24283281,7.83227812 C2.29566094,7.92809062 2.30747344,8.0682 2.38261406,8.1417 C2.40492656,8.1640125 2.44528594,8.19780938 2.46398906,8.1928875 C2.46858281,8.19059062 2.47055156,8.1850125 2.47120781,8.18205937 C2.47941094,8.15646562 2.45775469,8.08854375 2.44987969,8.07279375 C2.42100469,8.01045 2.38031719,7.94580937 2.35078594,7.88280937 C2.33536406,7.850325 2.33109844,7.81718437 2.31797344,7.78240312 C2.29467656,7.72793437 2.26612969,7.67937187 2.24217656,7.629825 C2.21231719,7.56485625 2.19919219,7.49595 2.16933281,7.43229375 C2.11486406,7.31712187 2.04989531,7.1980125 1.99739531,7.07923125 C1.98656719,7.05396562 1.98427031,7.02968437 1.97475469,7.00310625 C1.95769219,6.95848125 1.93800469,6.9118875 1.92094219,6.86923125 C1.90256719,6.82559063 1.89862969,6.78260625 1.87959844,6.74027812 C1.85958281,6.69335625 1.82972344,6.64774687 1.80839531,6.60345 C1.78411406,6.55160625 1.76311406,6.49648125 1.74277031,6.44299687 C1.73325469,6.4105125 1.72997344,6.3816375 1.72045781,6.34685625 C1.69289531,6.27204375 1.65155156,6.20805938 1.62923906,6.12996562 C1.62398906,6.10437188 1.61873906,6.07910625 1.61348906,6.05318437 C1.59445781,5.99248125 1.57936406,5.93440312 1.55737969,5.87337187 C1.53802031,5.82087187 1.50094219,5.781825 1.48289531,5.73096562 C1.46583281,5.68305938 1.47239531,5.62465312 1.45434844,5.58035625 C1.43334844,5.529825 1.40578594,5.47896562 1.38544219,5.42384063 C1.36444219,5.35854375 1.36444219,5.29718437 1.34278594,5.2345125 C1.32080156,5.17512187 1.28470781,5.125575 1.26337969,5.0638875 C1.24467656,5.01040312 1.23483281,4.93624687 1.22006719,4.88177812 C1.21153594,4.84765312 1.22105156,4.81484062 1.21055156,4.78498125 C1.19775469,4.75741875 1.18298906,4.73445 1.17117656,4.70130938 C1.15411406,4.6517625 1.15641094,4.60484062 1.14361406,4.55791875 C1.11277031,4.47391875 1.08192656,4.37252812 1.05764531,4.28262187 C1.04616094,4.24029375 1.05272344,4.1976375 1.03992656,4.159575 C1.02548906,4.11790312 1.00678594,4.07360625 0.995301563,4.02898125 C0.985785938,3.99059062 0.985785938,3.95187187 0.978239062,3.91249687 C0.970364063,3.88230937 0.954942187,3.85409062 0.944770312,3.82291875 C0.937879687,3.7947 0.940832813,3.76779375 0.935910937,3.74023125 C0.928692187,3.7041375 0.912614062,3.66837187 0.905067187,3.63359062 C0.899817188,3.60241875 0.901129687,3.57124687 0.894567187,3.54040312 C0.886035937,3.5046375 0.862739063,3.47477813 0.851910937,3.44065312 C0.842723437,3.40259062 0.838785938,3.3602625 0.827629687,3.3208875 C0.815160937,3.27855937 0.789567187,3.2382 0.776770313,3.193575 C0.756754688,3.11941875 0.745598437,3.04296562 0.729192188,2.967825 C0.722957812,2.93271563 0.722957812,2.899575 0.715739063,2.86545 C0.707535937,2.820825 0.690801563,2.778825 0.681614062,2.73190312 C0.676035937,2.70237187 0.678332812,2.679075 0.671770313,2.642325 C0.660614062,2.59310625 0.639614062,2.54848125 0.629770312,2.4966375 C0.623207813,2.46284063 0.625176563,2.44315312 0.619926562,2.40968437 C0.614676563,2.3758875 0.592692188,2.27154375 0.588426562,2.24430938 C0.582848437,2.21805937 0.583832812,2.20493437 0.579567187,2.17999687 C0.575629687,2.15473125 0.546754687,2.05695 0.543801562,2.03660625 C0.541504687,2.01691875 0.545770312,2.00445 0.542160938,1.9768875 C0.539207813,1.949325 0.529364062,1.9007625 0.521160938,1.85745 C0.513942187,1.81380937 0.514926562,1.7458875 0.510660938,1.72160625 C0.505739062,1.69634063 0.467020312,1.62087187 0.451598438,1.56443438 C0.440114063,1.52473125 0.448317187,1.48666875 0.437817187,1.44466875 C0.424035937,1.3941375 0.411895312,1.34098125 0.398114063,1.29209063 C0.390895312,1.25730937 0.398114063,1.21596563 0.391879687,1.1788875 C0.376785937,1.12146563 0.356114062,1.05879375 0.368910937,0.9925125 C0.380395312,0.9295125 0.352832812,0.8717625 0.339051563,0.8297625 C0.333473437,0.810075 0.330520312,0.787434375 0.329864062,0.765778125 C0.328551563,0.7483875 0.330520312,0.72804375 0.329864062,0.708684375 C0.327567188,0.68473125 0.324285937,0.678825 0.317723437,0.65060625 C0.311489062,0.622059375 0.310504687,0.616809375 0.310504687,0.599746875 C0.310504687,0.56791875 0.310504687,0.5436375 0.311489062,0.521653125 C0.312473437,0.50491875 0.304926562,0.473090625 0.300004687,0.44979375 C0.295410937,0.435684375 0.290160937,0.403528125 0.287864062,0.390403125 C0.283270312,0.3572625 0.281629688,0.349715625 0.279660937,0.314278125 C0.279004687,0.29229375 0.278348437,0.227653125 0.271129687,0.201075 C0.259645312,0.15316875 0.254067188,0.114121875 0.242582813,0.064575 C0.232739062,0.02323125 0.240942187,0.004528125 0.264567188,0.0002625 C0.296723437,-0.004003125 0.312473437,0.055059375 0.328551563,0.1183875 C0.333473437,0.14004375 0.331504687,0.1682625 0.338067188,0.1918875 C0.347254687,0.231590625 0.361364062,0.300825 0.365629688,0.3651375 C0.368910937,0.4123875 0.382692187,0.46685625 0.383676562,0.499996875 C0.384989062,0.52329375 0.386629688,0.587278125 0.389254687,0.617465625 C0.391879687,0.6381375 0.402707812,0.6827625 0.411895312,0.71623125 C0.426989062,0.754621875 0.440770312,0.793996875 0.452910937,0.83435625 C0.469317187,0.88816875 0.456520312,0.949528125 0.471614063,1.00695 C0.485395312,1.05485625 0.504426562,1.12146563 0.510660938,1.15034063 C0.516567187,1.1788875 0.516567187,1.23696562 0.520832812,1.26616875 C0.525098437,1.29537187 0.551020312,1.39512187 0.560864062,1.43941875 C0.569067187,1.48404375 0.569067187,1.50930937 0.573332812,1.53293437 C0.577270312,1.55524687 0.608114062,1.6422 0.610410937,1.65893437 C0.615989062,1.68354375 0.614676563,1.75146562 0.621895312,1.78821563 C0.628457812,1.82529375 0.687848437,2.02741875 0.694739063,2.06121562 C0.701629687,2.0950125 0.700317187,2.148825 0.709176562,2.19443438 C0.717379687,2.2393875 0.731160937,2.26530937 0.741660937,2.30074688 C0.760035937,2.358825 0.761020312,2.4231375 0.775457812,2.47760625 C0.789567187,2.53174687 0.785301563,2.58293438 0.800723438,2.63346562 C0.830910937,2.72862188 0.864707812,2.8483875 0.887348438,2.93927812 C0.898176562,2.98062188 0.898832813,3.01999687 0.908348438,3.062325 C0.933614062,3.14271563 0.963473437,3.22343437 0.986770312,3.30612187 C1.02089531,3.4206375 1.02286406,3.54991875 1.05928594,3.66443437 C1.09078594,3.7671375 1.12261406,3.8773875 1.15214531,3.9771375 C1.16198906,4.01848125 1.16362969,4.0611375 1.17347344,4.10346563 C1.19119219,4.15793437 1.21711406,4.20616875 1.23581719,4.25702813 C1.24631719,4.29640312 1.24959844,4.33840312 1.26239531,4.37712188 C1.28044219,4.4247 1.30275469,4.47227812 1.31752031,4.51985625 C1.32900469,4.5612 1.33359844,4.60254375 1.34508281,4.64290312 C1.36312969,4.69605937 1.38117656,4.75643437 1.40119219,4.80959063 C1.41070781,4.83912187 1.41300469,4.87193437 1.42350469,4.90277812 C1.43728594,4.94018437 1.45533281,4.978575 1.47009844,5.01302812 C1.48059844,5.0350125 1.48617656,5.05962188 1.49339531,5.08291875 C1.50619219,5.1137625 1.52194219,5.14821562 1.53375469,5.1793875 C1.54031719,5.20268437 1.54458281,5.22598125 1.55278594,5.24960625 C1.57116094,5.29095 1.59445781,5.33229375 1.61348906,5.37265312 C1.63120781,5.41268437 1.64400469,5.45566875 1.65680156,5.49865312 C1.66861406,5.5363875 1.66631719,5.56755937 1.68042656,5.5993875 C1.69912969,5.63121562 1.72045781,5.66205937 1.73555156,5.69585625 C1.74802031,5.72440312 1.75195781,5.7542625 1.76311406,5.78215312 C1.77689531,5.81365312 1.80216094,5.83793438 1.81594219,5.86910625 C1.83300469,5.90684062 1.82644219,5.95671562 1.84022344,5.99904375 C1.85072344,6.02824687 1.86877031,6.05843438 1.88058281,6.08566875 C1.90092656,6.13029375 1.91339531,6.180825 1.93144219,6.22512188 C1.93800469,6.2451375 1.94292656,6.26515313 1.95047344,6.28516875 C1.97377031,6.338325 2.00461406,6.3882 2.03480156,6.4315125 C2.05252031,6.45841875 2.08336406,6.50041875 2.10994219,6.49648125 C2.12175469,6.49090312 2.12273906,6.44529375 2.11748906,6.4262625 C2.09944219,6.35965312 2.09780156,6.28746562 2.07417656,6.22971562 C2.05711406,6.1887 2.04267656,6.14637187 2.02397344,6.10666875 C2.01281719,6.0850125 1.99509844,6.0613875 1.98525469,6.03940312 C1.97278594,6.00527812 1.95998906,5.970825 1.94850469,5.9367 C1.93472344,5.907825 1.91339531,5.8776375 1.90191094,5.8461375 C1.89108281,5.80545 1.89108281,5.76312187 1.87730156,5.72341875 C1.86352031,5.68404375 1.83923906,5.64991875 1.82644219,5.60693438 C1.81364531,5.56559062 1.82217656,5.51243437 1.80544219,5.47404375 C1.78739531,5.4392625 1.75852031,5.39693437 1.74933281,5.37035625 C1.73850469,5.34049687 1.73325469,5.31293438 1.72570781,5.28373125 C1.71291094,5.24829375 1.69519219,5.21023125 1.68239531,5.1741375 C1.66336406,5.1177 1.66106719,5.062575 1.64006719,5.00745 C1.61545781,4.94084062 1.58887969,4.86668438 1.56361406,4.8040125 C1.54950469,4.76923125 1.54950469,4.73116875 1.53605156,4.69441875 C1.51702031,4.65012187 1.49339531,4.605825 1.47862969,4.5612 C1.46812969,4.52445 1.46287969,4.48605937 1.45434844,4.44766875 C1.44909844,4.42666875 1.43334844,4.40468437 1.42547344,4.38466875 C1.41398906,4.35087187 1.41727031,4.31543437 1.40677031,4.27835625 C1.39791094,4.25505938 1.38544219,4.2265125 1.38019219,4.20190312 C1.37494219,4.17073125 1.37166094,4.13955937 1.36312969,4.10871562 C1.34278594,4.044075 1.31850469,3.98041875 1.30045781,3.91545 C1.29323906,3.88723125 1.29323906,3.860325 1.28766094,3.83177812 C1.27387969,3.76943437 1.25845781,3.70216875 1.24139531,3.63916875 C1.23253594,3.60930938 1.23384844,3.5807625 1.22859844,3.5532 C1.17347344,3.3760125 1.13541094,3.18537187 1.08323906,3.0072 C1.07602031,2.97734062 1.07470781,2.94649687 1.06748906,2.91729375 C1.00416094,2.71385625 0.987754687,2.46185625 0.933614062,2.24955937 C0.925410937,2.211825 0.931645312,2.148825 0.925410937,2.10649688 C0.918848438,2.06745 0.899817188,2.03234063 0.888332813,1.99624688 C0.876848438,1.96212187 0.885051562,1.92734062 0.874551562,1.88993437 C0.862739063,1.84662188 0.849942187,1.80265313 0.839442187,1.7563875 C0.830910937,1.70290312 0.832223437,1.63793437 0.824348437,1.58805938 C0.817785938,1.550325 0.790879687,1.50537187 0.783660937,1.47124687 C0.779067187,1.43745 0.782020312,1.39971563 0.776770313,1.37149688 C0.764301562,1.30259063 0.757739063,1.19660625 0.735426562,1.12146563 C0.724926562,1.08865312 0.731160937,1.0581375 0.721645312,1.02171562 C0.711145312,0.977746875 0.705895312,0.93279375 0.703270313,0.878653125 C0.702614062,0.845840625 0.697364062,0.82254375 0.722957812,0.8140125 C0.743957812,0.810075 0.762004687,0.8402625 0.773817187,0.8796375 C0.779067187,0.90195 0.779723438,0.92098125 0.785301563,0.946246875 C0.801379687,0.994153125 0.817129687,1.04205938 0.830582812,1.0962 C0.843051562,1.14377812 0.825660937,1.20087187 0.838785938,1.24549688 C0.909332812,1.47780937 0.936895312,1.74916875 1.00055156,1.99066875 C1.00908281,2.02545 1.01531719,2.06285625 1.02384844,2.09993437 C1.05994219,2.23052813 1.06945781,2.37293438 1.10883281,2.4966375 C1.11933281,2.53404375 1.11834844,2.58752812 1.12983281,2.62952812 C1.15969219,2.72862188 1.17741094,2.83690313 1.21055156,2.93829375 C1.22302031,2.97405937 1.24139531,3.01048125 1.24959844,3.0452625 C1.25714531,3.0793875 1.26239531,3.11416875 1.27092656,3.14796562 C1.28602031,3.19915312 1.30702031,3.2487 1.32178594,3.29759062 C1.33031719,3.32810625 1.33031719,3.36748125 1.33884844,3.3970125 C1.35984844,3.47477813 1.37264531,3.5518875 1.39692656,3.63030937 C1.45041094,3.80027812 1.50422344,3.98041875 1.56131719,4.15005937 C1.57214531,4.175325 1.57312969,4.26949687 1.58264531,4.30985625 C1.59970781,4.364325 1.62300469,4.41715313 1.64203594,4.47227812 C1.65384844,4.52280937 1.66336406,4.58449687 1.67714531,4.62255937 C1.68862969,4.65340313 1.70667656,4.6885125 1.72045781,4.71935625 C1.73752031,4.75971562 1.74145781,4.79909062 1.75753594,4.84240312 C1.77558281,4.89391875 1.80117656,4.94609062 1.82217656,4.99530937 C1.85203594,5.05962188 1.86056719,5.12754375 1.88878594,5.19218437 C1.90814531,5.2345125 1.93144219,5.2817625 1.94719219,5.32573125 C1.95900469,5.36084062 1.96983281,5.44877812 1.98230156,5.48880937 C2.00461406,5.54623125 2.02987969,5.60693438 2.05153594,5.6650125 C2.06466094,5.7017625 2.06859844,5.73490312 2.08500469,5.76804375 C2.10797344,5.81759062 2.14045781,5.86910625 2.16309844,5.92160625 C2.19066094,5.98099687 2.19919219,6.04366875 2.22577031,6.10502812 C2.27170781,6.21002813 2.33109844,6.31929375 2.38622344,6.4183875 C2.41214531,6.464325 2.42428594,6.51846562 2.44856719,6.56834062 C2.46234844,6.5968875 2.48761406,6.62346562 2.50073906,6.65135625 C2.53059844,6.71041875 2.54733281,6.77505937 2.57719219,6.83445 C2.58966094,6.86168437 2.61361406,6.8908875 2.62641094,6.91845 C2.65102031,6.97127812 2.65200469,7.03591875 2.67530156,7.0877625 C2.69531719,7.13140312 2.72616094,7.173075 2.74617656,7.215075 C2.76783281,7.26068438 2.78062969,7.31055937 2.80655156,7.35124687 C2.82295781,7.37618437 2.84395781,7.40046562 2.85937969,7.425075 C2.88825469,7.4683875 2.91581719,7.56091875 2.95486406,7.62490312 C2.95486406,7.62654375 2.95617656,7.62687187 2.95617656,7.6285125 C2.96700469,7.64590312 2.99555156,7.68265313 3.00506719,7.70266875 C3.01392656,7.7230125 3.01392656,7.71809062 3.02705156,7.74630937 C3.03591094,7.76337187 3.04411406,7.78535625 3.05133281,7.80504375 C3.05789531,7.82899687 3.06839531,7.8516375 3.07397344,7.86312187 C3.10547344,7.9198875 3.14911406,7.97009062 3.17667656,8.02980937 C3.21178594,8.10691875 3.21900469,8.25391875 3.32400469,8.25391875 C3.34894219,8.24965312 3.33877031,8.14859062 3.31875469,8.10790312 C3.29381719,8.0537625 3.24886406,8.013075 3.22458281,7.96024687 C3.19898906,7.90741875 3.19570781,7.83884062 3.16486406,7.79093437 C3.15961406,7.78240312 3.15403594,7.7755125 3.14780156,7.76895 C3.13402031,7.75287188 3.11859844,7.73449687 3.11203594,7.72727812 C3.10317656,7.71415312 3.08119219,7.67740312 3.07331719,7.6573875 C3.06905156,7.64459062 3.06412969,7.62654375 3.06052031,7.61145 C3.05887969,7.60423125 3.05691094,7.59734062 3.05461406,7.59241875 C3.05362969,7.58946562 3.05264531,7.58848125 3.05264531,7.58848125 C3.03656719,7.55304375 3.00998906,7.52055938 2.99456719,7.48545 C2.98078594,7.45493437 2.97520781,7.42704375 2.96241094,7.39587187 C2.93156719,7.32105937 2.89022344,7.25641875 2.85773906,7.18587187 C2.83739531,7.14059062 2.83509844,7.08874688 2.81048906,7.0483875 C2.78456719,7.00605937 2.74519219,6.96799687 2.72189531,6.9223875 C2.70056719,6.87645 2.69630156,6.8187 2.67464531,6.77243437 C2.66152031,6.7452 2.63822344,6.71927812 2.62444219,6.69237187 C2.60737969,6.65627813 2.59458281,6.61624688 2.58145781,6.57916875 C2.55225469,6.50140312 2.51747344,6.44365312 2.49056719,6.36916875 C2.46727031,6.30616875 2.45906719,6.24284062 2.43150469,6.18246562 C2.41017656,6.13587188 2.37834844,6.091575 2.36030156,6.03940312 C2.34652031,5.98854375 2.33175469,5.93735625 2.31830156,5.88616875 C2.23364531,5.65549687 2.14734844,5.42318437 2.06137969,5.1898875 C2.04005156,5.13148125 2.03381719,5.07340312 2.01281719,5.0140125 C1.97377031,4.90605937 1.93669219,4.7882625 1.89862969,4.68096562 C1.88156719,4.62715313 1.87336406,4.5717 1.85958281,4.5178875 C1.85203594,4.49065312 1.85630156,4.46899687 1.84744219,4.44471562 C1.82742656,4.39123125 1.79789531,4.33873125 1.77886406,4.28459062 C1.75031719,4.20518438 1.73227031,4.1267625 1.70798906,4.04834062 C1.69683281,4.01848125 1.69814531,3.9942 1.68633281,3.96499688 C1.67386406,3.92627812 1.64728594,3.89445 1.64006719,3.84818437 C1.63448906,3.8012625 1.63120781,3.75237187 1.62202031,3.70577812 C1.59314531,3.59552812 1.58494219,3.47477813 1.54359844,3.37273125 C1.49897344,3.26149687 1.47469219,3.11416875 1.44056719,2.9901375 C1.43105156,2.94748125 1.43728594,2.89104375 1.43006719,2.85429375 C1.40677031,2.77784062 1.37920781,2.68530937 1.35492656,2.60787187 C1.34737969,2.584575 1.34508281,2.5570125 1.34180156,2.5347 C1.33983281,2.50812187 1.33983281,2.47760625 1.33556719,2.45529375 C1.32605156,2.40640313 1.30472344,2.35455938 1.29750469,2.29516875 C1.29520781,2.27285625 1.28995781,2.24660625 1.31358281,2.24102812 C1.33556719,2.23512187 1.35164531,2.26005937 1.35984844,2.28368437 C1.41300469,2.4047625 1.43203594,2.56423125 1.47469219,2.694825 C1.48289531,2.7276375 1.48617656,2.76898125 1.49437969,2.79884063 C1.52325469,2.88973125 1.54753594,2.9953875 1.57739531,3.08759062 C1.58691094,3.11745 1.58592656,3.14173125 1.59741094,3.17027812 C1.60364531,3.19029375 1.61545781,3.21621562 1.62300469,3.23721562 C1.63252031,3.2762625 1.63448906,3.33040312 1.64302031,3.3602625 C1.68239531,3.4862625 1.72373906,3.61160625 1.76311406,3.73629375 C1.77230156,3.78190312 1.77952031,3.83177812 1.79067656,3.86590312 C1.80544219,3.90954375 1.82217656,3.95285625 1.83792656,3.99616875 C1.85400469,4.04177812 1.85630156,4.08410625 1.87205156,4.12873125 C1.92520781,4.27605937 1.96753594,4.43093437 2.02167656,4.5782625 C2.05547344,4.67604375 2.06859844,4.77349688 2.10370781,4.868325 C2.12602031,4.92902812 2.15719219,4.98218437 2.18278594,5.03829375 C2.23200469,5.14854375 2.24906719,5.27749687 2.29795781,5.38774688 C2.31895781,5.43040312 2.33995781,5.472075 2.36128594,5.51440312 C2.38359844,5.56329375 2.38884844,5.61316875 2.41017656,5.66140312 C2.46530156,5.78609062 2.52370781,5.91635625 2.57981719,6.04104375 C2.60409844,6.09649687 2.61295781,6.15391875 2.63822344,6.20805938 C2.65495781,6.243825 2.68153594,6.28024687 2.69859844,6.31830937 C2.72714531,6.37966875 2.74256719,6.44299687 2.77177031,6.5037 C2.79342656,6.55029375 2.83116094,6.58868437 2.85216094,6.63429375 C2.89252031,6.71927812 2.91450469,6.81016875 2.95453594,6.89384062 C2.99292656,6.97587187 3.05034844,7.0457625 3.08873906,7.12812187 C3.10777031,7.16815312 3.11630156,7.20785625 3.13631719,7.24821562 C3.15009844,7.27905937 3.17339531,7.31384062 3.18914531,7.34468437 C3.22228594,7.40702812 3.23705156,7.47691875 3.26920781,7.54418437 C3.29742656,7.60423125 3.35320781,7.64229375 3.38109844,7.70102812 C3.39816094,7.74171563 3.40767656,7.79027812 3.42539531,7.83096562 C3.44902031,7.88084063 3.48741094,7.9198875 3.51562969,7.9645125 C3.54778594,8.01241875 3.59077031,8.10691875 3.61603594,8.15974687 C3.65869219,8.25096562 3.69511406,8.29559062 3.75023906,8.37499687 C3.80241094,8.44980937 3.83062969,8.54234062 3.88739531,8.61255937 C3.90839531,8.63684062 3.98025469,8.70574687 4.00584844,8.69754375 C4.01634844,8.69098125 3.98878594,8.57285625 3.96811406,8.53610625 C3.94711406,8.49902813 3.91462969,8.46916875 3.89133281,8.43668437 C3.86902031,8.4028875 3.85327031,8.3622 3.83719219,8.32249687 C3.81783281,8.26999688 3.78600469,8.21487188 3.75778594,8.17024688 C3.72628594,8.12168437 3.70364531,8.081325 3.67181719,8.03243437 C3.65081719,8.00093437 3.64523906,7.965825 3.62817656,7.92874687 C3.60619219,7.88084063 3.57961406,7.82998125 3.55303594,7.78240312 C3.53170781,7.74335625 3.49791094,7.71021562 3.47986406,7.67215312 C3.45886406,7.62523125 3.43622344,7.5786375 3.41522344,7.53204375 C3.38011406,7.4683875 3.33680156,7.41129375 3.30234844,7.34862187 C3.26789531,7.28496562 3.25805156,7.20785625 3.23180156,7.13566875 C3.20292656,7.0562625 3.16158281,6.98177812 3.12811406,6.90565312 C3.10481719,6.85348125 3.09595781,6.79934063 3.07266094,6.7491375 C3.05133281,6.70385625 3.01753594,6.66579375 2.99227031,6.62543437 C2.95716094,6.57260625 2.94337969,6.50895 2.91581719,6.448575 C2.89908281,6.41215313 2.87152031,6.37441875 2.85872344,6.33537187 C2.84887969,6.30321562 2.84067656,6.2713875 2.83181719,6.238575 C2.81869219,6.20248125 2.80031719,6.16441875 2.78883281,6.1257 C2.77800469,6.091575 2.78128594,6.05843438 2.76783281,6.02890312 C2.74748906,5.98427812 2.70286406,5.95540312 2.68055156,5.9091375 C2.63822344,5.81430937 2.63395781,5.69355937 2.59687969,5.59315312 C2.56012969,5.49012187 2.51091094,5.39004375 2.47383281,5.28668437 C2.44725469,5.21384062 2.42855156,5.136075 2.40328594,5.06323125 C2.39212969,5.03205937 2.39016094,5.00023125 2.37966094,4.97004375 C2.34881719,4.88571562 2.30944219,4.80302812 2.27761406,4.7173875 C2.25825469,4.66423125 2.25956719,4.60746563 2.24217656,4.5507 C2.22905156,4.5073875 2.20805156,4.46604375 2.19098906,4.427325 C2.17491094,4.39090312 2.17162969,4.35284062 2.15719219,4.31412187 C2.14045781,4.26785625 2.12306719,4.22093437 2.10666094,4.17434062 C2.09320781,4.13496563 2.09123906,4.08312188 2.07745781,4.0375125 C2.04694219,3.949575 2.01741094,3.84621562 1.98853594,3.75434062 C1.97934844,3.72185625 1.98427031,3.68084063 1.97475469,3.6385125 C1.96228594,3.5965125 1.94719219,3.55516875 1.93669219,3.51185625 C1.93012969,3.48134062 1.93144219,3.45016875 1.92389531,3.42195 C1.91142656,3.37830937 1.90256719,3.32810625 1.88583281,3.282825 C1.87008281,3.23918437 1.85072344,3.18930937 1.84678594,3.13516875 C1.84580156,3.11745 1.84448906,3.0898875 1.86548906,3.083325 C1.88583281,3.07840312 1.89764531,3.09612187 1.90486406,3.11515312 C1.90912969,3.12795 1.91339531,3.14074688 1.91864531,3.15321562 C1.94522344,3.2211375 1.95605156,3.29955937 1.98230156,3.37273125 C1.99641094,3.41079375 2.01281719,3.45443437 2.02561406,3.49577812 C2.04333281,3.55155937 2.04267656,3.60602812 2.06137969,3.65918438 C2.08008281,3.70873125 2.09944219,3.76516875 2.11748906,3.81602812 C2.13258281,3.85934062 2.13553594,3.90166875 2.15128594,3.94530937 C2.17884844,4.02077812 2.21198906,4.10248125 2.23856719,4.17860625 C2.25825469,4.23045 2.25234844,4.29771562 2.27170781,4.3512 C2.28286406,4.38105938 2.30189531,4.4102625 2.31469219,4.43848125 C2.33930156,4.49229375 2.35373906,4.55299687 2.37736406,4.60484062 C2.38458281,4.6228875 2.38687969,4.64290312 2.39212969,4.66095 C2.41214531,4.716075 2.43773906,4.77349688 2.45775469,4.8276375 C2.47120781,4.86471562 2.47481719,4.89785625 2.48827031,4.93460625 C2.51714531,5.0140125 2.55652031,5.0901375 2.58539531,5.17118437 C2.59589531,5.20366875 2.59852031,5.2397625 2.60967656,5.27060625 C2.67727031,5.45829375 2.76848906,5.64237187 2.84789531,5.82021562 C2.87808281,5.88879375 2.88103594,5.96918437 2.91187969,6.033825 C2.93156719,6.07615312 2.96569219,6.11159062 2.98472344,6.15391875 C3.02803594,6.24448125 3.05264531,6.33930937 3.09431719,6.43052812 C3.11564531,6.4761375 3.14780156,6.51846562 3.16945781,6.564075 C3.18520781,6.5968875 3.19242656,6.63035625 3.21178594,6.66087187 C3.22228594,6.67695 3.23869219,6.69565312 3.24722344,6.7137 C3.27412969,6.77177812 3.28889531,6.83116875 3.31645781,6.8908875 C3.35353594,6.97029375 3.40669219,7.05396562 3.45459844,7.12680937 C3.47592656,7.16093437 3.48642656,7.19702812 3.50742656,7.23049688 C3.52777031,7.26298125 3.55434844,7.29841875 3.57108281,7.33385625 C3.61177031,7.42080938 3.65705156,7.50677812 3.69609844,7.59110625 C3.71841094,7.63737187 3.73350469,7.68495 3.76041094,7.72727812 C3.80700469,7.80012187 3.87066094,7.86804375 3.90839531,7.94777813 C3.92316094,7.97960625 3.95269219,8.03637187 3.96745781,8.06885625 C3.99600469,8.13448125 4.03964531,8.1745125 4.06622344,8.20437187 C4.08656719,8.2270125 4.14562969,8.26245 4.15645781,8.25523125 C4.16269219,8.25523125 4.13086406,8.13546562 4.12331719,8.11610625 C4.09542656,8.05179375 4.09805156,8.04227812 4.06491094,7.9960125 C4.02356719,7.94023125 4.00486406,7.88510625 3.96975469,7.82210625 C3.95695781,7.79454375 3.94645781,7.76534062 3.93037969,7.7387625 C3.89855156,7.68823125 3.86377031,7.6390125 3.83817656,7.58191875 C3.78534844,7.46116875 3.75450469,7.32630938 3.68330156,7.225575 C3.60717656,7.115325 3.55270781,6.9932625 3.49134844,6.86529375 C3.47034844,6.81968437 3.43327031,6.78162187 3.41095781,6.7347 C3.40373906,6.7137 3.39553594,6.69237187 3.38864531,6.67235625 C3.37387969,6.63921562 3.35320781,6.60443437 3.33877031,6.57162187 C3.32105156,6.53224687 3.31547344,6.49090312 3.29808281,6.45185625 C3.22753594,6.29698125 3.16158281,6.12405938 3.10153594,5.95868437 C3.09169219,5.93210625 3.09169219,5.9091375 3.08217656,5.88223125 C3.06117656,5.82677812 3.03361406,5.77427812 3.00966094,5.72210625 C2.98177031,5.65910625 2.95880156,5.59512187 2.93386406,5.53245 C2.92237969,5.50423125 2.92008281,5.47896562 2.90794219,5.45205937 C2.89350469,5.4222 2.87250469,5.39037187 2.85773906,5.35985625 C2.84428594,5.30341875 2.83017656,5.24829375 2.81508281,5.19284062 C2.78062969,5.09571563 2.74256719,5.00121562 2.70286406,4.90277812 C2.68908281,4.86898125 2.67398906,4.82993437 2.66250469,4.7935125 C2.65397344,4.75315312 2.64544219,4.71312187 2.63822344,4.67309062 C2.61295781,4.59335625 2.58506719,4.5178875 2.55750469,4.44012187 C2.53748906,4.38466875 2.53617656,4.327575 2.51747344,4.27015312 C2.50861406,4.24029375 2.49220781,4.20518438 2.48433281,4.17335625 C2.47941094,4.14677812 2.47481719,4.1202 2.46858281,4.09362187 C2.45775469,4.04177812 2.44922344,4.0257 2.43478594,3.95843437 C2.42395781,3.90954375 2.47120781,3.89248125 2.49056719,3.94104375 C2.52567656,4.0375125 2.56045781,4.1346375 2.59687969,4.23045 C2.60967656,4.26785625 2.61098906,4.30985625 2.62017656,4.3446375 C2.68777031,4.53265313 2.75372344,4.73609062 2.82591094,4.91754375 C2.84395781,4.97266875 2.86102031,5.02779375 2.87808281,5.08423125 C2.89678594,5.13115312 2.92566094,5.17840312 2.94666094,5.2266375 C2.95322344,5.24304375 2.95453594,5.25780937 2.95814531,5.27323125 C2.97848906,5.3277 2.99752031,5.38184062 3.01655156,5.43696563 C3.06216094,5.5390125 3.11991094,5.64696562 3.16650469,5.74966875 C3.18717656,5.79330937 3.19472344,5.83695 3.21178594,5.88321562 C3.24262969,5.96721562 3.27642656,6.04990313 3.31317656,6.12996562 C3.36567656,6.24185625 3.44278594,6.34816875 3.49364531,6.46005938 C3.51300469,6.50041875 3.51694219,6.5417625 3.53498906,6.58310625 C3.54975469,6.61624688 3.57305156,6.64774687 3.58814531,6.679575 C3.61669219,6.74027812 3.63703594,6.79835625 3.66459844,6.8567625 C3.68986406,6.910575 3.73055156,6.96077812 3.76008281,7.01360625 C3.79256719,7.07398125 3.81127031,7.14190312 3.84933281,7.20030938 C3.88345781,7.2531375 3.92316094,7.30399687 3.95695781,7.35715312 C4.00880156,7.4382 4.03636406,7.53630937 4.08952031,7.61702812 C4.13348906,7.68593437 4.18861406,7.74630937 4.23159844,7.81390312 C4.25817656,7.85524687 4.27359844,7.89987187 4.29952031,7.9408875 C4.35825469,8.03243437 4.41731719,8.12955937 4.47539531,8.22110625 C4.49409844,8.24965312 4.50295781,8.2795125 4.51870781,8.31134062 C4.53478594,8.3451375 4.56169219,8.38024687 4.58236406,8.41109062 C4.59319219,8.42880938 4.59844219,8.44718437 4.60992656,8.46523125 C4.63650469,8.50427812 4.67227031,8.538075 4.70016094,8.57548125 C4.75692656,8.65062187 4.79564531,8.73954375 4.85077031,8.8150125 C4.90162969,8.884575 4.96725469,8.9462625 5.01844219,9.015825 C5.04928594,9.05979375 5.07258281,9.10966875 5.10506719,9.15298125 C5.12311406,9.17562187 5.15067656,9.19334062 5.16773906,9.21696562 C5.21039531,9.27274687 5.23467656,9.34395 5.27437969,9.40334063 C5.28652031,9.4213875 5.30128594,9.44140312 5.31637969,9.45945 C5.32786406,9.47552813 5.46994219,9.61530937 5.48273906,9.63073125 C5.53720781,9.69898125 5.59102031,9.78068437 5.65336406,9.840075 C5.67764531,9.86435625 5.82595781,10.0267781 5.85909844,10.00545 C5.87156719,9.9897 5.81217656,9.90865313 5.79544219,9.8742 C5.73933281,9.76296562 5.62186406,9.63893437 5.55459844,9.55460625 C5.51161406,9.498825 5.36264531,9.30162187 5.31834844,9.24452812 C5.29144219,9.20810625 5.24911406,9.18349687 5.22187969,9.14674687 C5.18283281,9.09490312 5.15691094,9.0355125 5.11983281,8.98366875 C5.08931719,8.942325 5.04600469,8.90754375 5.01614531,8.86587187 C4.98759844,8.82879375 4.97480156,8.7808875 4.94822344,8.73954375 C4.92919219,8.7100125 4.90491094,8.68048125 4.88555156,8.6496375 C4.87144219,8.627325 4.86717656,8.60205937 4.85405156,8.57941875 C4.80286406,8.50099688 4.74150469,8.43012187 4.69589531,8.34579375 C4.66505156,8.2900125 4.65684844,8.21815312 4.62272344,8.16598125 C4.58236406,8.102325 4.52527031,8.05277812 4.48392656,7.98879375 C4.44389531,7.92645 4.42355156,7.85098125 4.38384844,7.7886375 C4.24111406,7.56584062 4.12134844,7.32598125 4.00355156,7.07496562 C3.98058281,7.02640312 3.94252031,6.98440313 3.91889531,6.93485625 C3.89658281,6.88760625 3.89002031,6.83445 3.86803594,6.784575 C3.85786406,6.7622625 3.84112969,6.73896562 3.82898906,6.71895 C3.80634844,6.679575 3.79027031,6.63921562 3.77156719,6.59852812 C3.73842656,6.52798125 3.70528594,6.45185625 3.67083281,6.37835625 C3.65081719,6.33602813 3.62325469,6.29468437 3.60323906,6.25137188 C3.56812969,6.17295 3.55106719,6.09223125 3.51497344,6.01512187 C3.49791094,5.97673125 3.45984844,5.89830937 3.44081719,5.8303875 C3.42998906,5.79495 3.43327031,5.77427812 3.44902031,5.76345 C3.46509844,5.7542625 3.48806719,5.77296563 3.49922344,5.79659062 C3.51792656,5.83465312 3.52875469,5.87698125 3.54877031,5.92291875 C3.57862969,5.98952812 3.62456719,6.04465312 3.65475469,6.10929375 C3.66952031,6.1506375 3.68395781,6.191325 3.69937969,6.23234062 C3.72694219,6.29304375 3.75548906,6.35702812 3.78534844,6.41871562 C3.81127031,6.474825 3.85097344,6.52699687 3.87755156,6.58310625 C3.92841094,6.68941875 3.97927031,6.79310625 4.04062969,6.889575 C4.05572344,6.91287187 4.06294219,6.9381375 4.07672344,6.96241875 C4.09903594,7.00212187 4.12462969,7.04445 4.14366094,7.08612187 C4.15842656,7.11795 4.16597344,7.14846563 4.18402031,7.17602812 C4.20731719,7.21179375 4.24308281,7.24034062 4.26670781,7.2767625 C4.28606719,7.30596562 4.29427031,7.34009062 4.31330156,7.36995 C4.36383281,7.45034062 4.41337969,7.5392625 4.46489531,7.61998125 C4.48130156,7.645575 4.48687969,7.67412187 4.50394219,7.7007 C4.56792656,7.7991375 4.63847344,7.90118437 4.70344219,8.00093437 C4.72903594,8.03998125 4.73559844,8.09149687 4.76119219,8.1298875 C4.79236406,8.17845 4.83370781,8.22012187 4.86553594,8.26737187 C4.88358281,8.29427812 4.89441094,8.32085625 4.91212969,8.34743437 C4.93509844,8.38352812 4.96495781,8.41830937 4.98858281,8.45440312 C5.00531719,8.48130937 5.01581719,8.50887188 5.03386406,8.53446562 C5.05814531,8.56695 5.09030156,8.59549687 5.11392656,8.62830937 C5.17233281,8.70804375 5.22319219,8.78909063 5.28225469,8.86521562 C5.29603594,8.88293437 5.31408281,8.89671562 5.33016094,8.9121375 C5.36920781,8.94954375 5.40103594,8.99515312 5.43384844,9.03945 C5.45189531,9.06077812 5.47847344,9.0801375 5.49553594,9.10277812 C5.54508281,9.1667625 5.57986406,9.2402625 5.62908281,9.30621563 C5.66287969,9.35084062 5.71537969,9.38529375 5.76262969,9.4318875 C5.82530156,9.4922625 5.97033281,9.6576375 6.04612969,9.6471375 C6.06778594,9.64615312 5.93948906,9.46404375 5.88666094,9.40104375 C5.85286406,9.3610125 5.83973906,9.33541875 5.79544219,9.294075 C5.75770781,9.2533875 5.72981719,9.19596562 5.69339531,9.14740312 C5.66812969,9.1116375 5.63334844,9.08210625 5.60677031,9.04699687 C5.55886406,8.98268437 5.51883281,8.91771562 5.47355156,8.84979375 C5.44762969,8.81074687 5.41383281,8.77235625 5.38725469,8.73330937 C5.35444219,8.68343437 5.33409844,8.62798125 5.30128594,8.5761375 C5.27437969,8.53315313 5.23566094,8.49804375 5.20809844,8.45604375 C5.17955156,8.40452812 5.15133281,8.35399687 5.12212969,8.30280938 C5.07553594,8.23095 5.01975469,8.16302812 4.97283281,8.091825 C4.94822344,8.0485125 4.92591094,8.002575 4.90097344,7.95959062 C4.86684844,7.90479375 4.82222344,7.85098125 4.78809844,7.78305937 C4.77136406,7.74959062 4.74577031,7.70168437 4.72772344,7.67937187 C4.70344219,7.64655938 4.67784844,7.57010625 4.66209844,7.540575 C4.64634844,7.5130125 4.62272344,7.47429375 4.60008281,7.440825 C4.57711406,7.4080125 4.54856719,7.3476375 4.53216094,7.32105937 C4.49672344,7.2662625 4.48523906,7.23705937 4.45144219,7.1770125 C4.43175469,7.14124687 4.43175469,7.15043437 4.41337969,7.09924687 C4.40911406,7.08415312 4.40353594,7.06249687 4.42125469,7.0497 C4.44389531,7.04116875 4.47145781,7.07004375 4.49672344,7.104825 C4.53905156,7.16093437 4.54955156,7.1901375 4.58991094,7.25149687 C4.60041094,7.26855937 4.63256719,7.31154375 4.64634844,7.33418437 C4.66111406,7.35715312 4.67489531,7.38766875 4.69687969,7.42080938 C4.71820781,7.45362188 4.73198906,7.48545 4.76283281,7.53204375 C4.79236406,7.57962187 4.81566094,7.6180125 4.84158281,7.650825 C4.86783281,7.68495 4.88358281,7.73023125 4.89112969,7.73941875 C4.93477031,7.80668437 4.96430156,7.87559062 5.00695781,7.94023125 C5.04108281,7.98780937 5.07914531,8.0367 5.11261406,8.086575 C5.12836406,8.11085625 5.13689531,8.1377625 5.15527031,8.15974687 C5.18283281,8.19780938 5.22417656,8.2270125 5.25141094,8.26737187 C5.31309844,8.36055937 5.35214531,8.46523125 5.41777031,8.55415312 C5.48175469,8.64110625 5.57559844,8.70246562 5.64155156,8.78843437 C5.68912969,8.85045 5.72752031,8.91771562 5.77411406,8.98202812 C5.79609844,9.01221562 5.82694219,9.03649687 5.85056719,9.06537188 C5.89748906,9.12673125 5.94506719,9.18809062 5.99264531,9.24945 C6.00806719,9.26815312 6.03070781,9.28521562 6.05105156,9.29965312 C6.06581719,9.3111375 6.07959844,9.33016875 6.09337969,9.34034062 C6.13472344,9.37052812 6.16458281,9.39973125 6.20592656,9.43090312 C6.24398906,9.45945 6.28795781,9.5395125 6.32011406,9.58052812 C6.34045781,9.60316875 6.36900469,9.62515312 6.39230156,9.64779375 C6.41264531,9.67043437 6.43364531,9.69241875 6.45398906,9.714075 C6.52355156,9.77674687 6.61181719,9.83909062 6.68302031,9.90898125 C6.78145781,10.0044656 6.81000469,10.0110281 6.89597344,10.1202937 C6.91303594,10.1412937 6.96914531,10.2019969 6.98916094,10.2200437 C7.01541094,10.2525281 7.09087969,10.3056844 7.10137969,10.3152 C7.14895781,10.3503094 7.15650469,10.3640906 7.20670781,10.396575 C7.26708281,10.4362781 7.36945781,10.5271687 7.41178594,10.5156844 C7.42064531,10.5133875 7.39308281,10.4402156 7.33106719,10.3617937 C7.30711406,10.3322625 7.24214531,10.2695906 7.22114531,10.2433406 C7.18702031,10.1987156 7.15158281,10.1678719 7.10630156,10.1347312 C7.03148906,10.0796062 6.99244219,10.0405594 6.93600469,9.9673875 C6.91172344,9.939825 6.86414531,9.89585625 6.84183281,9.87059062 C6.81295781,9.8335125 6.78408281,9.78560625 6.74733281,9.7587 C6.71452031,9.73310625 6.66136406,9.70652813 6.63216094,9.66912187 C6.58097344,9.60480937 6.52059844,9.5368875 6.46219219,9.46962187 C6.44086406,9.44796562 6.41887969,9.42434062 6.39787969,9.40662187 C6.36900469,9.38266875 6.33947344,9.3531375 6.31191094,9.32393437 C6.29484844,9.30687187 6.27778594,9.288825 6.26105156,9.27241875 C6.24956719,9.2612625 6.23939531,9.24748125 6.23020781,9.23468437 C6.22167656,9.2232 6.21314531,9.2113875 6.20297344,9.2008875 C6.18131719,9.1772625 6.16458281,9.15298125 6.14752031,9.1287 C6.13078594,9.10540312 6.11536406,9.08309063 6.09534844,9.06209062 C6.08583281,9.05191875 6.07566094,9.04174687 6.06680156,9.03124687 C6.03727031,9.00073125 6.00642656,8.96923125 5.97755156,8.93116875 C5.96508281,8.91410625 5.95425469,8.89540312 5.94441094,8.8780125 C5.93850469,8.86587187 5.93161406,8.85405938 5.92341094,8.84355937 C5.92144219,8.83995 5.91914531,8.83535625 5.91455156,8.82977812 C5.89748906,8.80549687 5.86828594,8.76415312 5.85056719,8.72805938 C5.83416094,8.69623125 5.83908281,8.66998125 5.85286406,8.66112187 C5.85778594,8.6575125 5.87386406,8.64898125 5.89716094,8.67391875 C5.91028594,8.68868437 5.92242656,8.70640312 5.93325469,8.72379375 C5.94506719,8.7415125 5.95753594,8.7598875 5.97262969,8.7756375 C5.99691094,8.80221562 6.01659844,8.8228875 6.03497344,8.842575 C6.06155156,8.8701375 6.08681719,8.89704375 6.12323906,8.93674687 C6.13570781,8.9502 6.15375469,8.97480937 6.17278594,9.0013875 C6.19411406,9.03059062 6.21577031,9.06077812 6.22889531,9.073575 C6.27023906,9.11393437 6.28631719,9.12968437 6.29911406,9.14149687 C6.31289531,9.1536375 6.32241094,9.162825 6.35292656,9.19399687 C6.38377031,9.22516875 6.39656719,9.2428875 6.40837969,9.25830937 C6.42216094,9.27668437 6.43364531,9.29309062 6.47006719,9.32721562 C6.53339531,9.37479375 6.60000469,9.43779375 6.64659844,9.49784062 C6.67744219,9.52966875 6.73256719,9.56346562 6.76012969,9.5946375 C6.79720781,9.63762187 6.83231719,9.66748125 6.86873906,9.71079375 C6.89695781,9.73934063 6.93830156,9.77248125 6.97472344,9.79840313 C7.03148906,9.83843438 7.08169219,9.88535625 7.13681719,9.92604375 C7.18636406,9.9621375 7.22672344,10.0103719 7.27594219,10.0464656 C7.35239531,10.1022469 7.40062969,10.1435906 7.47708281,10.1987156 C7.50661406,10.2197156 7.55747344,10.2627 7.58733281,10.2846844 C7.63491094,10.3197937 7.67887969,10.3640906 7.72711406,10.3988719 C7.77928594,10.4412 7.82784844,10.4848406 7.87805156,10.5324187 C7.90003594,10.5547312 7.93481719,10.5747469 7.95877031,10.5927938 C8.00175469,10.62495 8.04834844,10.6636687 8.09822344,10.6938562 C8.14809844,10.7243719 8.17861406,10.7424187 8.21995781,10.7716219 C8.28787969,10.8188719 8.33152031,10.8566063 8.39911406,10.9009031 C8.43225469,10.9225594 8.49787969,10.9586531 8.53495781,10.9809656 C8.59533281,11.0177156 8.61764531,11.0275594 8.66325469,11.0607 C8.73642656,11.1135281 8.78564531,11.1506063 8.86373906,11.1985125 C8.91656719,11.2309969 8.98777031,11.2651219 9.03961406,11.29695 C9.09112969,11.3287781 9.13083281,11.3606062 9.18891094,11.3858719 C9.23681719,11.4058875 9.29916094,11.4432938 9.34116094,11.4685594 C9.41072344,11.5112156 9.46584844,11.5420594 9.53639531,11.5850438 C9.57183281,11.6053875 9.91406719,11.7858562 9.91406719,11.7858562 C10.7612859,12.2429344 11.7325359,12.6422625 12.7346297,12.990075 C13.8075984,13.3621687 14.7000984,13.4871844 15.3957234,13.5511687 Z" id="Fill-1" fill="#4C4C4C"></path>
                <path d="M54.4551328,17.4786281 L53.2942266,19.6472063 C52.8870234,20.3687531 52.6845703,20.6814563 52.2950859,20.6814563 L52.2950859,20.7841594 L53.2728984,20.7841594 C53.5107891,20.7841594 54.1726172,20.7533156 54.6031172,19.9786125 L55.7663203,17.8070813 C56.1725391,17.0858625 56.3707266,16.7715188 56.7687422,16.7715188 L56.7687422,16.6701281 L55.7850234,16.6701281 C55.5517266,16.6701281 54.8839922,16.7013 54.4551328,17.4786281" id="Fill-3" fill="#4C4C4C"></path>
                <mask id="mask-2" fill="white">
                    <use xlink:href="#path-1"></use>
                </mask>
                <g id="Clip-6"></g>
                <path d="M59.0828438,13.0311891 L60.6657188,13.0311891 L60.6657188,11.9326266 L59.0828438,11.9326266 L59.0828438,13.0311891 Z M62.4326719,14.5274391 L62.3480156,14.4457359 C61.9801875,14.0615016 61.73475,13.8531422 61.427625,13.7707828 L62.0595938,13.7707828 C62.6160938,13.7707828 63.0652969,14.0267203 63.0652969,14.3456578 L63.1305938,14.3456578 L63.1305938,13.0308609 L62.0031563,13.0308609 L62.0031563,11.9326266 L62.0595938,11.9326266 C62.6160938,11.9326266 63.0652969,12.1895484 63.0652969,12.5101266 L63.1305938,12.5101266 L63.1305938,11.1953297 L62.0031563,11.1953297 L62.0031563,10.9400484 C62.0031563,10.7375953 62.1649219,10.3691109 62.4280781,10.3691109 L62.4280781,10.2982359 L60.2447344,10.2982359 L60.2447344,10.3691109 C60.5075625,10.3691109 60.6657187,10.7375953 60.6657187,10.9400484 L60.6657187,11.1953297 L59.0828438,11.1953297 L59.0828438,10.9400484 C59.0828438,10.7375953 59.2387031,10.3691109 59.4949688,10.3691109 L59.4949688,10.2982359 L57.3191719,10.2982359 L57.3191719,10.3691109 C57.5787188,10.3691109 57.7414687,10.7375953 57.7414687,10.9400484 L57.7414687,11.1953297 L56.5769531,11.1953297 L56.5769531,12.5101266 L56.64225,12.5101266 C56.64225,12.1895484 57.0940781,11.9326266 57.6479531,11.9326266 L57.7414687,11.9326266 L57.7414687,13.0308609 L56.5769531,13.0308609 L56.5769531,14.3456578 L56.64225,14.3456578 C56.64225,14.0267203 57.0940781,13.7707828 57.6479531,13.7707828 L58.3022344,13.7707828 C57.9964219,13.8531422 57.7503281,14.0615016 57.379875,14.4457359 L57.2978438,14.5274391 C57.0045,14.8280016 56.781375,15.3172359 56.23275,15.3172359 L56.23275,15.3799078 L56.7226406,15.3799078 L57.5390156,15.3799078 C57.9419531,15.3799078 57.9997031,15.3854859 58.6861406,14.6675484 L58.7701406,14.5868297 C59.0264063,14.3128453 59.4172031,13.9020328 59.8637813,13.8163922 C60.3116719,13.9020328 60.6995156,14.3128453 60.9636563,14.5868297 L61.0450313,14.6675484 C61.7354063,15.3854859 61.784625,15.3799078 62.1892031,15.3799078 L63.0062344,15.3799078 L63.4990781,15.3799078 L63.4990781,15.3172359 C62.9458594,15.3172359 62.7292969,14.8280016 62.4326719,14.5274391 L62.4326719,14.5274391 Z" id="Fill-5" fill="#4C4C4C" mask="url(#mask-2)"></path>
                <path d="M58.3003313,16.2975094 L61.7814094,16.2975094 L61.7814094,17.1096187 C61.7712375,17.7209156 61.6002844,17.8485563 60.9880031,17.8485563 L58.3003313,17.8485563 L58.3003313,16.2975094 Z M62.4609563,19.8274781 L58.7173781,19.8274781 C58.436175,19.8274781 58.2822844,19.6296187 58.2822844,19.3881188 C58.2822844,18.9198844 58.2937687,18.5911031 58.2937687,18.5911031 L61.7026594,18.5878219 C62.4146906,18.5878219 63.1273781,18.0247594 63.1273781,17.2119937 L63.1273781,15.5595562 L56.3794875,15.5595562 L56.3794875,15.6241969 C56.6954719,15.6241969 56.9615813,15.9634781 56.9615813,16.6400719 L56.9455031,19.5098531 C56.9455031,20.1247594 57.3395813,20.6011969 58.168425,20.6011969 L63.0177844,20.6011969 L63.3902062,19.2762281 L63.2989875,19.2870562 C63.2100656,19.6919625 63.0177844,19.8274781 62.4609563,19.8274781 L62.4609563,19.8274781 Z" id="Fill-7" fill="#4C4C4C" mask="url(#mask-2)"></path>
                <path d="M71.0894953,13.3648922 L68.3601516,13.3648922 C67.8029953,13.3648922 67.3501828,13.1066578 67.3501828,12.7919859 L67.2878391,12.7919859 L67.2878391,14.1038297 L72.1634484,14.1038297 L72.1634484,12.7919859 L72.0955266,12.7919859 C72.0955266,13.1066578 71.6436984,13.3648922 71.0894953,13.3648922" id="Fill-8" fill="#4C4C4C" mask="url(#mask-2)"></path>
                <path d="M70.8254859,10.3691437 L70.8254859,10.2982687 L68.6447672,10.2982687 L68.6447672,10.3691437 C68.8662516,10.3691437 69.0165328,10.5886594 69.0549234,10.960425 L67.1275172,10.960425 L67.1275172,12.2696437 L67.1937984,12.2696437 C67.1937984,11.9536594 67.6479234,11.6977219 68.2037672,11.6977219 L71.2960172,11.6977219 C71.8554703,11.6977219 72.3053297,11.9536594 72.3053297,12.2696437 L72.3706266,12.2696437 L72.3706266,10.960425 L70.4110641,10.960425 C70.4494547,10.5886594 70.6000641,10.3691437 70.8254859,10.3691437" id="Fill-9" fill="#4C4C4C" mask="url(#mask-2)"></path>
                <path d="M68.1709875,12.8163 C68.30355,13.1893781 68.6087063,13.1946281 69.0014719,13.1946281 L69.4782375,13.1946281 L69.4782375,13.1634562 C69.3515813,13.1634562 69.1868625,13.0584562 69.1048313,12.8163 L68.9437219,12.3310031 C68.820675,11.9553 68.5138781,11.9553 68.1191438,11.9553 L67.6518938,11.9553 L67.6518938,11.9900813 C67.7723156,11.9900813 67.9350656,12.09705 68.0170969,12.3310031 L68.1709875,12.8163 Z" id="Fill-10" fill="#4C4C4C" mask="url(#mask-2)"></path>
                <path d="M71.3151141,12.8050781 L71.4726141,12.3227344 C71.5539891,12.0809063 71.7144422,11.9772188 71.8361766,11.9772188 L71.8361766,11.9470313 L71.3695828,11.9470313 C70.9774734,11.9470313 70.6670672,11.9470313 70.5427078,12.3227344 L70.3812703,12.8050781 C70.3031766,13.0478906 70.1423953,13.1525625 70.0134422,13.1525625 L70.0134422,13.1817656 L70.4902078,13.1817656 C70.8819891,13.1817656 71.1914109,13.1817656 71.3151141,12.8050781" id="Fill-11" fill="#4C4C4C" mask="url(#mask-2)"></path>
                <path d="M53.5519359,11.4563531 L54.0250922,12.2733844 C54.4782328,13.0530094 55.1837016,13.0805719 55.4311078,13.0805719 L56.4673266,13.0805719 L56.4673266,12.978525 C56.0529047,12.978525 55.8399516,12.6677906 55.4150297,11.9383688 L54.9389203,11.120025 C54.4844672,10.3463063 53.7862172,10.3131656 53.5332328,10.3131656 L52.4989828,10.3131656 L52.4957016,10.4142281 C52.9183266,10.4142281 53.1273422,10.7308688 53.5519359,11.4563531" id="Fill-12" fill="#4C4C4C" mask="url(#mask-2)"></path>
                <path d="M53.5455375,14.3905781 L54.016725,15.2085938 C54.4731469,15.9855938 55.1792719,16.0197188 55.4207719,16.0197188 L56.4589594,16.0197188 L56.4589594,15.9173438 C56.0425688,15.9173438 55.827975,15.600375 55.4043656,14.8798125 L54.9318656,14.0572031 C54.4757719,13.2811875 53.7732563,13.2441094 53.523225,13.2441094 L52.4893031,13.2441094 L52.4873344,13.3510781 C52.908975,13.3510781 53.1179906,13.6680469 53.5455375,14.3905781" id="Fill-13" fill="#4C4C4C" mask="url(#mask-2)"></path>
                <path d="M69.1431562,15.3717703 L70.7286563,15.3717703 L70.7286563,16.2682078 L68.8317656,16.2682078 L68.8317656,15.3717703 L69.1431562,15.3717703 Z M68.8317656,17.8484578 L68.8317656,17.7916922 L68.8317656,16.9877859 L70.7286563,16.9877859 L70.7286563,17.8484578 L68.8317656,17.8484578 Z M68.2375313,14.5688484 L67.0169063,14.5688484 L67.0169063,14.6377547 C67.3351875,14.6377547 67.6255781,14.9813016 67.6255781,15.6615047 L67.6255781,15.8649422 L67.6255781,17.7293484 C67.6255781,19.5097547 67.4864531,20.7284109 66.8105156,20.7284109 L66.8105156,20.7943641 L67.6255781,20.7943641 C68.6010938,20.7943641 68.788125,19.8549422 68.8232344,18.5637703 L70.7286563,18.5637703 L70.7286563,19.2892547 C70.7286563,19.6426453 70.7099531,20.0160516 70.1255625,20.0160516 C69.8095781,20.0160516 69.6300938,19.9297547 69.3803906,19.6472391 L69.313125,19.6472391 L69.9565781,20.7943641 C70.1711719,20.8255359 70.2840469,20.8432547 70.5839531,20.8432547 C70.8818906,20.8432547 71.9361562,20.8504734 71.9361562,19.2892547 L71.9361562,14.5688484 L68.6266875,14.5688484 L68.2375313,14.5688484 Z" id="Fill-14" fill="#4C4C4C" mask="url(#mask-2)"></path>
                <path d="M77.1181359,19.8274125 C76.5540891,19.8274125 74.8186359,19.849725 74.5919016,19.849725 C74.3143078,19.849725 74.1587766,19.6518656 74.1587766,19.4116781 C74.1587766,19.366725 74.1584484,19.2866625 74.1581203,19.1800219 L76.0966828,19.1800219 C76.6561359,19.1800219 77.1040266,19.392975 77.1040266,19.7148656 L77.1758859,19.7148656 L77.1758859,18.4417406 L74.1541828,18.4417406 C74.1528703,18.22485 74.1512297,17.9869594 74.1499172,17.7379125 L76.6561359,17.7379125 C77.2096828,17.7379125 77.5673391,17.9508656 77.5673391,18.2678344 L77.6352609,18.2678344 L77.6352609,16.9983188 L74.1453234,16.9983188 C74.1440109,16.752225 74.1423703,16.5097406 74.1407297,16.2803812 L76.6482609,16.2803812 C77.2047609,16.2803812 77.5611047,16.4910375 77.5611047,16.8142406 L77.6319797,16.8142406 L77.6319797,15.5384906 L74.1358078,15.5384906 C74.1331828,15.1414594 74.1318703,14.8799438 74.1318703,14.8799438 L76.0153078,14.8750219 C76.7247141,14.8750219 77.4810422,14.3641313 77.4810422,13.5471 L77.4551203,12.4971 L74.5899328,12.4990688 L74.5899328,11.6692406 L76.6899328,11.6692406 C77.2464328,11.6692406 77.6956359,11.9271469 77.6956359,12.2454281 L77.7629016,12.2454281 L77.7629016,10.9286625 L74.5899328,10.9286625 L74.5899328,10.9086469 C74.5899328,10.7075063 74.7474328,10.3347563 75.0040266,10.3347563 L75.0040266,10.2645375 L72.8295422,10.2645375 L72.8295422,10.3347563 C73.0884328,10.3347563 73.2479016,10.7075063 73.2479016,10.9086469 L73.2479016,12.5000531 L72.5444016,12.5003813 L72.5444016,13.8191156 L72.6083859,13.8191156 C72.6083859,13.4991938 73.0549641,13.2366938 73.6121203,13.2366938 L73.6787297,13.2366938 L76.1396672,13.2366938 L76.1396672,13.3512094 C76.1396672,13.8712875 76.0966828,14.1134438 75.4834172,14.1134438 L72.8295422,14.1101625 L72.8160891,19.529475 C72.8160891,20.1417563 73.2157453,20.6254125 74.0380266,20.6254125 L77.6743078,20.6011312 L78.0460734,19.2761625 L77.9538703,19.2873187 C77.8642922,19.6918969 77.6743078,19.8274125 77.1181359,19.8274125" id="Fill-15" fill="#4C4C4C" mask="url(#mask-2)"></path>
                <path d="M42.3585422,18.7677328 L42.3585422,18.6929203 L41.8732453,18.6929203 L41.0657297,18.6929203 C40.6877297,18.6929203 40.2828234,18.6227016 39.7233703,19.3517953 L39.1137141,20.1317484 C38.8689328,20.4493734 38.6287453,20.7210609 38.1135891,20.7210609 L38.1135891,20.7866859 L38.5906828,20.7866859 L39.3916359,20.7866859 C39.7706203,20.7866859 40.1633859,20.8506703 40.7339953,20.1317484 L41.3456203,19.3517953 C41.5946672,19.0348266 41.8401047,18.7677328 42.3585422,18.7677328" id="Fill-16" fill="#4C4C4C" mask="url(#mask-2)"></path>
                <path d="M44.3641406,15.9469406 L42.1926094,15.9469406 L42.1926094,16.0105969 C42.4518281,16.0105969 42.6076875,16.38105 42.6076875,16.5874406 L42.6076875,19.2383625 C42.6076875,19.5930656 42.5991563,19.9668 42.1407656,19.9668 C41.8280625,19.9668 41.6446406,19.8768938 41.3942812,19.5947063 L41.328,19.5947063 L41.9688281,20.7434719 C42.1785,20.7710344 42.29925,20.7867844 42.5935781,20.7867844 C42.8888906,20.7867844 43.9464375,20.7943313 43.9464375,19.2383625 L43.9464375,16.5874406 C43.9464375,16.38105 44.10525,16.0105969 44.3641406,16.0105969 L44.3641406,15.9469406 Z" id="Fill-17" fill="#4C4C4C" mask="url(#mask-2)"></path>
                <path d="M39.4653656,17.7260016 L39.5467406,17.8054078 C40.2279281,18.5584547 40.5987094,18.4603453 40.9790063,18.4603453 L41.8747875,18.4603453 L42.3367875,18.4603453 L42.3367875,18.3960328 C41.8199906,18.3960328 41.5525688,18.1210641 41.2648031,17.8054078 L41.1811312,17.7260016 C40.4838656,16.9739391 40.1232563,17.0694234 39.7459125,17.0694234 L38.8465219,17.0694234 L38.3759906,17.0694234 L38.3759906,17.1416109 C38.8918031,17.1416109 39.1730063,17.4083766 39.4653656,17.7260016" id="Fill-18" fill="#4C4C4C" mask="url(#mask-2)"></path>
                <path d="M47.4259078,20.1318141 L46.8100172,19.3518609 C46.2607359,18.6224391 45.8499234,18.6929859 45.4742203,18.6929859 L44.6650641,18.6929859 L44.1863297,18.6929859 L44.1863297,18.7677984 C44.6949234,18.7677984 44.9452828,19.0348922 45.1913766,19.3518609 L45.8026734,20.1318141 C46.3742672,20.8504078 46.7680172,20.7867516 47.1414234,20.7867516 L47.9499234,20.7867516 L48.4263609,20.7867516 L48.4263609,20.7211266 C47.9112047,20.7211266 47.6713453,20.4494391 47.4259078,20.1318141" id="Fill-19" fill="#4C4C4C" mask="url(#mask-2)"></path>
                <path d="M46.6052344,15.5053828 C45.9539062,15.0040078 45.625125,14.7776016 45.3550781,14.6781797 L47.5522031,14.6781797 C48.103125,14.6781797 48.5549531,14.9390391 48.5549531,15.2546953 L48.6182812,15.2546953 L48.6182812,13.9441641 L43.9461094,13.9441641 L43.9461094,13.0861172 L46.7423906,13.0861172 C47.3025,13.0861172 47.7480938,13.3430391 47.7480938,13.6613203 L47.8186406,13.6613203 L47.8186406,12.3475078 L43.9461094,12.3475078 L43.9461094,11.6023359 L47.3513906,11.6023359 C47.9049375,11.6023359 48.3515156,11.8566328 48.3515156,12.1742578 L48.4197656,12.1742578 L48.4197656,10.8640547 L43.9461094,10.8640547 C43.9461094,10.6589766 44.10525,10.2888516 44.3641406,10.2888516 L44.3641406,10.2202734 L42.1926094,10.2202734 L42.1926094,10.2888516 C42.4518281,10.2888516 42.6076875,10.6589766 42.6076875,10.8640547 L38.1172969,10.8640547 L38.1172969,12.1742578 L38.1789844,12.1742578 C38.1789844,11.8566328 38.6324531,11.6023359 39.1853438,11.6023359 L42.6076875,11.6023359 L42.6076875,12.3475078 L38.7194063,12.3475078 L38.7194063,13.6613203 L38.7889688,13.6613203 C38.7889688,13.3430391 39.2345625,13.0861172 39.7890938,13.0861172 L42.6076875,13.0861172 L42.6076875,13.9441641 L37.918125,13.9441641 L37.918125,15.2546953 L37.9821094,15.2546953 C37.9821094,14.9390391 38.4319688,14.6781797 38.9855156,14.6781797 L41.1849375,14.6781797 C40.9139063,14.7776016 40.5864375,15.0040078 39.9344531,15.5053828 L39.4514531,15.8932266 C38.3318906,16.7158359 38.3069531,16.7220703 37.9115625,16.7220703 L37.9115625,16.7978672 L39.4258594,16.7978672 C39.9547969,16.7978672 40.1739844,16.7903203 41.3243906,15.8932266 L41.8073906,15.5053828 C42.7884844,14.7405234 42.8639531,14.6880234 43.2705,14.6844141 C43.6724531,14.6880234 43.7479219,14.7405234 44.7313125,15.5053828 L45.2126719,15.8932266 C46.3637344,16.7903203 46.5852187,16.7978672 47.1092344,16.7978672 L48.6271406,16.7978672 L48.6271406,16.7220703 C48.2268281,16.7220703 48.2055,16.7158359 47.0862656,15.8932266 L46.6052344,15.5053828 Z" id="Fill-20" fill="#4C4C4C" mask="url(#mask-2)"></path>
                <path d="M44.2000781,18.4604109 L44.6578125,18.4604109 L45.5588437,18.4604109 C45.9342187,18.4604109 46.3069687,18.5585203 46.9950469,17.8054734 L47.0757656,17.7260672 C47.3648438,17.4084422 47.646375,17.1413484 48.1612031,17.1413484 L48.1612031,17.0694891 L47.6923125,17.0694891 L46.7929219,17.0694891 C46.4129531,17.0694891 46.0543125,16.9740047 45.3606563,17.7260672 L45.2720625,17.8054734 C44.9806875,18.1211297 44.716875,18.3960984 44.2000781,18.3960984 L44.2000781,18.4604109 Z" id="Fill-21" fill="#4C4C4C" mask="url(#mask-2)"></path>
                <path d="M25.1172469,11.0244094 L32.766825,11.0244094 L32.766825,18.7471594 C32.7537,19.3597687 32.2657781,19.8496594 31.6557937,19.8496594 L25.1172469,19.8496594 L25.1172469,11.0244094 Z M23.2003406,10.3537219 C23.5212469,10.3537219 23.7781687,11.0404875 23.7781687,11.5914094 L23.7781687,19.5097219 C23.7781687,20.0672062 23.5212469,20.5170656 23.2042781,20.5170656 L23.2042781,20.5840031 L32.3688094,20.5840031 C33.3246375,20.5840031 34.1072156,19.80405 34.1072156,18.8455969 L34.1072156,10.2887531 L23.2003406,10.2887531 L23.2003406,10.3537219 Z" id="Fill-22" fill="#4C4C4C" mask="url(#mask-2)"></path>
                <path d="M27.7515328,16.6012547 C27.7515328,16.7649891 27.6199547,16.8906609 27.4631109,16.8906609 L26.7057984,16.8906609 L26.7057984,14.7703172 L27.7515328,14.7703172 L27.7515328,16.6012547 Z M28.8159703,16.6032234 L28.8159703,14.0340047 L25.6357828,14.0340047 L25.6357828,17.6295984 L27.7833609,17.6295984 C28.3559391,17.6295984 28.8159703,17.1715359 28.8159703,16.6032234 L28.8159703,16.6032234 Z" id="Fill-23" fill="#4C4C4C" mask="url(#mask-2)"></path>
                <path d="M32.3548969,19.1336578 C31.8105375,18.9167672 31.6435219,18.7084078 31.3258969,17.5799859 L31.0555219,16.5608297 C31.3974281,15.8537203 31.8029906,15.0124078 31.8682875,14.8903453 C32.0405531,14.5274391 32.1465375,14.2219547 32.4569438,14.1002203 L32.4569438,14.0339391 L30.8665219,14.0339391 L30.8665219,14.0762672 C31.137225,14.1783141 31.168725,14.4372047 30.8504438,15.0882047 C30.8097562,15.1748297 30.7677562,15.2548922 30.7306781,15.3336422 L30.1407094,13.1217516 L31.2635531,13.1217516 C32.0208656,13.1217516 32.2374281,13.3812984 32.265975,13.5575016 L32.3352094,13.5575016 L32.3352094,12.3837984 L31.677975,12.3837984 C31.9434281,11.7931734 32.0448187,11.6389547 32.2663031,11.6182828 L32.2663031,11.5470797 L30.6351937,11.5470797 L30.6351937,11.5913766 C30.8730844,11.6799703 30.9177094,11.8991578 30.7077094,12.3837984 L29.934975,12.3837984 C29.8109437,11.8991578 29.9015062,11.6881734 30.1495687,11.5953141 L30.1495687,11.5526578 L28.0758187,11.5526578 L28.0758187,11.6192672 C28.5309281,11.7114703 28.6526625,12.0126891 28.7570062,12.3837984 L25.6184906,12.3837984 L25.6184906,13.5575016 L25.6844437,13.5575016 C25.7116781,13.3812984 25.9282406,13.1217516 26.6875219,13.1217516 L28.9499437,13.1217516 L29.9510531,16.9430953 C29.4001313,18.0344391 29.0769281,18.4153922 28.2877875,18.4153922 L26.6419125,18.4121109 C26.0634281,18.4121109 25.6598344,18.2615016 25.4878969,18.0035953 L25.4222719,18.0035953 L26.0785219,19.1500641 L28.3606312,19.1500641 C29.2167094,19.1500641 29.7915844,18.7776422 30.2631,18.0823453 C30.4491469,18.6477047 30.690975,19.1802516 31.4725688,19.1802516 L32.3548969,19.1802516 L32.3548969,19.1336578 Z" id="Fill-24" fill="#4C4C4C" mask="url(#mask-2)"></path>
                <path d="M105.920752,11.1372188 L102.463298,11.1372188 C102.463298,10.6492969 102.622111,10.3480781 102.874767,10.3480781 L102.874767,10.2814688 L100.706517,10.2814688 L100.706517,10.3480781 C100.968033,10.3480781 101.126517,10.6492969 101.126517,11.1372188 L96.1583766,11.1372188 L96.1583766,11.200875 C96.4782984,11.200875 96.7358766,11.8905938 96.7358766,12.4438125 L96.7358766,13.3432031 L98.0772516,13.3432031 L98.0772516,11.8735313 L105.216267,11.8735313 C105.569658,11.8735313 106.03297,11.823 105.889252,12.4405313 C105.795736,12.8552813 105.695658,13.3432031 105.695658,13.3432031 L107.021611,13.3432031 C107.021611,13.3432031 107.172877,12.7095937 107.247361,12.3571875 C107.540377,11.0243437 106.316142,11.1372188 105.920752,11.1372188" id="Fill-25" fill="#4C4C4C" mask="url(#mask-2)"></path>
                <path d="M99.1448062,14.7030187 L100.316212,13.364925 C100.812337,12.7920187 101.018728,12.5383781 101.5014,12.5383781 L101.5014,12.4560188 L100.283072,12.4560188 C99.7574156,12.4560188 99.5408531,12.4615969 98.7615562,13.364925 L97.5894937,14.7030187 C97.0946812,15.2792062 96.8889469,15.5262844 96.4089,15.5262844 L96.4089,15.6122531 L97.6226344,15.6122531 C98.1476344,15.6122531 98.3674781,15.6024094 99.1448062,14.7030187" id="Fill-26" fill="#4C4C4C" mask="url(#mask-2)"></path>
                <path d="M106.057908,19.8645562 L102.443939,19.8645562 L102.443939,16.7788687 L105.526017,16.7788687 C106.07333,16.7788687 106.523845,17.0390719 106.523845,17.3550562 L106.59308,17.3550562 L106.59308,16.0455094 L96.9550641,16.0455094 L96.9550641,17.3550562 L97.0223297,17.3550562 C97.0223297,17.0390719 97.4689078,16.7788687 98.0263922,16.7788687 L101.103877,16.7788687 L101.103877,19.8645562 L97.4908922,19.8645562 C96.9350484,19.8645562 96.4865016,19.6063219 96.4865016,19.2870562 L96.4192359,19.2870562 L96.4192359,20.5982437 L107.126283,20.5982437 L107.126283,19.2870562 L107.057048,19.2870562 C107.057048,19.6063219 106.61047,19.8645562 106.057908,19.8645562" id="Fill-27" fill="#4C4C4C" mask="url(#mask-2)"></path>
                <path d="M105.95468,14.7030187 L104.782617,13.364925 C104.007258,12.4615969 103.790367,12.4560188 103.263727,12.4560188 L102.049336,12.4560188 L102.049336,12.5383781 C102.526758,12.5383781 102.729211,12.7920187 103.228945,13.364925 L104.399367,14.7030187 C105.178008,15.6024094 105.395227,15.6122531 105.920883,15.6122531 L107.134617,15.6122531 L107.134617,15.5262844 C106.659164,15.5262844 106.452773,15.2792062 105.95468,14.7030187" id="Fill-28" fill="#4C4C4C" mask="url(#mask-2)"></path>
                <path d="M88.2750422,11.8905609 L91.3607297,11.8905609 C91.9172297,11.8905609 92.3651203,12.1504359 92.3651203,12.4647797 L92.4284484,12.4647797 L92.4284484,11.1522797 L90.4711828,11.1522797 C90.4711828,10.6656703 90.6303234,10.3690453 90.8898703,10.3690453 L90.8898703,10.2981703 L88.7203078,10.2981703 L88.7203078,10.3690453 C88.9736203,10.3690453 89.1383391,10.6656703 89.1383391,11.1522797 L87.2066672,11.1522797 L87.2066672,12.4647797 L87.2732766,12.4647797 C87.2732766,12.1504359 87.7224797,11.8905609 88.2750422,11.8905609" id="Fill-29" fill="#4C4C4C" mask="url(#mask-2)"></path>
                <path d="M92.0343703,20.0081109 C91.6619484,20.0081109 91.7000109,19.4256891 91.7000109,19.1963297 L91.7000109,14.2737984 C91.7000109,13.8104859 91.7863078,12.5288297 90.3822609,12.5288297 L88.0981828,12.5288297 L88.0981828,17.7292828 C88.0981828,19.5096891 87.9590578,20.7257203 87.2873859,20.7257203 L87.2873859,20.7867516 L88.0955578,20.7867516 C89.2499016,20.7867516 89.3086359,19.4644078 89.3086359,17.7995016 L89.3086359,13.3350328 L89.8034484,13.3350328 C90.4186828,13.3350328 90.4797141,13.8232828 90.4911984,14.4372047 L90.4911984,19.1231578 C90.4911984,19.6517672 90.4347609,20.8415484 91.5261047,20.8415484 C91.8453703,20.8415484 92.0976984,20.7257203 92.2312453,20.6843766 C92.4258234,20.2112203 92.6656828,19.6740797 92.6656828,19.6740797 L92.6026828,19.6740797 C92.6026828,19.6740797 92.4117141,20.0081109 92.0343703,20.0081109" id="Fill-30" fill="#4C4C4C" mask="url(#mask-2)"></path>
                <path d="M83.8453547,12.3189937 C83.9690578,12.3189937 84.1311516,12.5266969 84.2105578,13.0198687 L84.3733078,14.0098219 C84.4996359,14.7809156 84.6568078,14.7851813 85.0521984,14.7851813 L85.5217453,14.7851813 L85.5217453,14.7123375 C85.3980422,14.7123375 85.2366047,14.5023375 85.1526047,14.0098219 L84.9937922,13.0198687 C84.8714016,12.2550094 84.7119328,12.2451656 84.3171984,12.2451656 L83.8453547,12.2451656 L83.8453547,12.3189937 Z" id="Fill-31" fill="#4C4C4C" mask="url(#mask-2)"></path>
                <path d="M85.0521328,19.0349578 L85.5220078,19.0349578 L85.5220078,18.9644109 C85.3983047,18.9644109 85.2365391,18.7514578 85.1528672,18.2605828 L84.9937266,17.2703016 C84.8713359,16.4988797 84.7118672,16.4969109 84.3171328,16.4969109 L83.8452891,16.4969109 L83.8452891,16.5608953 C83.9689922,16.5608953 84.1310859,16.7771297 84.2108203,17.2703016 L84.3735703,18.2605828 C84.4995703,19.0300359 84.6567422,19.0349578 85.0521328,19.0349578" id="Fill-32" fill="#4C4C4C" mask="url(#mask-2)"></path>
                <path d="M85.6417406,15.268575 L83.7550219,15.268575 L83.7550219,11.6802 L84.0614906,11.6802 L85.6417406,11.6802 L85.6417406,15.268575 Z M87.4963031,16.5787781 L87.4963031,15.268575 L86.8492406,15.268575 L86.8492406,10.8782625 L84.2271938,10.8782625 L84.2518031,10.8382312 C84.5356313,10.3575281 84.8174906,10.1478562 84.9566156,10.1478562 L84.9566156,10.07895 L84.0427875,10.07895 C83.6050688,10.07895 83.4268969,10.0828875 82.9839281,10.8382312 L82.4110219,11.8117781 C82.1265375,12.2931375 81.8473031,12.5005125 81.7055531,12.5005125 L81.7055531,12.5671219 L82.5501469,12.5671219 L82.5501469,15.268575 L81.8958656,15.268575 L81.8958656,16.5787781 L81.9670687,16.5787781 C81.9670687,16.3454812 82.2033187,16.1522156 82.5501469,16.0626375 L82.5501469,17.7291844 C82.5501469,19.5099188 82.4097094,20.7256219 81.7357406,20.7256219 L81.7357406,20.7866531 L82.5412875,20.7866531 C83.7051469,20.7866531 83.7550219,19.4643094 83.7550219,17.7994031 L83.7550219,16.003575 L85.6417406,16.003575 L85.6417406,19.2822 C85.6417406,19.6372312 85.6194281,20.0103094 85.0419281,20.0103094 C84.7272563,20.0103094 84.5523656,19.9236844 84.2990531,19.6424812 L84.2337562,19.6424812 L84.8713031,20.7866531 C85.0803187,20.8214344 85.2000844,20.8358719 85.4993344,20.8358719 C85.794975,20.8358719 86.8492406,20.84145 86.8492406,19.2822 L86.8492406,16.0626375 C87.1908188,16.1522156 87.4247719,16.3454812 87.4247719,16.5787781 L87.4963031,16.5787781 Z" id="Fill-33" fill="#4C4C4C" mask="url(#mask-2)"></path>
            </g>
        </g>
    </g>
</svg>