<?xml version="1.0" encoding="UTF-8"?>
<svg width="125px" height="25px" viewBox="0 0 125 25" version="1.1" xmlns="http://www.w3.org/2000/svg" xmlns:xlink="http://www.w3.org/1999/xlink">
    <!-- Generator: Sketch 49.2 (51160) - http://www.bohemiancoding.com/sketch -->
    <title>cathaypacific-zh-green</title>
    <desc>Created with Sketch.</desc>
    <defs>
        <polygon id="path-1" points="124.021774 24.6118952 124.021774 0.315238316 0.131165828 0.315238316 0.131165828 24.6118952 124.021774 24.6118952"></polygon>
    </defs>
    <g id="Page-1" stroke="none" stroke-width="1" fill="none" fill-rule="evenodd">
        <g id="Artboard-Copy" transform="translate(-77.000000, -816.000000)">
            <g id="cathaypacific-zh-green" transform="translate(77.000000, 816.000000)">
                <mask id="mask-2" fill="white">
                    <use xlink:href="#path-1"></use>
                </mask>
                <g id="Clip-530"></g>
                <path d="M83.7654435,13.3177419 C83.7654435,12.7487903 83.5803629,12.4004032 83.2807661,12.4004032 L83.2807661,12.3225806 L85.8045565,12.3225806 L85.8045565,12.4004032 C85.5057661,12.4004032 85.3206855,12.7487903 85.3206855,13.3177419 L83.7654435,13.3177419 Z" id="Fill-529" fill="#006564" mask="url(#mask-2)"></path>
                <path d="M89.0824597,15.8847177 C89.0824597,15.8847177 89.1969758,15.3157661 89.3078629,14.8331048 C89.4760081,14.1121371 88.9368952,14.172621 88.5264113,14.172621 L80.2183468,14.172621 L80.2183468,15.8847177 L78.6586694,15.8847177 L78.6586694,14.8379435 C78.6586694,14.1927823 78.3602823,13.3947984 77.9909274,13.3947984 L77.9909274,13.3165726 L89.3485887,13.3161694 C89.8078629,13.3161694 91.2324597,13.1810887 90.8933468,14.7375403 C90.8038306,15.1456048 90.6308468,15.8847177 90.6308468,15.8847177 L89.0824597,15.8847177 Z" id="Fill-531" fill="#006564" mask="url(#mask-2)"></path>
                <path d="M79.6915323,18.5233065 C80.3032258,18.5233065 80.5564516,18.5156452 81.4620968,17.463629 L82.8237903,15.9095968 C83.4044355,15.2366129 83.6407258,14.9454839 84.1987903,14.9454839 L84.1987903,14.851129 L82.7854839,14.851129 C82.1721774,14.851129 81.9205645,14.8575806 81.0145161,15.9095968 L79.6520161,17.463629 C79.0733871,18.1366129 78.8358871,18.4281452 78.2778226,18.4281452 L78.2778226,18.5233065 L79.6915323,18.5233065 Z" id="Fill-532" fill="#006564" mask="url(#mask-2)"></path>
                <path d="M83.7400806,19.8866935 L83.7400806,23.471371 L79.5344355,23.471371 C78.888871,23.471371 78.3675,23.1725806 78.3675,22.8032258 L78.288871,22.8032258 L78.288871,24.3294355 L90.7485484,24.3294355 L90.7485484,22.8032258 L90.6695161,22.8032258 C90.6695161,23.1725806 90.1481452,23.471371 89.5025806,23.471371 L85.2981452,23.471371 L85.2981452,19.8866935 L88.8808065,19.8866935 C89.5247581,19.8866935 90.0473387,20.1854839 90.0473387,20.5540323 L90.1251613,20.5540323 L90.1251613,19.0298387 L78.9118548,19.0298387 L78.9118548,20.5540323 L78.9900806,20.5540323 C78.9900806,20.1854839 79.5122581,19.8866935 80.1570161,19.8866935 L83.7400806,19.8866935 Z" id="Fill-533" fill="#006564" mask="url(#mask-2)"></path>
                <path d="M89.3470968,18.5233065 C88.7341935,18.5233065 88.481371,18.5156452 87.5757258,17.463629 L86.2132258,15.9095968 C85.6333871,15.2366129 85.3975,14.9454839 84.8394355,14.9454839 L84.8394355,14.851129 L86.2515323,14.851129 C86.8644355,14.851129 87.1168548,14.8575806 88.0241129,15.9095968 L89.3854032,17.463629 C89.9652419,18.1366129 90.201129,18.4281452 90.76,18.4281452 L90.76,18.5233065 L89.3470968,18.5233065 Z" id="Fill-534" fill="#006564" mask="url(#mask-2)"></path>
                <path d="M97.642379,24.3264516 L103.446008,24.3264516 L104.183508,22.4687903 L104.105282,22.4687903 C103.650847,22.9631452 103.08875,23.4732258 102.331492,23.4732258 L98.3568952,23.4732258 C97.8621371,23.4732258 97.8895565,22.9494355 98.167379,22.5970161 L101.281492,17.4083065 C101.778669,16.5667742 102.023427,16.2034677 102.508105,16.2034677 L102.508105,16.0837097 L101.306089,16.0837097 C101.016169,16.0837097 100.208105,16.1187903 99.7335081,16.9264516 L96.5286694,22.2675806 C96.022621,23.1558871 96.1439919,24.3264516 97.642379,24.3264516" id="Fill-535" fill="#006564" mask="url(#mask-2)"></path>
                <path d="M104.951371,19.3747177 C104.426371,18.3481048 103.630403,18.3372177 103.340081,18.3372177 L102.221129,18.3372177 L102.213065,18.4565726 C102.696532,18.4565726 102.9175,18.8194758 103.354597,19.6610081 L105.20379,23.3053629 C105.744113,24.3646371 106.523952,24.3335887 106.812661,24.3335887 L107.932823,24.3335887 L107.94129,24.2150403 C107.45621,24.2150403 107.236452,23.8513306 106.799355,23.0089919 L104.951371,19.3747177 Z" id="Fill-536" fill="#006564" mask="url(#mask-2)"></path>
                <path d="M100.160887,14.0802823 C99.6754032,14.0802823 99.4302419,14.4439919 98.9342742,15.2859274 L97.7157258,17.3706048 C97.1846774,18.2718145 96.371371,18.3097177 96.0810484,18.3097177 L94.8794355,18.3097177 L94.8778226,18.1895565 C95.3633065,18.1895565 95.6080645,17.8266532 96.103629,16.9835081 L97.3233871,14.8996371 C97.8544355,13.997621 98.6677419,13.9605242 98.9576613,13.9605242 L100.158871,13.9605242 L100.160887,14.0802823 Z" id="Fill-537" fill="#006564" mask="url(#mask-2)"></path>
                <path d="M98.3416129,13.3340323 C97.4577419,13.3340323 97.2057258,13.6352419 97.1746774,13.8445161 L97.0964516,13.8445161 L97.0964516,12.4771774 L103.655726,12.4771774 C103.945645,12.4771774 104.734758,12.4852419 105.417016,13.8005645 L107.019032,16.9832258 C107.456129,17.8267742 107.674677,18.1892742 108.160161,18.1892742 L108.151694,18.3078226 L107.032742,18.3078226 C106.742419,18.3078226 105.95371,18.2985484 105.270242,16.9832258 L103.956935,14.3775806 C103.793226,14.0251613 103.463387,13.3340323 102.405726,13.3340323 L98.3416129,13.3340323 Z" id="Fill-538" fill="#006564" mask="url(#mask-2)"></path>
                <path d="M48.2884677,22.8766129 C48.5767742,22.5092742 48.8642742,22.1967742 49.4634677,22.1967742 L49.4634677,22.1157258 L48.8985484,22.1157258 L47.9606452,22.1157258 C47.5215323,22.1157258 47.0473387,22.0298387 46.3997581,22.8766129 L45.6892742,23.7895161 C45.4001613,24.1564516 45.1247581,24.4689516 44.5255645,24.4689516 L44.5255645,24.55 L45.0791935,24.55 L46.0162903,24.55 C46.4562097,24.55 46.9110484,24.6181452 47.5775806,23.7895161 L48.2884677,22.8766129 Z" id="Fill-539" fill="#006564" mask="url(#mask-2)"></path>
                <path d="M51.3145968,19.6603226 C51.3145968,19.4216129 51.5000806,18.991371 51.7984677,18.991371 L51.7984677,18.9123387 L49.2746774,18.9123387 L49.2746774,18.991371 C49.573871,18.991371 49.7593548,19.4216129 49.7593548,19.6603226 L49.7593548,22.7454032 C49.7593548,23.1570968 49.7496774,23.5893548 49.2105645,23.5893548 C48.8472581,23.5893548 48.6383871,23.4877419 48.3476613,23.1607258 L48.2694355,23.1607258 L49.0145968,24.4966129 C49.2585484,24.5300806 49.3984677,24.5514516 49.7420161,24.5514516 C50.0855645,24.5514516 51.3145968,24.5579032 51.3145968,22.7454032 L51.3145968,19.6603226 Z" id="Fill-540" fill="#006564" mask="url(#mask-2)"></path>
                <path d="M46.1929839,21.0804839 C46.9889516,21.9530645 47.4216129,21.8409677 47.8615323,21.8409677 L48.9091129,21.8409677 L49.4421774,21.8409677 L49.4421774,21.761129 C48.8433871,21.761129 48.5320968,21.4470161 48.1905645,21.0804839 L48.095,20.9841129 C47.2849194,20.1127419 46.8655645,20.2240323 46.4260484,20.2240323 L45.378871,20.2240323 L44.8308871,20.2240323 L44.8308871,20.3046774 C45.4300806,20.3046774 45.7591129,20.6143548 46.0962097,20.9841129 L46.1929839,21.0804839 Z" id="Fill-541" fill="#006564" mask="url(#mask-2)"></path>
                <path d="M52.7640726,22.8766129 C52.4753629,22.5092742 52.1886694,22.1967742 51.5902823,22.1967742 L51.5902823,22.1157258 L52.1543952,22.1157258 L53.0914919,22.1157258 C53.5306048,22.1157258 54.0056048,22.0298387 54.6527823,22.8766129 L55.3636694,23.7895161 C55.6519758,24.1564516 55.9277823,24.4689516 56.527379,24.4689516 L56.527379,24.55 L55.9733468,24.55 L55.03625,24.55 C54.5967339,24.55 54.1410887,24.6181452 53.4745565,23.7895161 L52.7640726,22.8766129 Z" id="Fill-542" fill="#006564" mask="url(#mask-2)"></path>
                <path d="M54.9680242,18.8493952 L54.4071371,18.4082661 C53.6514919,17.8155242 53.267621,17.5538306 52.9518952,17.4389113 L55.5107661,17.4389113 C56.1555242,17.4389113 56.6777016,17.7389113 56.6777016,18.1078629 L56.7559274,18.1078629 L56.7559274,16.5820565 L51.3135887,16.5820565 L51.3135887,15.5860887 L54.5756855,15.5860887 C55.2216532,15.5860887 55.7434274,15.884879 55.7434274,16.2542339 L55.82125,16.2542339 L55.82125,14.727621 L51.3135887,14.727621 L51.3135887,13.8570565 L55.2772984,13.8570565 C55.9224597,13.8570565 56.4442339,14.1566532 56.4442339,14.5256048 L56.5216532,14.5256048 L56.5216532,12.9985887 L51.3135887,12.9985887 C51.3135887,12.759879 51.5002823,12.3292339 51.7982661,12.3292339 L51.7982661,12.2510081 L49.274879,12.2510081 L49.274879,12.3292339 C49.5740726,12.3292339 49.7595565,12.759879 49.7595565,12.9985887 L44.5309274,12.9985887 L44.5309274,14.5256048 L44.6079435,14.5256048 C44.6079435,14.1566532 45.1305242,13.8570565 45.7752823,13.8570565 L49.7595565,13.8570565 L49.7595565,14.727621 L45.2313306,14.727621 L45.2313306,16.2542339 L45.3091532,16.2542339 C45.3091532,15.884879 45.8313306,15.5860887 46.4760887,15.5860887 L49.7595565,15.5860887 L49.7595565,16.5820565 L44.2970565,16.5820565 L44.2970565,18.1078629 L44.3752823,18.1078629 C44.3752823,17.7389113 44.8970565,17.4389113 45.542621,17.4389113 L48.1010887,17.4389113 C47.7853629,17.5538306 47.4014919,17.8155242 46.6450403,18.4082661 L46.0845565,18.8493952 C44.7821371,19.8106855 44.7522984,19.8135081 44.2910081,19.8135081 L44.2910081,19.9082661 L46.055121,19.9082661 C46.667621,19.9082661 46.9236694,19.9014113 48.2656048,18.8493952 L48.8256855,18.4082661 C49.9692339,17.509879 50.0547177,17.4481855 50.5264919,17.4433468 C50.9982661,17.4481855 51.0833468,17.509879 52.2272984,18.4082661 L52.7869758,18.8493952 C54.1293145,19.9014113 54.3849597,19.9082661 54.9974597,19.9082661 L56.7619758,19.9082661 L56.7619758,19.8135081 C56.299879,19.8135081 56.2708468,19.8106855 54.9680242,18.8493952" id="Fill-543" fill="#006564" mask="url(#mask-2)"></path>
                <path d="M54.8602823,21.0804839 C54.0631048,21.9530645 53.6308468,21.8409677 53.1909274,21.8409677 L52.1441532,21.8409677 L51.6102823,21.8409677 L51.6102823,21.761129 C52.2094758,21.761129 52.5207661,21.4470161 52.8614919,21.0804839 L52.9574597,20.9841129 C53.7679435,20.1127419 54.1868952,20.2240323 54.6264113,20.2240323 L55.6739919,20.2240323 L56.2215726,20.2240323 L56.2215726,20.3046774 C55.622379,20.3046774 55.2929435,20.6143548 54.95625,20.9841129 L54.8602823,21.0804839 Z" id="Fill-544" fill="#006564" mask="url(#mask-2)"></path>
                <path d="M119.431976,21.1527823 C119.41746,21.8632661 118.849315,22.43625 118.139234,22.43625 L114.025927,22.43625 L114.025927,17.3096371 L119.431976,17.3096371 L119.431976,21.1527823 Z M111.798911,16.4527823 L111.798911,16.5314113 C112.168669,16.5314113 112.467056,17.3297984 112.467056,17.9749597 L112.467056,22.0459274 C112.467056,22.6910887 112.169476,23.2140726 111.798911,23.2140726 L111.798911,23.2922984 L118.965444,23.2931048 C120.087218,23.2931048 120.990847,22.3870565 120.990847,21.2660887 L120.990847,16.4527823 L111.798911,16.4527823 Z" id="Fill-545" fill="#006564" mask="url(#mask-2)"></path>
                <path d="M111.562581,12.2552016 L111.562581,13.62375 L111.639194,13.62375 C111.671048,13.4156855 111.923468,13.1116532 112.806129,13.1116532 L122.461371,13.1116532 L122.461371,22.2616532 C122.448468,22.9721371 121.880323,23.545121 121.168629,23.545121 C120.521452,23.545121 120.262984,23.1890726 120.262984,23.1890726 L120.182339,23.1890726 C120.182339,23.1890726 120.689194,24.0132661 120.909758,24.402379 L121.996855,24.402379 C123.118226,24.402379 124.021855,23.4963306 124.021855,22.3757661 L124.021855,12.2552016 L111.562581,12.2552016 Z" id="Fill-546" fill="#006564" mask="url(#mask-2)"></path>
                <path d="M113.507702,15.1316129 C112.862944,15.1316129 112.340766,15.4316129 112.340766,15.8005645 L112.26254,15.8005645 L112.26254,14.2743548 L120.998024,14.2743548 L120.998024,15.8005645 L120.919798,15.8005645 C120.919798,15.4316129 120.398024,15.1316129 119.752056,15.1316129 L113.507702,15.1316129 Z" id="Fill-547" fill="#006564" mask="url(#mask-2)"></path>
                <path d="M38.3026613,22.1727016 C38.2885484,22.8831855 37.72,23.4557661 37.0099194,23.4557661 L29.3990323,23.4557661 L29.3990323,13.1831855 L38.3026613,13.1831855 L38.3026613,22.1727016 Z M27.1720161,12.3267339 L27.1720161,12.4041532 C27.5409677,12.4041532 27.8401613,13.2025403 27.8401613,13.8468952 L27.8401613,23.0646371 C27.8401613,23.7102016 27.5417742,24.2335887 27.1728226,24.2335887 L27.1728226,24.3122177 L37.8377419,24.3122177 C38.9579032,24.3122177 39.8615323,23.4065726 39.8615323,22.2852016 L39.8615323,12.3259274 L27.1720161,12.3267339 Z" id="Fill-548" fill="#006564" mask="url(#mask-2)"></path>
                <path d="M32.4633065,19.67625 C32.4633065,19.8641532 32.3125,20.0145565 32.1254032,20.0145565 L31.2487903,20.0145565 L31.2487903,17.5443952 L32.4633065,17.5443952 L32.4633065,19.67625 Z M30.0028226,16.6883468 L30.0028226,20.872621 L32.5080645,20.872621 C33.1693548,20.872621 33.7064516,20.3407661 33.7064516,19.6794758 L33.7064516,16.6883468 L30.0028226,16.6883468 Z" id="Fill-549" fill="#006564" mask="url(#mask-2)"></path>
                <path d="M36.6258065,20.8172581 L36.3125,19.6366129 C36.7133065,18.8059677 37.1862903,17.8249194 37.2564516,17.6825806 C37.4633065,17.2616129 37.5818548,16.901129 37.9447581,16.7624194 L37.9439516,16.6854032 L36.0931452,16.6854032 L36.0931452,16.7422581 C36.4060484,16.8604032 36.4443548,17.16 36.0717742,17.9164516 C36.0233871,18.0140323 35.9770161,18.1095968 35.9314516,18.2019355 L35.2471774,15.6233065 L36.5528226,15.6233065 C37.4362903,15.6233065 37.6887097,15.9253226 37.7197581,16.1345968 L37.7979839,16.1345968 L37.7979839,14.7668548 L37.0350806,14.7668548 C37.3475806,14.0809677 37.4653226,13.8991129 37.725,13.8712903 L37.725,13.793871 L35.8237903,13.793871 L35.8237903,13.8446774 C36.096371,13.9479032 36.1552419,14.2027419 35.9084677,14.7668548 L35.0120968,14.7668548 C34.8649194,14.1987097 34.9665323,13.9567742 35.2572581,13.8523387 L35.2580645,13.7950806 L32.8427419,13.7950806 L32.8415323,13.8733065 C33.371371,13.9821774 33.5185484,14.3382258 33.6350806,14.7668548 L29.9834677,14.7668548 L29.9834677,16.1345968 L30.0616935,16.1345968 C30.0927419,15.9253226 30.3451613,15.6233065 31.228629,15.6233065 L33.8592742,15.6233065 L35.0254032,20.076129 C34.3879032,21.3442742 34.0096774,21.7858065 33.0951613,21.7858065 L31.1802419,21.7854032 C30.4991935,21.7854032 30.0298387,21.6124194 29.8322581,21.3075806 L29.7544355,21.3075806 L30.5177419,22.6422581 L33.1762097,22.6422581 C34.1701613,22.6422581 34.8419355,22.2132258 35.3955645,21.3958871 C35.6072581,22.0579839 35.8915323,22.6789516 36.7955645,22.6789516 L37.8241935,22.6789516 L37.825,22.6257258 C37.191129,22.3757258 36.9915323,22.1305645 36.6258065,20.8172581" id="Fill-550" fill="#006564" mask="url(#mask-2)"></path>
                <path d="M71.3969758,13.335121 C71.3969758,12.7657661 71.5836694,12.4177823 71.8824597,12.4177823 L71.8824597,12.3399597 L69.3586694,12.3399597 L69.3586694,12.4177823 C69.6566532,12.4177823 69.8429435,12.7657661 69.8429435,13.335121 L67.5953629,13.335121 L67.5953629,14.8617339 L67.6735887,14.8617339 C67.6735887,14.4931855 68.1957661,14.192379 68.8409274,14.192379 L72.434879,14.192379 C73.0788306,14.192379 73.6018145,14.4931855 73.6018145,14.8617339 L73.6796371,14.8617339 L73.6796371,13.335121 L71.3969758,13.335121 Z" id="Fill-551" fill="#006564" mask="url(#mask-2)"></path>
                <path d="M71.4222581,22.6094758 C71.4222581,23.2280242 71.3541129,24.6118952 72.6246774,24.6118952 C72.9956452,24.6118952 73.293629,24.4752016 73.4448387,24.4284274 C73.6718548,23.8788306 73.9525,23.2502016 73.9525,23.2502016 L73.8758871,23.2502016 C73.8758871,23.2502016 73.6573387,23.6417339 73.2178226,23.6417339 C72.7855645,23.6417339 72.8266935,22.9647177 72.8266935,22.6921371 L72.8266935,16.9639113 C72.8266935,16.4296371 72.9303226,14.9377016 71.2956452,14.9377016 L68.636371,14.9377016 L68.636371,20.9885081 C68.636371,23.0602823 68.4734677,24.472379 67.6904032,24.472379 L67.6904032,24.5506048 L68.6335484,24.5506048 C69.9799194,24.5506048 70.0412097,23.0054435 70.0412097,21.0667339 L70.0416129,15.872379 L70.623871,15.872379 C71.3347581,15.872379 71.4093548,16.4449597 71.4222581,17.15625 L71.4222581,22.6877016 L71.4222581,22.6893145" id="Fill-552" fill="#006564" mask="url(#mask-2)"></path>
                <path d="M64.29875,16.6631452 C64.4435081,17.5566935 64.6306048,17.5627419 65.0902823,17.5627419 L65.6382661,17.5627419 L65.6382661,17.4816935 C65.495121,17.4816935 65.3019758,17.2349194 65.2096371,16.6631452 L65.0245565,15.5066935 C64.8793952,14.6123387 64.6931048,14.6062903 64.2322177,14.6062903 L63.6854435,14.6062903 L63.6854435,14.6873387 C63.8269758,14.6873387 64.020121,14.9341129 64.1124597,15.5066935 L64.29875,16.6631452 Z" id="Fill-553" fill="#006564" mask="url(#mask-2)"></path>
                <path d="M64.29875,21.6072581 C64.4435081,22.5012097 64.6306048,22.5076613 65.0902823,22.5076613 L65.6382661,22.5076613 L65.6382661,22.4274194 C65.495121,22.4274194 65.3019758,22.1798387 65.2096371,21.6072581 L65.0245565,20.4520161 C64.8793952,19.5568548 64.6931048,19.5512097 64.2322177,19.5512097 L63.6854435,19.5512097 L63.6854435,19.6322581 C63.8269758,19.6322581 64.020121,19.8790323 64.1124597,20.4520161 L64.29875,21.6072581 Z" id="Fill-554" fill="#006564" mask="url(#mask-2)"></path>
                <path d="M63.5803629,18.1259274 L63.5799597,13.9489113 L63.5803629,13.9489113 L63.9352016,13.9489113 L65.775121,13.9489113 L65.775121,18.1259274 L63.5803629,18.1259274 Z M67.1803629,18.1259274 L67.1803629,13.0138306 L64.1295565,13.0138306 L64.1569758,12.9674597 C64.4872177,12.4065726 64.81625,12.1638306 64.9739113,12.1638306 L64.9739113,12.0856048 L63.91625,12.0856048 C63.4057661,12.0856048 63.1964919,12.0908468 62.6799597,12.9674597 L62.0134274,14.1013306 C61.6827823,14.6622177 61.3545565,14.9041532 61.1964919,14.9041532 L61.1964919,14.9835887 L62.1759274,14.9835887 L62.1759274,18.1259274 L61.419879,18.1259274 L61.419879,19.6521371 L61.4977016,19.6521371 C61.4977016,19.3831855 61.7755242,19.1517339 62.1759274,19.0456855 L62.1759274,20.9884274 C62.1759274,23.0602016 62.0122177,24.4727016 61.22875,24.4727016 L61.22875,24.5509274 L62.1718952,24.5509274 C63.5190726,24.5509274 63.5803629,23.0053629 63.5803629,21.0666532 L63.5803629,18.9835887 L65.775121,18.9835887 L65.775121,22.7993145 C65.775121,23.2114113 65.7497177,23.6440726 65.0771371,23.6440726 C64.7130242,23.6440726 64.5045565,23.5424597 64.2138306,23.2146371 L64.1360081,23.2146371 L64.8807661,24.550121 C65.125121,24.5852016 65.2646371,24.6061694 65.6081855,24.6061694 C65.9513306,24.6061694 67.1803629,24.612621 67.1803629,22.7993145 L67.1803629,19.0468952 C67.5783468,19.1533468 67.85375,19.3839919 67.85375,19.6521371 L67.9319758,19.6521371 L67.9319758,18.1259274 L67.1803629,18.1259274 Z" id="Fill-555" fill="#006564" mask="url(#mask-2)"></path>
                <path d="M7.50266129,11.9424597 C7.42403226,11.9529435 7.33572581,11.8384274 7.29822581,11.7852016 C7.28733871,11.7690726 7.24298387,11.6779435 7.25548387,11.6642339 C7.27120968,11.650121 7.36112903,11.6807661 7.38532258,11.7005242 C7.4433871,11.7472984 7.49177419,11.8122177 7.51919355,11.9235081 C7.52120968,11.9360081 7.50991935,11.9416532 7.50266129,11.9424597 M5.59701613,10.8856048 C5.5433871,10.9049597 5.41112903,10.7549597 5.37403226,10.7005242 C5.30629032,10.5977016 5.23895161,10.4843952 5.16596774,10.3852016 C5.09983871,10.2956855 5.02645161,10.2319758 5.00951613,10.0767339 C5.0075,10.0585887 4.99620968,10.0122177 5.00790323,10.0130242 C5.08048387,10.0186694 5.15024194,10.1464919 5.18653226,10.1956855 C5.21233871,10.2311694 5.2433871,10.2670565 5.26758065,10.3049597 C5.30266129,10.3589919 5.31798387,10.4247177 5.35508065,10.4759274 C5.40104839,10.5384274 5.45629032,10.5964919 5.50467742,10.6589919 C5.5308871,10.6924597 5.56596774,10.7222984 5.58209677,10.7678629 C5.59016129,10.79125 5.61233871,10.8779435 5.59701613,10.8856048 M5.05104839,10.8642339 C5.01032258,10.8610081 4.9933871,10.8356048 4.96798387,10.8170565 C4.90024194,10.7678629 4.84540323,10.6880242 4.8433871,10.5722984 C4.84258065,10.5602016 4.84701613,10.5569758 4.85427419,10.5569758 C4.9341129,10.5565726 5.01596774,10.6791532 5.0466129,10.7368145 C5.0558871,10.75375 5.07604839,10.800121 5.07282258,10.8327823 C5.07120968,10.8545565 5.06354839,10.8638306 5.05104839,10.8642339 M3.23653226,11.2319758 C3.2341129,11.2396371 3.22645161,11.2513306 3.21395161,11.2525403 C3.12766129,11.2497177 3.10185484,11.119879 3.06354839,11.0614113 C3.03330645,11.0130242 3.00629032,10.9589919 2.97362903,10.9097984 C2.95104839,10.8759274 2.92241935,10.8400403 2.90346774,10.8009274 C2.88048387,10.7505242 2.87,10.6981048 2.84137097,10.65375 C2.82564516,10.6299597 2.80104839,10.6097984 2.7841129,10.587621 C2.73774194,10.5239113 2.69419355,10.4569758 2.66435484,10.3771371 C2.6575,10.3489113 2.65024194,10.3206855 2.64258065,10.2920565 C2.62443548,10.2440726 2.60266129,10.1920565 2.58733871,10.1404435 C2.57927419,10.1146371 2.57403226,10.062621 2.57927419,10.044879 C2.58169355,10.0360081 2.58491935,10.0311694 2.59137097,10.032379 C2.65790323,10.0428629 2.72120968,10.20375 2.75346774,10.2622177 C2.78854839,10.3247177 2.845,10.3755242 2.87645161,10.4408468 C2.90427419,10.4993145 2.91274194,10.5739113 2.94459677,10.6311694 C2.96919355,10.6747177 3.01072581,10.7097984 3.03774194,10.7517339 C3.07362903,10.8065726 3.09822581,10.8775403 3.12564516,10.9384274 C3.15669355,11.0061694 3.20225806,11.0589919 3.22927419,11.125121 C3.23975806,11.1533468 3.245,11.2017339 3.23653226,11.2319758 M2.89943548,8.75778226 C2.88370968,8.72834677 2.86475806,8.69245968 2.85306452,8.66100806 C2.84016129,8.62431452 2.83774194,8.59004032 2.82282258,8.55616935 C2.77201613,8.44245968 2.71435484,8.31745968 2.66314516,8.20657258 C2.64177419,8.15939516 2.61274194,8.07189516 2.63330645,8.01262097 C2.63612903,8.00415323 2.65306452,8.01020161 2.66072581,8.01705645 C2.67846774,8.03237903 2.69016129,8.04245968 2.70467742,8.05979839 C2.71596774,8.07592742 2.71919355,8.09366935 2.72967742,8.10979839 C2.75508065,8.14850806 2.78733871,8.18721774 2.80709677,8.23116935 C2.84943548,8.32149194 2.86032258,8.42512097 2.90266129,8.51423387 C2.93048387,8.57270161 2.97604839,8.62431452 3.00508065,8.68520161 C3.02040323,8.71665323 3.02967742,8.75092742 3.03975806,8.78600806 C3.04620968,8.81100806 3.045,8.84649194 3.04580645,8.86705645 C3.04782258,8.89729839 3.04419355,8.91705645 3.03209677,8.9178629 C2.95306452,8.91342742 2.92927419,8.81504032 2.89943548,8.75778226 M20.1441935,16.3972984 C20.0433871,16.0275403 18.961129,16.1864113 18.0695968,16.1053629 C17.2599194,16.0311694 16.22,15.8856048 14.97,15.4517339 C13.8018548,15.0464919 12.67,14.5815726 11.6841129,14.0481048 C11.6841129,14.0481048 11.2849194,13.8384274 11.2429839,13.8146371 C11.1603226,13.7646371 11.0966129,13.7283468 11.0155645,13.6783468 C10.9675806,13.6497177 10.8941935,13.6057661 10.8393548,13.5819758 C10.7704032,13.5533468 10.723629,13.5158468 10.6643548,13.4791532 C10.6030645,13.4420565 10.52,13.4017339 10.4587097,13.3646371 C10.3679839,13.3085887 10.3115323,13.2650403 10.2268548,13.2029435 C10.173629,13.1650403 10.1474194,13.1533468 10.0760484,13.1102016 C10.0337097,13.0843952 9.95669355,13.0428629 9.9183871,13.0174597 C9.83935484,12.9654435 9.78895161,12.9218952 9.70951613,12.8670565 C9.66112903,12.8327823 9.62564516,12.8118145 9.56717742,12.7759274 C9.50991935,12.7408468 9.45548387,12.6956855 9.40548387,12.6589919 C9.37766129,12.6380242 9.33653226,12.6142339 9.31112903,12.5884274 C9.25387097,12.5327823 9.19620968,12.4819758 9.13572581,12.4331855 C9.07927419,12.3916532 9.02725806,12.3408468 8.97201613,12.2997177 C8.93733871,12.2743145 8.87846774,12.2239113 8.8433871,12.1981048 C8.75467742,12.1343952 8.69903226,12.0864113 8.60991935,12.0218952 C8.55185484,11.9799597 8.50467742,11.9239113 8.44822581,11.8815726 C8.38290323,11.8339919 8.32524194,11.7799597 8.25951613,11.7327823 C8.21637097,11.7021371 8.16798387,11.6646371 8.13572581,11.6311694 C8.09258065,11.5803629 8.05225806,11.5464919 8.0091129,11.4952823 C7.97685484,11.4585887 7.91193548,11.419879 7.87645161,11.382379 C7.8216129,11.312621 7.74379032,11.2392339 7.67120968,11.1839919 C7.62806452,11.1436694 7.61435484,11.125121 7.59862903,11.1033468 C7.58491935,11.0856048 7.56959677,11.0650403 7.5341129,11.0283468 C7.49862903,10.9924597 7.48733871,10.9815726 7.4716129,10.9674597 C7.45629032,10.9533468 7.43733871,10.9360081 7.38935484,10.8888306 C7.37362903,10.8731048 7.34862903,10.8384274 7.32403226,10.8041532 C7.30185484,10.7735081 7.28129032,10.7444758 7.26677419,10.72875 C7.22483871,10.6827823 7.195,10.6517339 7.16395161,10.6194758 C7.14177419,10.5960887 7.11919355,10.5718952 7.09056452,10.54125 C7.07362903,10.5235081 7.0591129,10.5013306 7.04540323,10.4803629 C7.03209677,10.4606048 7.01798387,10.4392339 7.00266129,10.4222984 C6.97645161,10.3932661 6.95669355,10.4033468 6.95145161,10.4069758 C6.93612903,10.4178629 6.92967742,10.4481048 6.94822581,10.4852016 C6.96959677,10.5279435 7.00346774,10.5759274 7.02403226,10.6049597 C7.02806452,10.6106048 7.03209677,10.6158468 7.03451613,10.6194758 C7.04298387,10.6327823 7.05104839,10.6464919 7.05830645,10.6602016 C7.07,10.6811694 7.08169355,10.7021371 7.09741935,10.7222984 C7.12967742,10.7666532 7.16556452,10.80375 7.20064516,10.8396371 C7.21112903,10.8509274 7.22322581,10.8630242 7.23451613,10.875121 C7.2575,10.8997177 7.27604839,10.9255242 7.29459677,10.9533468 C7.31395161,10.9807661 7.33370968,11.0093952 7.35951613,11.0364113 C7.37080645,11.0489113 7.38129032,11.062621 7.39096774,11.0763306 C7.40185484,11.09125 7.41354839,11.107379 7.42725806,11.1202823 C7.44701613,11.1392339 7.46677419,11.1597984 7.48653226,11.1799597 C7.5183871,11.2134274 7.55266129,11.2481048 7.58572581,11.2763306 C7.60991935,11.2972984 7.63612903,11.3239113 7.66233871,11.3493145 C7.72887097,11.4279435 7.80024194,11.5069758 7.85951613,11.582379 C7.89379032,11.6255242 7.9558871,11.6569758 7.99419355,11.6864113 C8.03733871,11.7182661 8.07040323,11.7739113 8.10427419,11.8166532 C8.12927419,11.8464919 8.18612903,11.8981048 8.21314516,11.9295565 C8.28008065,12.0146371 8.32524194,12.0606048 8.41193548,12.1247177 C8.46435484,12.1634274 8.50508065,12.1993145 8.54580645,12.2509274 C8.57,12.2815726 8.64580645,12.3549597 8.67362903,12.3896371 C8.74580645,12.4811694 8.77846774,12.56625 8.76798387,12.5686694 C8.7183871,12.5819758 8.59943548,12.4763306 8.52887097,12.4299597 C8.47040323,12.39125 8.46153226,12.375121 8.40629032,12.3343952 C8.39419355,12.3243145 8.30629032,12.2622177 8.27564516,12.2247177 C8.25185484,12.2029435 8.18612903,12.1319758 8.16637097,12.107379 C8.06717742,11.9807661 8.03370968,11.9731048 7.91919355,11.8618145 C7.83572581,11.7807661 7.73330645,11.7077823 7.65185484,11.6352016 C7.62806452,11.6093952 7.60387097,11.5831855 7.57967742,11.5569758 C7.55306452,11.5303629 7.51919355,11.5057661 7.49580645,11.4791532 C7.45790323,11.4311694 7.40709677,11.3380242 7.36193548,11.3041532 C7.31435484,11.2682661 7.27967742,11.2347984 7.23169355,11.1989113 C7.21516129,11.1868145 7.19903226,11.1646371 7.18209677,11.1517339 C7.1591129,11.1347984 7.13209677,11.1154435 7.11475806,11.0932661 C7.05870968,11.0218952 7.00427419,10.9505242 6.94822581,10.87875 C6.92201613,10.8452823 6.88532258,10.8166532 6.85951613,10.7815726 C6.80508065,10.7065726 6.75991935,10.6283468 6.70508065,10.5561694 C6.62846774,10.4557661 6.5183871,10.3843952 6.44419355,10.2831855 C6.36798387,10.1791532 6.32282258,10.057379 6.25064516,9.94850806 C6.21959677,9.90173387 6.17040323,9.86826613 6.13774194,9.82350806 C6.11717742,9.79689516 6.10669355,9.76705645 6.08814516,9.73842742 C6.05064516,9.6803629 6.00508065,9.62350806 5.96596774,9.56705645 C5.91516129,9.4928629 5.8808871,9.41181452 5.83048387,9.33399194 C5.82201613,9.32270161 5.80427419,9.27028226 5.77282258,9.23076613 C5.74258065,9.19205645 5.71556452,9.14810484 5.68169355,9.0928629 C5.64620968,9.03721774 5.62887097,9.00052419 5.60427419,8.96262097 C5.57887097,8.92471774 5.56193548,8.88842742 5.54540323,8.86181452 C5.52887097,8.83479839 5.49217742,8.78520161 5.47967742,8.76504032 C5.43290323,8.69326613 5.42120968,8.66060484 5.37120968,8.59407258 C5.34177419,8.55375 5.31032258,8.52028226 5.28330645,8.52995968 C5.26153226,8.54528226 5.26959677,8.57028226 5.27403226,8.58842742 C5.2966129,8.64729839 5.29620968,8.63681452 5.31879032,8.67875 C5.35709677,8.74891129 5.37080645,8.78278226 5.41193548,8.84649194 C5.43169355,8.87754032 5.46475806,8.94729839 5.49137097,8.98641129 C5.51879032,9.02471774 5.545,9.07028226 5.56314516,9.10254032 C5.5825,9.13641129 5.61193548,9.22633065 5.64137097,9.26342742 C5.66233871,9.29004032 5.69096774,9.34568548 5.71112903,9.38439516 C5.75104839,9.46383065 5.80145161,9.52673387 5.84298387,9.5896371 C5.87120968,9.64165323 5.89822581,9.6928629 5.92604839,9.74487903 C5.98048387,9.82754032 6.04540323,9.90576613 6.10104839,9.99004032 C6.1341129,10.0497177 6.16717742,10.1089919 6.19983871,10.1686694 C6.2325,10.2174597 6.27685484,10.2585887 6.3091129,10.3089919 C6.34741935,10.3686694 6.37,10.4335887 6.40830645,10.4920565 C6.43895161,10.5380242 6.47927419,10.5819758 6.50991935,10.6279435 C6.56233871,10.7065726 6.60951613,10.782379 6.66516129,10.857379 C6.695,10.8985081 6.73572581,10.9331855 6.76596774,10.9743145 C6.80790323,11.0311694 6.84096774,11.0981048 6.88451613,11.1452823 C6.93612903,11.1940726 6.95145161,11.2227016 6.99096774,11.2702823 C7.05225806,11.3428629 7.20225806,11.5557661 7.17725806,11.5569758 C7.08814516,11.5686694 6.91879032,11.3759274 6.84701613,11.3061694 C6.79096774,11.2513306 6.72967742,11.2118145 6.69056452,11.1593952 C6.63451613,11.082379 6.59298387,10.9968952 6.53572581,10.9227016 C6.51475806,10.8956855 6.4841129,10.8739113 6.46354839,10.8481048 C6.42403226,10.7977016 6.38774194,10.7440726 6.34217742,10.700121 C6.32362903,10.6819758 6.30346774,10.6658468 6.28532258,10.6456855 C6.21637097,10.5565726 6.15830645,10.4614113 6.09056452,10.3690726 C6.06274194,10.3311694 6.02564516,10.2981048 5.99822581,10.2602016 C5.97604839,10.2303629 5.96435484,10.1981048 5.94419355,10.1670565 C5.91717742,10.1247177 5.8825,10.0835887 5.85467742,10.0424597 C5.8341129,10.0114113 5.82201613,9.9803629 5.80104839,9.94931452 C5.76475806,9.89366935 5.71556452,9.84528226 5.67967742,9.78923387 C5.65024194,9.74366935 5.64177419,9.68318548 5.61233871,9.63802419 C5.53733871,9.52229839 5.45387097,9.40415323 5.37967742,9.28802419 C5.36072581,9.25778226 5.35306452,9.22471774 5.33370968,9.19447581 C5.27362903,9.10052419 5.21717742,8.99649194 5.1575,8.90294355 C5.13491935,8.86826613 5.12564516,8.82875 5.10346774,8.79447581 C5.07564516,8.75173387 5.0341129,8.71947581 5.00669355,8.67754032 C4.98532258,8.64487903 4.97725806,8.60979839 4.95991935,8.57229839 C4.93733871,8.52391129 4.9075,8.47512097 4.88129032,8.42875 C4.86556452,8.40012097 4.8575,8.37108871 4.83975806,8.34326613 C4.7683871,8.23116935 4.70830645,8.11020161 4.64943548,7.98600806 C4.61879032,7.92108871 4.57282258,7.86020161 4.54217742,7.79528226 C4.5075,7.72270161 4.47443548,7.64850806 4.44217742,7.57754032 C4.42443548,7.52995968 4.4075,7.48197581 4.39016129,7.43399194 C4.35548387,7.35899194 4.30185484,7.29447581 4.26677419,7.21665323 C4.24298387,7.16383065 4.23048387,7.11383065 4.2091129,7.06947581 C4.19620968,7.04205645 4.17,7.01987903 4.15024194,7.03197581 C4.13129032,7.04366935 4.12846774,7.06826613 4.14016129,7.10939516 C4.16354839,7.18883065 4.2075,7.27955645 4.22806452,7.32471774 C4.26879032,7.4146371 4.28895161,7.50778226 4.33048387,7.60012097 C4.35266129,7.65092742 4.38612903,7.69931452 4.40870968,7.74770161 C4.44943548,7.83358871 4.48733871,7.92229839 4.52604839,8.00415323 C4.54862903,8.05254032 4.56677419,8.09850806 4.59258065,8.14407258 C4.60669355,8.1678629 4.62645161,8.19487903 4.63814516,8.22149194 C4.66435484,8.27995968 4.67241935,8.34125 4.69822581,8.39649194 C4.72604839,8.45415323 4.77040323,8.50254032 4.79701613,8.55979839 C4.93451613,8.85173387 5.07362903,9.13157258 5.24016129,9.39125 C5.28653226,9.46342742 5.31032258,9.5521371 5.35669355,9.62431452 C5.40467742,9.69850806 5.47080645,9.75737903 5.51879032,9.83076613 C5.55830645,9.89125 5.56717742,9.97552419 5.60346774,10.0404435 C5.65709677,10.1388306 5.72806452,10.2214919 5.78653226,10.312621 C5.80346774,10.3384274 5.80790323,10.3682661 5.82403226,10.3936694 C5.84701613,10.4295565 5.87524194,10.4642339 5.89782258,10.4993145 C5.92846774,10.5468952 5.94379032,10.6021371 5.97604839,10.6468952 C6.01233871,10.694879 6.06193548,10.7347984 6.09741935,10.7831855 C6.14137097,10.8436694 6.17120968,10.9134274 6.21596774,10.9739113 C6.24741935,11.01625 6.29701613,11.044879 6.32887097,11.0868145 C6.37967742,11.15375 6.55387097,11.3835887 6.60467742,11.4485081 C6.6825,11.5468952 6.81919355,11.6916532 6.8841129,11.8206855 C6.90346774,11.8610081 6.97322581,11.9557661 6.9575,11.9743145 C6.92080645,11.9989113 6.74822581,11.8097984 6.71879032,11.7819758 C6.64620968,11.7118145 6.58330645,11.6170565 6.52120968,11.537621 C6.50548387,11.5194758 6.33895161,11.3565726 6.32524194,11.3388306 C6.3091129,11.3170565 6.29137097,11.2940726 6.27685484,11.2722984 C6.2308871,11.2033468 6.20266129,11.1202823 6.15306452,11.0545565 C6.13290323,11.0279435 6.10145161,11.007379 6.0808871,10.9807661 C6.04298387,10.9307661 6.01596774,10.8722984 5.97887097,10.8210887 C5.91919355,10.7400403 5.8433871,10.6678629 5.78451613,10.587621 C5.71959677,10.4989113 5.67443548,10.394879 5.60870968,10.307379 C5.57604839,10.2642339 5.53370968,10.225121 5.50346774,10.17875 C5.48975806,10.1581855 5.48370968,10.137621 5.47080645,10.1166532 C5.4466129,10.0803629 5.41516129,10.0400403 5.3966129,9.99971774 C5.37887097,9.96342742 5.36798387,9.92834677 5.3466129,9.89528226 C5.27846774,9.78842742 5.20991935,9.67471774 5.14177419,9.56826613 C5.11072581,9.52068548 5.09379032,9.46866935 5.06274194,9.42068548 C5.01193548,9.34165323 4.94782258,9.27108871 4.8966129,9.19084677 C4.83612903,9.09689516 4.80346774,8.98278226 4.74258065,8.88802419 C4.70306452,8.82633065 4.65629032,8.76705645 4.61677419,8.70495968 C4.57282258,8.63802419 4.55104839,8.55899194 4.51153226,8.48762097 C4.47806452,8.42592742 4.4308871,8.3678629 4.40145161,8.30495968 C4.3683871,8.23762097 4.34620968,8.16947581 4.31274194,8.09931452 C4.29540323,8.06221774 4.26758065,8.02512097 4.25024194,7.98641129 C4.22967742,7.93842742 4.22443548,7.88923387 4.20306452,7.8428629 C4.1433871,7.71221774 4.05387097,7.58883065 3.99258065,7.45818548 C3.94862903,7.36544355 3.91032258,7.26907258 3.87403226,7.17068548 C3.85467742,7.11705645 3.84540323,7.06625 3.82201613,7.01544355 C3.76758065,6.89649194 3.70024194,6.76987903 3.6466129,6.65052419 C3.62443548,6.58721774 3.60145161,6.52391129 3.57846774,6.46020161 C3.57443548,6.44245968 3.57201613,6.42471774 3.56516129,6.40616935 C3.54096774,6.34971774 3.50709677,6.29487903 3.48532258,6.23923387 C3.46516129,6.17431452 3.445,6.10979839 3.42483871,6.04528226 C3.33935484,5.83479839 3.26395161,5.59729839 3.18451613,5.37754032 C3.17362903,5.33802419 3.1716129,5.28883065 3.15709677,5.24608871 C3.11596774,5.13318548 3.07443548,5.02068548 3.03330645,4.90818548 C3.01072581,4.85133065 2.9558871,4.87068548 2.96798387,4.92834677 C2.98491935,5.00616935 2.99540323,5.02471774 3.00870968,5.08600806 C3.01435484,5.11705645 3.02080645,5.14770161 3.02685484,5.17875 C3.03532258,5.21625 3.05467742,5.25576613 3.06596774,5.29125 C3.08693548,5.35858871 3.08814516,5.42512097 3.11193548,5.48923387 C3.14379032,5.5803629 3.17604839,5.66705645 3.2058871,5.76100806 C3.21475806,5.80737903 3.22443548,5.85375 3.2341129,5.90092742 C3.24741935,5.94366935 3.26475806,5.98842742 3.2808871,6.02834677 C3.32725806,6.1428629 3.37120968,6.25294355 3.41274194,6.36625 C3.42887097,6.43116935 3.44540323,6.49568548 3.46153226,6.56020161 C3.47806452,6.59649194 3.50346774,6.63358871 3.52,6.66866935 C3.5341129,6.69971774 3.53733871,6.72955645 3.55024194,6.76181452 C3.57927419,6.83520161 3.6058871,6.90979839 3.63895161,6.98318548 C3.66637097,7.04407258 3.69943548,7.10495968 3.72362903,7.16947581 C3.73451613,7.20092742 3.73451613,7.22834677 3.74580645,7.25899194 C3.81556452,7.45133065 3.89258065,7.65294355 3.97483871,7.83318548 C3.99540323,7.87955645 4.00104839,7.92673387 4.02201613,7.97310484 C4.03895161,8.01141129 4.06274194,8.05254032 4.07967742,8.0896371 C4.08854839,8.11423387 4.09701613,8.13883065 4.10629032,8.16342742 C4.13129032,8.21745968 4.17524194,8.26221774 4.20024194,8.31544355 C4.27120968,8.4646371 4.33451613,8.60657258 4.42403226,8.73479839 C4.50629032,8.85294355 4.54137097,9.00939516 4.60427419,9.15012097 C4.6341129,9.21705645 4.67403226,9.27471774 4.71153226,9.33278226 C4.72967742,9.36383065 4.74217742,9.39770161 4.75790323,9.42995968 C4.79822581,9.50375 4.82,9.5678629 4.86798387,9.63278226 C4.90709677,9.68600806 4.90346774,9.69770161 4.93572581,9.77270161 C4.94540323,9.79447581 4.98169355,9.93479839 4.97524194,9.93479839 C4.96193548,9.94366935 4.89298387,9.90173387 4.86919355,9.87592742 C4.83814516,9.84084677 4.78814516,9.79366935 4.75467742,9.71705645 C4.73814516,9.67915323 4.70266129,9.61342742 4.68491935,9.57633065 C4.64137097,9.48318548 4.56798387,9.40455645 4.51395161,9.32028226 C4.48169355,9.27028226 4.46475806,9.21544355 4.43814516,9.16060484 C4.39258065,9.06302419 4.34016129,8.96262097 4.29258065,8.86141129 C4.27282258,8.81947581 4.24258065,8.77875 4.2183871,8.74084677 C4.19379032,8.70173387 4.18169355,8.65979839 4.15669355,8.62028226 C4.10145161,8.53439516 4.03975806,8.43762097 3.99620968,8.34447581 C3.96354839,8.27592742 3.94701613,8.20576613 3.91556452,8.13883065 C3.90508065,8.11745968 3.88653226,8.09568548 3.87443548,8.07673387 C3.85225806,8.04125 3.84258065,8.00254032 3.82443548,7.96423387 C3.79943548,7.91141129 3.76193548,7.86221774 3.73733871,7.80818548 C3.68895161,7.7021371 3.65991935,7.59165323 3.61032258,7.48600806 C3.58693548,7.43762097 3.54701613,7.39528226 3.52443548,7.34608871 C3.48814516,7.27108871 3.48451613,7.17754032 3.44983871,7.09810484 C3.35709677,6.89044355 3.25185484,6.67552419 3.1716129,6.45737903 C3.15951613,6.42108871 3.1558871,6.37995968 3.14459677,6.34084677 C3.11072581,6.24649194 3.06395161,6.15818548 3.0308871,6.06504032 C3.01475806,6.02270161 3.01072581,5.98358871 2.99540323,5.94125 C2.97241935,5.87754032 2.94217742,5.81100806 2.91879032,5.74729839 C2.91314516,5.72552419 2.91032258,5.70294355 2.90145161,5.68116935 C2.87443548,5.62149194 2.85709677,5.55012097 2.82846774,5.48681452 C2.81395161,5.45455645 2.79177419,5.42108871 2.77806452,5.38600806 C2.7558871,5.32391129 2.76274194,5.24528226 2.74096774,5.18479839 C2.70870968,5.09568548 2.67080645,5.00133065 2.63854839,4.91262097 C2.62,4.86262097 2.61637097,4.81262097 2.59862903,4.76181452 C2.57766129,4.70294355 2.55548387,4.63762097 2.53370968,4.57915323 C2.51153226,4.5178629 2.51274194,4.45375 2.49258065,4.38923387 C2.47725806,4.34084677 2.4575,4.29084677 2.44096774,4.24568548 C2.41072581,4.16060484 2.39862903,4.06947581 2.36677419,3.9896371 C2.36072581,3.97512097 2.35629032,3.95979839 2.35064516,3.94568548 C2.34217742,3.92431452 2.32766129,3.90254032 2.30548387,3.90899194 C2.28048387,3.91584677 2.28129032,3.94770161 2.28290323,3.96866935 C2.28733871,4.03157258 2.31072581,4.0896371 2.32887097,4.14044355 C2.34862903,4.19366935 2.35870968,4.25133065 2.37322581,4.30294355 C2.38129032,4.33600806 2.38048387,4.37270161 2.38895161,4.40778226 C2.40064516,4.45778226 2.4183871,4.50616935 2.4325,4.55495968 C2.4433871,4.60455645 2.43814516,4.65254032 2.44862903,4.69084677 C2.48129032,4.79729839 2.51637097,4.9178629 2.55266129,5.02028226 C2.56798387,5.07350806 2.57040323,5.13358871 2.58532258,5.17915323 C2.6058871,5.23358871 2.62564516,5.28802419 2.64540323,5.34245968 C2.66193548,5.38802419 2.66637097,5.43157258 2.68491935,5.47431452 C2.70508065,5.51947581 2.72806452,5.56705645 2.74379032,5.6178629 C2.76516129,5.68479839 2.76314516,5.75012097 2.78572581,5.81141129 C2.82282258,5.91302419 2.86879032,6.00899194 2.90467742,6.10697581 C2.91596774,6.14205645 2.91959677,6.17955645 2.93169355,6.21544355 C2.96193548,6.30052419 2.98290323,6.39044355 3.01354839,6.47552419 C3.05830645,6.59608871 3.11435484,6.71342742 3.1575,6.83278226 C3.20024194,6.95012097 3.2058871,7.09125 3.25548387,7.20052419 C3.2808871,7.2553629 3.33370968,7.28842742 3.35709677,7.34084677 C3.37322581,7.37512097 3.3683871,7.41383065 3.38048387,7.45334677 C3.39419355,7.49850806 3.41556452,7.54366935 3.43169355,7.58520161 C3.44177419,7.62310484 3.45225806,7.66060484 3.46314516,7.69770161 C3.47766129,7.7428629 3.50951613,7.78721774 3.52927419,7.82995968 C3.56112903,7.90052419 3.57766129,7.97350806 3.61758065,8.03600806 C3.64741935,8.08237903 3.68653226,8.1271371 3.71153226,8.17955645 C3.73895161,8.23883065 3.74903226,8.30133065 3.77564516,8.36221774 C3.81556452,8.45133065 3.86354839,8.53721774 3.89701613,8.62995968 C3.92806452,8.71423387 3.93935484,8.80455645 3.97967742,8.87834677 C4.02,8.95133065 4.07,9.01826613 4.11072581,9.09205645 C4.13572581,9.14649194 4.16112903,9.20092742 4.18612903,9.2553629 C4.2075,9.29971774 4.24782258,9.33883065 4.2716129,9.38358871 C4.30266129,9.43923387 4.33370968,9.49810484 4.35870968,9.55455645 C4.37846774,9.59770161 4.38572581,9.63802419 4.40991935,9.67471774 C4.44701613,9.73278226 4.47322581,9.77875 4.51032258,9.83681452 C4.54298387,9.88721774 4.57967742,9.95254032 4.60346774,10.0134274 C4.62080645,10.0589919 4.63935484,10.107379 4.66556452,10.1452823 C4.6933871,10.1847984 4.73129032,10.2190726 4.75548387,10.2622177 C4.77846774,10.3045565 4.81193548,10.4428629 4.79943548,10.4493145 C4.76879032,10.4602016 4.68491935,10.3791532 4.66153226,10.3505242 C4.595,10.2694758 4.56153226,10.1614113 4.50104839,10.0747177 C4.43693548,9.98197581 4.39459677,9.92955645 4.345,9.82350806 C4.31596774,9.76141129 4.26516129,9.65133065 4.22846774,9.59649194 C4.19540323,9.54487903 4.14983871,9.49891129 4.12322581,9.44044355 C4.10266129,9.3928629 4.09177419,9.33641129 4.0716129,9.2896371 C4.03935484,9.22108871 3.97403226,9.17673387 3.94137097,9.10657258 C3.90387097,9.02754032 3.88612903,8.94649194 3.84741935,8.87350806 C3.82887097,8.83762097 3.80306452,8.79729839 3.78572581,8.76060484 C3.76395161,8.71383065 3.75306452,8.6678629 3.7308871,8.62068548 C3.68612903,8.52552419 3.61879032,8.44407258 3.57443548,8.34891129 C3.52806452,8.25092742 3.50266129,8.14528226 3.45467742,8.04608871 C3.43048387,7.99326613 3.38612903,7.94810484 3.36112903,7.89447581 C3.32725806,7.82350806 3.30991935,7.74931452 3.27564516,7.6771371 C3.2558871,7.63399194 3.22564516,7.59125 3.20548387,7.54891129 C3.17645161,7.48641129 3.16596774,7.41947581 3.13693548,7.35455645 C3.07241935,7.20939516 3.00427419,7.05737903 2.93975806,6.91221774 C2.91475806,6.85616935 2.9091129,6.79770161 2.88370968,6.74125 C2.8591129,6.69205645 2.83370968,6.64326613 2.8091129,6.59366935 C2.75185484,6.46544355 2.73209677,6.31544355 2.67443548,6.18641129 C2.64580645,6.12149194 2.6091129,6.05899194 2.5825,5.98802419 C2.54217742,5.87794355 2.52645161,5.76423387 2.48612903,5.65092742 C2.42443548,5.47794355 2.37443548,5.29891129 2.31233871,5.1271371 C2.29419355,5.07512097 2.29177419,5.02471774 2.27282258,4.97189516 C2.25427419,4.92149194 2.23532258,4.87108871 2.21758065,4.82068548 C2.20387097,4.7803629 2.19620968,4.72189516 2.18491935,4.66947581 C2.13975806,4.52350806 2.09217742,4.37834677 2.04540323,4.23076613 C2.03572581,4.19608871 2.03330645,4.13318548 2.02120968,4.08762097 C2.01395161,4.06302419 2.00024194,4.03318548 1.99177419,4.00979839 C1.97927419,3.97633065 1.98008065,3.94810484 1.96919355,3.91302419 C1.93491935,3.80616935 1.9058871,3.68237903 1.87201613,3.57552419 C1.86233871,3.54165323 1.85951613,3.49407258 1.84862903,3.4553629 C1.80104839,3.30334677 1.77766129,3.11745968 1.71717742,2.97552419 C1.70548387,2.94850806 1.68814516,2.91947581 1.66112903,2.92592742 C1.63370968,2.93278226 1.63975806,2.96383065 1.64298387,2.98923387 C1.65064516,3.05899194 1.67685484,3.11907258 1.68814516,3.17592742 C1.69298387,3.20133065 1.69258065,3.23762097 1.695,3.26866935 C1.69822581,3.29447581 1.70104839,3.3271371 1.70951613,3.35375 C1.73774194,3.44407258 1.77,3.55092742 1.79741935,3.64084677 C1.8058871,3.68399194 1.79903226,3.75012097 1.81032258,3.79971774 C1.84903226,3.94407258 1.87806452,4.11544355 1.93008065,4.24568548 C1.97846774,4.36423387 1.98653226,4.5053629 2.02080645,4.63318548 C2.03169355,4.68842742 2.03532258,4.74447581 2.04177419,4.80012097 C2.04983871,4.85375 2.0808871,4.89084677 2.09741935,4.93600806 C2.10951613,4.96947581 2.10870968,4.99770161 2.12,5.03278226 C2.14943548,5.12431452 2.17,5.21544355 2.20387097,5.30818548 C2.22604839,5.37189516 2.26032258,5.43237903 2.28330645,5.49447581 C2.2933871,5.52270161 2.28935484,5.54850806 2.29782258,5.57955645 C2.31274194,5.6428629 2.32443548,5.70737903 2.34258065,5.76987903 C2.38774194,5.89528226 2.4308871,6.03237903 2.47604839,6.15778226 C2.50145161,6.22754032 2.5091129,6.29568548 2.53370968,6.36302419 C2.63330645,6.63439516 2.7341129,6.90576613 2.8325,7.17431452 C2.84903226,7.23399194 2.86516129,7.29326613 2.88169355,7.35294355 C2.90346774,7.41423387 2.93975806,7.46504032 2.96475806,7.51987903 C2.99701613,7.5896371 3.00709677,7.66302419 3.0341129,7.73721774 C3.06596774,7.82391129 3.1058871,7.89125 3.13935484,7.98197581 C3.15508065,8.02471774 3.17040323,8.07189516 3.19056452,8.11383065 C3.20508065,8.14528226 3.23290323,8.17512097 3.24822581,8.20697581 C3.27362903,8.26100806 3.27887097,8.32754032 3.30387097,8.38157258 C3.32967742,8.43520161 3.37524194,8.47955645 3.40629032,8.52955645 C3.43491935,8.57633065 3.43854839,8.63520161 3.46153226,8.68842742 C3.49862903,8.77149194 3.54701613,8.84649194 3.58330645,8.93358871 C3.59782258,8.97028226 3.60508065,9.00294355 3.62120968,9.03802419 C3.63975806,9.07834677 3.66919355,9.11705645 3.68854839,9.15778226 C3.68895161,9.15778226 3.68975806,9.15858871 3.69137097,9.16262097 C3.69379032,9.16826613 3.69580645,9.17592742 3.69701613,9.18479839 C3.70225806,9.2021371 3.70790323,9.22229839 3.71354839,9.23802419 C3.72120968,9.26141129 3.74741935,9.30455645 3.75870968,9.31907258 C3.76475806,9.32794355 3.78370968,9.34891129 3.79943548,9.36826613 C3.80629032,9.37552419 3.81354839,9.38399194 3.81959677,9.39366935 C3.85508065,9.45012097 3.8591129,9.52955645 3.88814516,9.59165323 C3.91717742,9.6521371 3.96919355,9.70012097 3.99903226,9.76262097 C4.0216129,9.81060484 4.03451613,9.92875 4.00467742,9.93318548 C3.8825,9.93278226 3.87403226,9.76181452 3.83330645,9.67229839 C3.80064516,9.60254032 3.75064516,9.54487903 3.71435484,9.47794355 C3.70629032,9.4646371 3.695,9.43802419 3.68653226,9.41020161 C3.67846774,9.38721774 3.66919355,9.36181452 3.65991935,9.34245968 C3.64419355,9.30899194 3.6433871,9.31423387 3.63290323,9.29125 C3.6216129,9.26826613 3.58774194,9.22471774 3.57685484,9.20415323 C3.57604839,9.20334677 3.57524194,9.2021371 3.57483871,9.20012097 C3.52846774,9.12512097 3.49701613,9.0178629 3.46395161,8.96745968 C3.445,8.93883065 3.42080645,8.91020161 3.40266129,8.88157258 C3.3716129,8.83358871 3.35669355,8.77552419 3.33169355,8.72229839 C3.30790323,8.67391129 3.2716129,8.62512097 3.24903226,8.57471774 C3.2216129,8.5146371 3.22040323,8.43842742 3.19177419,8.37673387 C3.17685484,8.34447581 3.14943548,8.31100806 3.13451613,8.27955645 C3.09983871,8.20979839 3.08008065,8.13520161 3.04540323,8.06625 C3.02967742,8.03358871 3.00024194,8.0021371 2.9841129,7.96907258 C2.95669355,7.91100806 2.94217742,7.84810484 2.91274194,7.79447581 C2.84782258,7.67915323 2.77927419,7.55133065 2.72483871,7.42915323 C2.69419355,7.35778226 2.68330645,7.28520161 2.65185484,7.21544355 C2.62524194,7.15455645 2.58814516,7.09487903 2.56112903,7.03721774 C2.54298387,6.99770161 2.53814516,6.95979839 2.5216129,6.91665323 C2.49782258,6.84891129 2.46596774,6.77875 2.44096774,6.71100806 C2.42604839,6.66423387 2.41435484,6.56221774 2.39983871,6.52108871 C2.3808871,6.46987903 2.35427419,6.41504032 2.3325,6.36584677 C2.29903226,6.29004032 2.28814516,6.21181452 2.25467742,6.13681452 C2.22967742,6.07875 2.20064516,6.0178629 2.17967742,5.95778226 C2.16032258,5.90818548 2.1558871,5.86100806 2.13491935,5.8146371 C2.11959677,5.77915323 2.09862903,5.73842742 2.08532258,5.7021371 C2.06959677,5.65737903 2.05830645,5.58560484 2.04419355,5.5271371 C2.02282258,5.46302419 1.99540323,5.40133065 1.97604839,5.33721774 C1.96395161,5.29084677 1.96193548,5.18076613 1.94983871,5.15133065 C1.88370968,4.95375 1.82080645,4.74366935 1.75870968,4.54608871 C1.72967742,4.45495968 1.71717742,4.36383065 1.69096774,4.27471774 C1.6825,4.23923387 1.6808871,4.19407258 1.6716129,4.15858871 C1.65387097,4.10133065 1.62927419,4.0428629 1.61112903,3.98399194 C1.60145161,3.94447581 1.59580645,3.90375 1.58774194,3.86383065 C1.57846774,3.82270161 1.55669355,3.78076613 1.54096774,3.7396371 C1.50266129,3.62108871 1.4825,3.49487903 1.44741935,3.37915323 C1.43491935,3.33076613 1.43491935,3.26826613 1.42241935,3.22431452 C1.37766129,3.0803629 1.36677419,2.91342742 1.32443548,2.76262097 C1.31475806,2.71907258 1.3075,2.67471774 1.29741935,2.63479839 C1.22403226,2.35334677 1.19056452,2.03721774 1.10870968,1.76665323 C1.0933871,1.71504032 1.11354839,1.64850806 1.09862903,1.59205645 C1.0825,1.52915323 1.06516129,1.47391129 1.0466129,1.4178629 C1.03895161,1.38883065 1.03895161,1.36625 1.03209677,1.34004032 C1.0183871,1.29407258 0.997822581,1.25858871 0.973225806,1.26342742 C0.943387097,1.27310484 0.94983871,1.30052419 0.950645161,1.33923387 C0.953467742,1.40173387 0.959112903,1.45455645 0.972016129,1.50616935 C0.9825,1.54850806 0.975645161,1.58358871 0.98733871,1.62229839 C1.01435484,1.71020161 1.02201613,1.83358871 1.03653226,1.91262097 C1.04177419,1.94608871 1.03814516,1.99004032 1.04459677,2.02915323 C1.05266129,2.06907258 1.08370968,2.12149194 1.09177419,2.16504032 C1.10064516,2.22350806 1.10024194,2.29931452 1.10951613,2.36262097 C1.12120968,2.41584677 1.13653226,2.46665323 1.15024194,2.51745968 C1.16233871,2.56020161 1.15387097,2.6021371 1.16637097,2.64125 C1.17927419,2.68318548 1.20104839,2.72391129 1.2091129,2.76987903 C1.21677419,2.81907258 1.20870968,2.89245968 1.21879032,2.93560484 C1.28290323,3.18318548 1.30145161,3.4771371 1.37403226,3.71504032 C1.38290323,3.74891129 1.38491935,3.78520161 1.39298387,3.81947581 C1.45346774,4.02794355 1.49943548,4.25012097 1.56153226,4.45576613 C1.56919355,4.48842742 1.56798387,4.52149194 1.57685484,4.55616935 C1.59741935,4.62955645 1.61556452,4.70778226 1.6308871,4.78116935 C1.63814516,4.81342742 1.63814516,4.84528226 1.6466129,4.87794355 C1.66879032,4.95415323 1.69540323,5.02834677 1.71959677,5.10294355 C1.72887097,5.13923387 1.73290323,5.17552419 1.73895161,5.21141129 C1.74540323,5.24004032 1.76072581,5.27310484 1.76919355,5.30092742 C1.78209677,5.34407258 1.77846774,5.38520161 1.79298387,5.42512097 C1.80104839,5.44810484 1.81959677,5.47391129 1.82645161,5.49891129 C1.83612903,5.54245968 1.84137097,5.58681452 1.85427419,5.6303629 C1.87120968,5.68278226 1.89903226,5.73399194 1.92120968,5.78560484 C1.93693548,5.82875 1.93653226,5.87229839 1.95266129,5.91342742 C1.9825,5.98721774 2.01395161,6.07310484 2.04217742,6.15052419 C2.06596774,6.21423387 2.06919355,6.27955645 2.09137097,6.34487903 C2.1075,6.38681452 2.12725806,6.43116935 2.14258065,6.47229839 C2.15104839,6.50576613 2.1575,6.53883065 2.16919355,6.57350806 C2.17967742,6.60455645 2.21314516,6.65334677 2.23532258,6.69366935 C2.25346774,6.73842742 2.24540323,6.80012097 2.25991935,6.84891129 C2.27483871,6.89891129 2.30266129,6.93842742 2.31959677,6.98479839 C2.33491935,7.03076613 2.33491935,7.0803629 2.34741935,7.12794355 C2.36072581,7.16383065 2.38532258,7.19971774 2.40145161,7.23278226 C2.41556452,7.27310484 2.42967742,7.31302419 2.44419355,7.35334677 C2.4558871,7.37875 2.47725806,7.40576613 2.48895161,7.43076613 C2.51153226,7.47754032 2.52927419,7.5271371 2.54862903,7.57471774 C2.57604839,7.64245968 2.57846774,7.72552419 2.59943548,7.80334677 C2.60467742,7.82512097 2.60427419,7.87834677 2.59056452,7.88479839 C2.5591129,7.89044355 2.52403226,7.84125 2.50225806,7.81060484 C2.46637097,7.75899194 2.4308871,7.70173387 2.40387097,7.63923387 C2.395,7.61584677 2.38895161,7.5928629 2.38169355,7.56947581 C2.36072581,7.5178629 2.34580645,7.45939516 2.32201613,7.40657258 C2.30790323,7.37512097 2.28774194,7.34004032 2.27604839,7.30576613 C2.25951613,7.25616935 2.26717742,7.19810484 2.24782258,7.15455645 C2.2308871,7.11826613 2.20185484,7.09004032 2.18532258,7.05334677 C2.17322581,7.02028226 2.16758065,6.98560484 2.15306452,6.95294355 C2.13532258,6.91302419 2.11112903,6.87754032 2.08935484,6.8396371 C2.07282258,6.80334677 2.07443548,6.76625 2.06233871,6.72350806 C2.04782258,6.67270161 2.0325,6.62229839 2.01072581,6.57592742 C1.98895161,6.52915323 1.96112903,6.48076613 1.94016129,6.43197581 C1.93048387,6.40495968 1.92564516,6.37754032 1.9183871,6.35052419 C1.90508065,6.31423387 1.88612903,6.27431452 1.87120968,6.23802419 C1.86274194,6.21141129 1.85669355,6.18237903 1.84540323,6.15697581 C1.82766129,6.11705645 1.80629032,6.07229839 1.79016129,6.02834677 C1.77846774,5.99245968 1.77604839,5.95495968 1.76395161,5.91987903 C1.74096774,5.85737903 1.71959677,5.78721774 1.69862903,5.72552419 C1.68532258,5.67875 1.68008065,5.6303629 1.66677419,5.58237903 C1.64862903,5.52673387 1.62443548,5.47149194 1.60266129,5.41544355 C1.58774194,5.37068548 1.5841129,5.32229839 1.57080645,5.27633065 C1.54943548,5.21665323 1.51959677,5.16060484 1.49862903,5.09729839 C1.48774194,5.04770161 1.48572581,4.99770161 1.47443548,4.95052419 C1.43935484,4.83358871 1.40266129,4.70455645 1.36516129,4.58560484 C1.32282258,4.4521371 1.31959677,4.30133065 1.2808871,4.16705645 C1.25387097,4.07068548 1.21919355,3.97834677 1.19016129,3.88358871 C1.17887097,3.83479839 1.17766129,3.78883065 1.16556452,3.74044355 C1.13935484,3.63439516 1.09943548,3.49447581 1.06435484,3.38358871 C1.04620968,3.32512097 1.05145161,3.26504032 1.03532258,3.20133065 C1.01717742,3.13883065 1.01596774,3.06302419 0.996209677,2.99608871 C0.983306452,2.95455645 0.967580645,2.92471774 0.9575,2.87189516 C0.947016129,2.81907258 0.948225806,2.75616935 0.940564516,2.71705645 C0.9325,2.67754032 0.863548387,2.44245968 0.855887097,2.39891129 C0.847822581,2.35576613 0.847822581,2.27592742 0.842983871,2.24770161 C0.839354839,2.22875 0.803870968,2.1271371 0.799435484,2.10092742 C0.794596774,2.07431452 0.794596774,2.04407258 0.783709677,1.99245968 C0.773225806,1.9396371 0.743387097,1.82391129 0.738145161,1.79044355 C0.733306452,1.75697581 0.732903226,1.68883065 0.725645161,1.65495968 C0.718790323,1.62149194 0.696209677,1.54407258 0.681290323,1.48802419 C0.663145161,1.42149194 0.676854839,1.35012097 0.658306452,1.28681452 C0.645,1.24044355 0.628870968,1.19407258 0.611532258,1.14971774 C0.601048387,1.11060484 0.58733871,1.05818548 0.584516129,1.03479839 C0.582096774,0.99891129 0.579677419,0.924717742 0.578467742,0.897701613 C0.576854839,0.858991935 0.561129032,0.79608871 0.557096774,0.740846774 C0.55266129,0.665040323 0.536129032,0.584798387 0.52483871,0.538830645 C0.517177419,0.51141129 0.519596774,0.478346774 0.513951613,0.453346774 C0.494596774,0.379153226 0.476451613,0.311008065 0.439758065,0.315443548 C0.41233871,0.320282258 0.40266129,0.342056452 0.413951613,0.390846774 C0.427258065,0.448508065 0.433306452,0.492862903 0.447419355,0.550120968 C0.454677419,0.580362903 0.456693548,0.656169355 0.457903226,0.681169355 C0.459516129,0.721895161 0.461532258,0.731572581 0.466774194,0.769879032 C0.468790323,0.786008065 0.475241935,0.822701613 0.480080645,0.839637097 C0.486532258,0.866653226 0.494596774,0.90375 0.493790323,0.922701613 C0.493387097,0.94891129 0.492580645,0.976330645 0.492580645,1.01383065 C0.492983871,1.03358871 0.493790323,1.0396371 0.501451613,1.07310484 C0.508709677,1.10616935 0.513145161,1.11221774 0.51516129,1.14044355 C0.516370968,1.16423387 0.513951613,1.18641129 0.515564516,1.20737903 C0.515967742,1.23278226 0.519193548,1.25858871 0.526451613,1.28197581 C0.542177419,1.33076613 0.574435484,1.39891129 0.561129032,1.47189516 C0.546209677,1.54850806 0.57,1.62229839 0.58733871,1.68883065 C0.595806452,1.73197581 0.586935484,1.77955645 0.595,1.82028226 C0.611532258,1.87794355 0.625241935,1.93923387 0.640564516,1.99850806 C0.653467742,2.04770161 0.644193548,2.09165323 0.657096774,2.13842742 C0.675241935,2.20334677 0.72,2.29125 0.725241935,2.32068548 C0.730483871,2.35012097 0.729677419,2.42915323 0.738145161,2.47955645 C0.747419355,2.52955645 0.759112903,2.58681452 0.762741935,2.61866935 C0.766774194,2.65052419 0.761532258,2.6646371 0.76516129,2.68842742 C0.768790323,2.71221774 0.801048387,2.82592742 0.805887097,2.8553629 C0.811129032,2.88479839 0.809919355,2.89971774 0.815564516,2.9303629 C0.822419355,2.96181452 0.847419355,3.08358871 0.853870968,3.12270161 C0.859919355,3.16181452 0.8575,3.18520161 0.864758065,3.22431452 C0.876048387,3.28479839 0.901048387,3.33600806 0.913951613,3.39407258 C0.922016129,3.43681452 0.919193548,3.46383065 0.92483871,3.49850806 C0.936935484,3.55334677 0.955080645,3.6021371 0.96516129,3.65375 C0.972822581,3.69326613 0.973225806,3.73358871 0.980887097,3.77391129 C0.99983871,3.86181452 1.01233871,3.95092742 1.03612903,4.03721774 C1.05104839,4.08883065 1.08129032,4.13600806 1.09620968,4.18479839 C1.10870968,4.23076613 1.11233871,4.27955645 1.12403226,4.32431452 C1.13612903,4.36383065 1.16354839,4.39971774 1.17362903,4.44084677 C1.18048387,4.4771371 1.17927419,4.51342742 1.18612903,4.54931452 C1.195,4.59044355 1.21314516,4.63157258 1.22120968,4.67350806 C1.22685484,4.70576613 1.22443548,4.73681452 1.2325,4.77028226 C1.24419355,4.80737903 1.26193548,4.83923387 1.27080645,4.87512097 C1.27967742,4.92028226 1.27927419,4.96544355 1.29016129,5.01060484 C1.30387097,5.06262097 1.32604839,5.11342742 1.34298387,5.16181452 C1.3575,5.20737903 1.34862903,5.25616935 1.36314516,5.3053629 C1.39258065,5.41100806 1.42725806,5.52834677 1.46274194,5.6271371 C1.47846774,5.68076613 1.47604839,5.73560484 1.49580645,5.79407258 C1.5091129,5.83278226 1.52685484,5.85899194 1.54137097,5.89125 C1.55467742,5.92592742 1.5433871,5.96383065 1.55387097,6.00375 C1.57040323,6.06705645 1.58048387,6.15375 1.60306452,6.21665323 C1.62887097,6.28802419 1.67,6.34568548 1.69540323,6.41504032 C1.71959677,6.48762097 1.7216129,6.56020161 1.74580645,6.63600806 C1.76879032,6.69971774 1.80145161,6.75899194 1.82564516,6.81826613 C1.8466129,6.86987903 1.83895161,6.93802419 1.85870968,6.99245968 C1.88048387,7.05254032 1.92322581,7.09850806 1.94580645,7.15979839 C1.9716129,7.22995968 1.98895161,7.29891129 2.01072581,7.36907258 C2.01798387,7.39891129 2.02322581,7.42875 2.02967742,7.45858871 C2.05467742,7.54931452 2.10387097,7.62391129 2.13532258,7.71100806 C2.14782258,7.75173387 2.15024194,7.78560484 2.16233871,7.82350806 C2.18451613,7.88520161 2.20991935,7.94971774 2.23854839,8.00939516 C2.26314516,8.06221774 2.29741935,8.11504032 2.32120968,8.16866935 C2.3433871,8.2178629 2.34822581,8.26866935 2.36959677,8.32028226 C2.38895161,8.36947581 2.41314516,8.42350806 2.43290323,8.47552419 C2.4433871,8.50697581 2.44540323,8.53479839 2.45870968,8.5646371 C2.52040323,8.70254032 2.59580645,8.84165323 2.65951613,8.97633065 C2.69298387,9.05052419 2.70951613,9.13076613 2.74379032,9.2053629 C2.77241935,9.26423387 2.80548387,9.32108871 2.83209677,9.38439516 C2.84822581,9.42431452 2.85306452,9.46302419 2.87080645,9.50052419 C2.90508065,9.57471774 2.95306452,9.64891129 2.98653226,9.72189516 C2.99540323,9.74084677 3.02120968,9.81907258 3.01072581,9.84971774 C3.00951613,9.85334677 3.00870968,9.85939516 3.00306452,9.86141129 C2.98048387,9.8678629 2.9341129,9.82834677 2.90870968,9.80254032 C2.82040323,9.71665323 2.80669355,9.55334677 2.745,9.44165323 C2.72725806,9.41020161 2.70629032,9.37431452 2.69096774,9.34084677 C2.68209677,9.31705645 2.67685484,9.29447581 2.66556452,9.27068548 C2.62725806,9.19891129 2.57967742,9.13318548 2.54540323,9.05697581 C2.52080645,9.00173387 2.5183871,8.93883065 2.4933871,8.88641129 C2.39258065,8.67028226 2.27725806,8.46181452 2.1808871,8.24487903 C2.13653226,8.14608871 2.12685484,8.03399194 2.08854839,7.9271371 C2.06556452,7.86342742 2.02725806,7.81060484 2.00104839,7.7521371 C1.97967742,7.7053629 1.97443548,7.65657258 1.95387097,7.60858871 C1.92604839,7.54689516 1.88653226,7.48923387 1.86193548,7.42229839 C1.84701613,7.37875 1.84096774,7.33479839 1.82524194,7.29125 C1.80548387,7.24407258 1.77322581,7.20455645 1.75185484,7.15858871 C1.72201613,7.09044355 1.71717742,7.02310484 1.69459677,6.94487903 C1.6825,6.90294355 1.66516129,6.85899194 1.65145161,6.82108871 C1.64016129,6.78439516 1.63653226,6.74770161 1.62483871,6.71221774 C1.59459677,6.63076613 1.54620968,6.55858871 1.51556452,6.47552419 C1.495,6.41866935 1.49822581,6.34770161 1.47443548,6.29326613 C1.45467742,6.24810484 1.41879032,6.21181452 1.40064516,6.16504032 C1.38048387,6.11584677 1.39862903,6.05657258 1.38290323,5.99810484 C1.36798387,5.9428629 1.34580645,5.89044355 1.32725806,5.83923387 C1.31717742,5.80657258 1.31395161,5.77391129 1.30427419,5.74245968 C1.28008065,5.67512097 1.25629032,5.60778226 1.23129032,5.54044355 C1.21919355,5.50657258 1.21879032,5.47471774 1.20508065,5.44366935 C1.18693548,5.40375 1.1575,5.36625 1.14298387,5.32270161 C1.12645161,5.25778226 1.12040323,5.18923387 1.10508065,5.12512097 C1.07846774,5.04004032 1.0466129,4.97068548 1.02201613,4.88842742 C1.01596774,4.86181452 1.01596774,4.83641129 1.0091129,4.80737903 C0.988951613,4.73479839 0.978467742,4.65173387 0.958306452,4.57875 C0.950645161,4.54326613 0.951854839,4.51302419 0.943387097,4.47794355 C0.923225806,4.40858871 0.899435484,4.33842742 0.878064516,4.27229839 C0.867177419,4.22955645 0.864758065,4.18600806 0.854274194,4.14447581 C0.820403226,4.03600806 0.789354839,3.90858871 0.757096774,3.80294355 C0.748629032,3.77189516 0.751854839,3.74487903 0.742580645,3.71020161 C0.715967742,3.62794355 0.6825,3.52754032 0.663951613,3.44205645 C0.654274194,3.39245968 0.653870968,3.34528226 0.643387097,3.29891129 C0.630483871,3.24165323 0.610322581,3.18560484 0.598629032,3.12875 C0.594596774,3.10173387 0.598629032,3.08116935 0.596209677,3.05858871 C0.590564516,3.02108871 0.58733871,2.98358871 0.580483871,2.94689516 C0.543790323,2.79729839 0.484516129,2.61221774 0.452258065,2.46181452 C0.442177419,2.40778226 0.44016129,2.35334677 0.434919355,2.29891129 C0.428467742,2.26221774 0.426048387,2.2178629 0.414758065,2.17875 C0.403467742,2.1396371 0.385322581,2.09891129 0.379677419,2.05858871 C0.371612903,1.99366935 0.370806452,1.93076613 0.361532258,1.86907258 C0.360725806,1.86383065 0.359516129,1.85899194 0.358306452,1.85415323 C0.345,1.7771371 0.306290323,1.61987903 0.297419355,1.55858871 C0.286935484,1.48358871 0.278467742,1.40778226 0.269193548,1.33479839 C0.267580645,1.28681452 0.259516129,1.23681452 0.25266129,1.18560484 C0.242177419,1.10778226 0.223225806,1.04004032 0.214758065,0.960604839 C0.208709677,0.906975806 0.211935484,0.858991935 0.205483871,0.814233871 C0.201451613,0.785604839 0.19983871,0.736008065 0.164758065,0.736008065 C0.129677419,0.736008065 0.133709677,0.777540323 0.132096774,0.811008065 C0.127258065,0.891653226 0.142580645,0.996895161 0.148225806,1.04649194 C0.159516129,1.13883065 0.151048387,1.22875 0.161532258,1.32270161 C0.167177419,1.37471774 0.183306452,1.42794355 0.19016129,1.47794355 C0.20266129,1.56625 0.211129032,1.65657258 0.222419355,1.74125 C0.222419355,1.7428629 0.222822581,1.74447581 0.222822581,1.74568548 C0.226048387,1.78600806 0.230887097,1.82512097 0.237741935,1.86262097 C0.238951613,1.86665323 0.239758065,1.87028226 0.240564516,1.87391129 C0.240564516,1.87633065 0.240564516,1.87754032 0.241774194,1.87955645 C0.242177419,1.88157258 0.242177419,1.88399194 0.242983871,1.88600806 L0.242983871,1.88641129 C0.246612903,1.90375 0.250645161,1.92068548 0.255080645,1.93762097 C0.26516129,1.97189516 0.261129032,1.99971774 0.270806452,2.03439516 C0.298225806,2.13721774 0.292177419,2.24850806 0.320403226,2.34810484 C0.361532258,2.49689516 0.383306452,2.66221774 0.42483871,2.80979839 C0.436532258,2.85294355 0.425241935,2.89487903 0.436935484,2.94125 C0.449032258,2.98883065 0.461935484,3.03439516 0.472822581,3.08076613 C0.484112903,3.13721774 0.475645161,3.19407258 0.49016129,3.25133065 C0.503870968,3.30294355 0.520403226,3.35697581 0.534516129,3.40657258 C0.54983871,3.46705645 0.551451613,3.5303629 0.568387097,3.59649194 C0.58733871,3.66262097 0.609516129,3.73520161 0.621612903,3.8021371 C0.635322581,3.87834677 0.642983871,3.96584677 0.657096774,4.04608871 C0.67,4.11342742 0.706693548,4.19366935 0.722822581,4.26745968 C0.726451613,4.29165323 0.725241935,4.31584677 0.729274194,4.34084677 C0.738951613,4.39366935 0.754677419,4.44528226 0.765564516,4.49568548 C0.771209677,4.51907258 0.769596774,4.54004032 0.775645161,4.56544355 C0.801451613,4.66221774 0.830887097,4.78358871 0.861129032,4.87955645 C0.868790323,4.90616935 0.872016129,4.93358871 0.878467742,4.96100806 C0.897822581,5.02875 0.918790323,5.07955645 0.926048387,5.11625 C0.9325,5.14850806 0.936129032,5.18600806 0.945403226,5.22149194 C0.959112903,5.27391129 0.975645161,5.31866935 0.985322581,5.36423387 C0.993387097,5.39971774 0.999032258,5.43278226 1.00830645,5.46866935 C1.02,5.51181452 1.03814516,5.55173387 1.05508065,5.59366935 C1.08532258,5.6803629 1.08774194,5.77229839 1.1183871,5.85657258 C1.13653226,5.90697581 1.16112903,5.9553629 1.17766129,6.00899194 C1.19096774,6.05778226 1.195,6.11705645 1.21072581,6.17108871 C1.23854839,6.25495968 1.27080645,6.35052419 1.30145161,6.43520161 C1.33693548,6.53439516 1.35870968,6.64366935 1.3933871,6.73762097 C1.40709677,6.77552419 1.40427419,6.81221774 1.41677419,6.85375 C1.445,6.94770161 1.47806452,7.05334677 1.5075,7.14891129 C1.52443548,7.19971774 1.52524194,7.24810484 1.54419355,7.29568548 C1.57604839,7.37592742 1.62322581,7.44366935 1.65266129,7.52512097 C1.67846774,7.59568548 1.68370968,7.66584677 1.71032258,7.73076613 C1.74540323,7.8178629 1.78653226,7.90657258 1.81959677,7.99850806 C1.84258065,8.06141129 1.84983871,8.12512097 1.87685484,8.18520161 C1.89943548,8.23600806 1.92927419,8.28923387 1.95145161,8.34004032 C1.9683871,8.38520161 1.98330645,8.4303629 1.99903226,8.47592742 C2.01112903,8.51060484 2.04862903,8.56947581 2.07322581,8.61584677 C2.10145161,8.67834677 2.10629032,8.74649194 2.13048387,8.81383065 C2.16758065,8.91625 2.21758065,9.02068548 2.26072581,9.11665323 C2.27806452,9.15415323 2.28129032,9.18923387 2.29620968,9.22915323 C2.32120968,9.29770161 2.36677419,9.34850806 2.395,9.41181452 C2.42241935,9.47189516 2.42967742,9.53600806 2.4558871,9.59407258 C2.49459677,9.67915323 2.52443548,9.72350806 2.52403226,9.84608871 C2.52322581,9.85697581 2.52040323,9.86504032 2.50790323,9.86907258 C2.48491935,9.87834677 2.4591129,9.84044355 2.44459677,9.82633065 C2.37967742,9.76221774 2.36959677,9.70092742 2.32887097,9.61262097 C2.26596774,9.47794355 2.18653226,9.35133065 2.12564516,9.21987903 C2.0933871,9.15133065 2.08008065,9.0771371 2.04862903,9.00657258 C2.02967742,8.96383065 2.00104839,8.91987903 1.98169355,8.87794355 C1.95266129,8.81705645 1.93774194,8.75254032 1.9058871,8.69568548 C1.86112903,8.61504032 1.82483871,8.51907258 1.78814516,8.42754032 C1.77443548,8.39326613 1.77282258,8.36020161 1.75830645,8.3271371 C1.74177419,8.29205645 1.71596774,8.25939516 1.70024194,8.22592742 C1.67685484,8.16947581 1.66233871,8.10092742 1.63935484,8.04326613 C1.59016129,7.93479839 1.5341129,7.82068548 1.49258065,7.70576613 C1.45346774,7.60052419 1.43491935,7.49891129 1.3966129,7.39165323 C1.38048387,7.34810484 1.35951613,7.29971774 1.345,7.2553629 C1.33169355,7.21584677 1.33129032,7.18116935 1.31717742,7.14326613 C1.28290323,7.04649194 1.23653226,6.94487903 1.19620968,6.85173387 C1.17564516,6.80657258 1.16959677,6.76100806 1.15225806,6.71262097 C1.13129032,6.65334677 1.10548387,6.58883065 1.0841129,6.52995968 C1.05548387,6.45334677 1.05467742,6.36302419 1.02524194,6.28197581 C0.96233871,6.10858871 0.881693548,5.92633065 0.828064516,5.7428629 C0.818387097,5.70092742 0.820806452,5.65737903 0.808306452,5.6146371 C0.779274194,5.52310484 0.749435484,5.42108871 0.720806452,5.32350806 C0.688951613,5.21504032 0.692983871,5.10012097 0.658709677,4.99407258 C0.615967742,4.85697581 0.567580645,4.71383065 0.52483871,4.57915323 C0.511935484,4.53762097 0.517177419,4.49528226 0.504677419,4.45133065 C0.475241935,4.34568548 0.439758065,4.22310484 0.404274194,4.12512097 C0.386935484,4.0771371 0.386532258,4.02391129 0.368387097,3.97794355 C0.346612903,3.92270161 0.290564516,3.94326613 0.295,4.0053629 C0.299435484,4.06141129 0.318387097,4.13479839 0.324435484,4.16423387 C0.331290323,4.20334677 0.331290323,4.24245968 0.339758065,4.28358871 C0.356693548,4.35697581 0.380887097,4.41826613 0.401451613,4.48560484 C0.422822581,4.55415323 0.422822581,4.61947581 0.443790323,4.69084677 C0.453467742,4.72592742 0.467580645,4.76625 0.478064516,4.79931452 C0.500645161,4.87068548 0.500645161,4.94729839 0.524435484,5.01262097 C0.542983871,5.06221774 0.556693548,5.12431452 0.572419355,5.17915323 C0.583306452,5.21544355 0.580080645,5.24528226 0.591774194,5.2803629 C0.611532258,5.34487903 0.6325,5.40939516 0.65266129,5.47431452 C0.662741935,5.51141129 0.658709677,5.54447581 0.667580645,5.57875 C0.681693548,5.62995968 0.692983871,5.68278226 0.707903226,5.72995968 C0.721209677,5.77592742 0.72,5.84044355 0.736129032,5.88842742 C0.764758065,5.97794355 0.797016129,6.07270161 0.826854839,6.15657258 C0.860725806,6.25012097 0.864758065,6.34810484 0.899032258,6.44326613 C0.959112903,6.61141129 1.01556452,6.80495968 1.07645161,6.97512097 C1.09217742,7.01866935 1.08653226,7.06342742 1.10024194,7.11060484 C1.12040323,7.18358871 1.13612903,7.2553629 1.16193548,7.32794355 C1.17483871,7.36262097 1.19701613,7.39729839 1.21193548,7.42875 C1.2308871,7.46987903 1.23612903,7.5146371 1.25508065,7.55697581 C1.26959677,7.59084677 1.29217742,7.62512097 1.30508065,7.66141129 C1.32443548,7.71584677 1.31717742,7.78157258 1.33774194,7.83237903 C1.35427419,7.87310484 1.37685484,7.9178629 1.39298387,7.96020161 C1.40951613,8.00697581 1.40870968,8.05697581 1.42846774,8.10012097 C1.44540323,8.13883065 1.47282258,8.17552419 1.49056452,8.21302419 C1.5075,8.24891129 1.51112903,8.28560484 1.52524194,8.32552419 C1.54016129,8.36625 1.56274194,8.40778226 1.57967742,8.44568548 C1.59862903,8.48842742 1.60024194,8.53762097 1.61959677,8.58157258 C1.63653226,8.62028226 1.66274194,8.65657258 1.67846774,8.69810484 C1.69258065,8.74165323 1.69419355,8.78842742 1.7091129,8.83358871 C1.73532258,8.89891129 1.77685484,8.95737903 1.80508065,9.02028226 C1.82604839,9.06745968 1.82806452,9.11947581 1.84862903,9.16745968 C1.87282258,9.22229839 1.90669355,9.27633065 1.93209677,9.3303629 C1.96516129,9.40294355 1.99016129,9.47955645 2.02040323,9.54810484 C2.07483871,9.67028226 2.09379032,9.80495968 2.14983871,9.92471774 C2.19096774,10.0134274 2.24701613,10.0981048 2.28653226,10.1847984 C2.30870968,10.2335887 2.31596774,10.2852016 2.33814516,10.332379 C2.36314516,10.3852016 2.40709677,10.4299597 2.43169355,10.4839919 C2.45064516,10.5372177 2.46637097,10.5916532 2.48854839,10.6428629 C2.51959677,10.7110081 2.56475806,10.7714919 2.59540323,10.8372177 C2.61314516,10.875121 2.62040323,10.912621 2.63814516,10.9497177 C2.67241935,11.0227016 2.72806452,11.0839919 2.76112903,11.1561694 C2.77846774,11.20375 2.79580645,11.2517339 2.81274194,11.2997177 C2.84903226,11.3767339 2.90709677,11.4424597 2.945,11.5210887 C2.9716129,11.5783468 2.99016129,11.6396371 3.02362903,11.6916532 C3.07685484,11.7743145 3.11112903,11.82875 3.16274194,11.9122177 C3.19540323,11.96625 3.23935484,12.0456855 3.26677419,12.1041532 C3.29379032,12.1618145 3.33814516,12.2110081 3.36475806,12.2674597 C3.39177419,12.3235081 3.42564516,12.3835887 3.45629032,12.4372177 C3.49016129,12.4972984 3.52483871,12.5416532 3.56193548,12.5981048 C3.62403226,12.6908468 3.66193548,12.7892339 3.72241935,12.882379 C3.76395161,12.9472984 3.81233871,13.0134274 3.8575,13.0763306 C3.97967742,13.2440726 4.15467742,13.5440726 4.23048387,13.6452823 C4.29217742,13.7271371 4.3433871,13.8239113 4.40064516,13.9097984 C4.445,13.9759274 4.49983871,14.0416532 4.54782258,14.1033468 C4.58733871,14.1545565 4.6183871,14.2097984 4.6575,14.2630242 L4.68733871,14.3033468 C6.25306452,16.2936694 7.86193548,17.6114113 9.22403226,18.475121 L9.22403226,18.4755242 C9.94137097,18.9243145 10.3276613,19.0549597 10.3276613,19.0549597 C10.4191935,19.0932661 10.3570968,19.1593952 10.3103226,19.1880242 L2.23290323,24.35375 C2.20709677,24.3702823 2.145,24.41625 2.17,24.4678629 C2.18895161,24.5069758 2.2716129,24.4847984 2.29379032,24.4771371 C8.77604839,22.2017339 13.4796774,20.3307661 16.3562903,18.9658468 C19.2712097,17.582379 20.2510484,16.7908468 20.1441935,16.3972984" id="Fill-556" fill="#006564" mask="url(#mask-2)"></path>
            </g>
        </g>
    </g>
</svg>